<svg width="14" height="14" viewBox="0 0 14 14" fill="none" xmlns="http://www.w3.org/2000/svg">
<path fill-rule="evenodd" clip-rule="evenodd" d="M7.86083 0.547142C7.6273 0.68951 7.61736 1.02541 7.84231 1.17278C7.87878 1.19669 8.05382 1.24907 8.23128 1.28919C9.44514 1.56361 10.4173 2.08609 11.2961 2.93636C12.1963 3.80738 12.8497 5.00331 13.0678 6.17946C13.1109 6.41212 13.1506 6.50267 13.2435 6.58088C13.4262 6.73459 13.701 6.67349 13.8064 6.45573L13.862 6.34095L13.8064 6.06229C13.5332 4.69063 12.8863 3.47979 11.8935 2.48161C10.9115 1.49429 9.74307 0.852576 8.393 0.559042C8.04467 0.483319 7.96828 0.481615 7.86083 0.547142ZM3.17604 1.2613C3.01537 1.28075 2.82255 1.35042 2.64855 1.45193C2.51289 1.53103 1.69954 2.31962 1.3921 2.67006C1.15008 2.94594 0.986277 3.24899 0.9088 3.56419C0.838061 3.85205 0.832619 4.42801 0.89718 4.79366C1.288 7.00717 3.19364 9.7764 5.52808 11.5232C6.51564 12.2622 7.69168 12.9019 8.64829 13.2205C9.29 13.4342 9.66468 13.5014 10.2067 13.5C10.5756 13.499 10.635 13.4924 10.8424 13.4293C11.0976 13.3518 11.3399 13.2281 11.5247 13.081C11.5924 13.0272 11.9089 12.7145 12.2281 12.3861C12.7461 11.8532 12.8194 11.7672 12.9097 11.5868C13.1052 11.1962 13.1088 10.8492 12.9215 10.464C12.8348 10.2857 12.7663 10.2108 11.8737 9.31629C10.9781 8.41885 10.9068 8.35353 10.728 8.2667C10.3647 8.09031 10.0129 8.09148 9.65545 8.27028C9.50741 8.34433 9.38073 8.4514 8.92408 8.8884L8.37177 9.41696L8.10246 9.26996C6.9833 8.65914 5.61901 7.28309 5.0188 6.15975L4.90765 5.95173L5.39805 5.45533C6.04965 4.79579 6.16682 4.61216 6.19517 4.20603C6.21188 3.96681 6.17427 3.79563 6.05331 3.56043C5.97601 3.41012 5.86472 3.28372 5.33809 2.74817C4.14432 1.53413 3.98629 1.39693 3.67188 1.3013C3.51107 1.2524 3.35414 1.23974 3.17604 1.2613ZM3.10955 2.06008C3.01727 2.10608 2.82471 2.28282 2.41006 2.70212C1.64292 3.47786 1.61156 3.5367 1.61337 4.19611C1.61436 4.54917 1.62385 4.64277 1.68513 4.90422C1.93269 5.96009 2.57987 7.2484 3.41786 8.35351C4.69455 10.0372 6.15037 11.2509 7.91827 12.1055C8.76645 12.5156 9.419 12.717 10.0545 12.7649C10.3685 12.7886 10.5927 12.7491 10.8424 12.6261C11.0305 12.5334 11.0892 12.4821 11.6194 11.9463C12.0084 11.5532 12.211 11.3293 12.2488 11.2506C12.3141 11.1144 12.3202 10.9578 12.2652 10.8255C12.2164 10.7082 10.5314 9.0088 10.3921 8.93648C10.2783 8.87739 10.124 8.87355 9.99686 8.92669C9.93726 8.95158 9.69392 9.17372 9.3299 9.53548C8.53585 10.3246 8.51884 10.3306 7.93673 10.0286C7.17637 9.63408 6.51215 9.12546 5.79489 8.38854C5.09546 7.66994 4.60878 7.02268 4.31016 6.41395C4.13725 6.0615 4.10308 5.92396 4.1447 5.74831C4.17323 5.62801 4.2132 5.58143 4.78949 4.99708C5.29392 4.48558 5.40929 4.35537 5.43418 4.26945C5.51743 3.98212 5.49541 3.95092 4.51574 2.96835C3.63417 2.08421 3.52719 1.99664 3.32861 1.99664C3.27816 1.99664 3.17958 2.02519 3.10955 2.06008ZM7.78973 2.88555C7.761 2.8972 7.70094 2.94836 7.65624 2.99924C7.58636 3.07883 7.575 3.11097 7.575 3.2288C7.575 3.33951 7.58779 3.38101 7.64159 3.44496C7.72901 3.54886 7.80054 3.58275 8.0454 3.6364C8.69886 3.77956 9.27144 4.097 9.76323 4.58876C10.2674 5.09299 10.5634 5.64459 10.7387 6.40688C10.796 6.65602 10.9231 6.7771 11.1272 6.7769C11.3102 6.77672 11.4905 6.60417 11.4907 6.42903C11.4909 6.30242 11.4212 6.00228 11.3246 5.71355C10.8577 4.31827 9.68034 3.2479 8.24148 2.91058C8.01911 2.85845 7.87621 2.85054 7.78973 2.88555Z" fill="#023047"/>
</svg>
