<svg width="86" height="110" viewBox="0 0 86 110" fill="none" xmlns="http://www.w3.org/2000/svg">
<g clip-path="url(#clip0_102_1057)">
<path d="M41.5966 23.175C47.7245 23.175 52.7102 18.1893 52.7102 12.0614C52.7102 5.93278 47.7245 0.947754 41.5966 0.947754C35.4687 0.947754 30.4829 5.9335 30.4829 12.0614C30.4829 18.1893 35.4679 23.175 41.5966 23.175ZM41.5966 6.09964C44.8835 6.09964 47.5583 8.77449 47.5583 12.0614C47.5583 15.3483 44.8842 18.0232 41.5966 18.0232C38.3089 18.0232 35.6355 15.349 35.6355 12.0614C35.6348 8.77449 38.3089 6.09964 41.5966 6.09964Z" fill="#023047"/>
<path d="M70.8713 23.2115C69.7507 21.4472 68.4626 19.7793 67.0263 18.2329C66.8846 18.2459 66.7364 18.2653 66.5882 18.2912C64.7592 18.594 63.0072 19.1284 61.3651 19.8886C58.1645 21.3443 55.3818 23.6243 53.2759 26.561C51.7108 28.7381 50.6032 31.1655 49.9847 33.7807C49.9588 33.8706 49.9329 33.9676 49.9142 34.0705L49.8689 34.315C49.8106 34.579 49.7595 34.8494 49.7272 35.0623L42.8491 71.3083C42.4305 71.3277 42.0119 71.3341 41.5933 71.3341C41.1747 71.3341 40.7561 71.3277 40.344 71.3083L33.4789 35.1263C33.4336 34.8559 33.3825 34.5855 33.3307 34.3604L33.2789 34.064C33.2595 33.9676 33.2336 33.877 33.2077 33.7807C32.5892 31.1727 31.4816 28.7446 29.9165 26.561C27.7653 23.5661 24.9509 21.3249 21.8143 19.8951C20.0177 19.0708 18.111 18.517 16.1661 18.2401C14.7363 19.7857 13.4546 21.4479 12.3405 23.2122C8.8436 28.6992 6.91748 35.14 6.91748 41.8116C6.91748 60.9333 22.4774 76.4868 41.5919 76.4868C60.7128 76.4868 76.2728 60.9333 76.2728 41.8116C76.2749 35.1069 74.3553 28.6856 70.8713 23.2115ZM12.0708 41.8116C12.0708 35.2874 14.235 29.0272 18.0923 23.9523C18.0987 23.9523 18.0987 23.9523 18.0987 23.9523C21.0742 24.9376 23.7728 26.8314 25.7306 29.5616C26.9346 31.236 27.7725 33.1039 28.2292 35.1199C28.2357 35.1522 28.2421 35.1904 28.2551 35.2227L28.281 35.3644C28.3198 35.5644 28.3579 35.7636 28.4032 36.0275L34.9663 70.5797C21.8733 67.5661 12.0708 55.8123 12.0708 41.8116ZM48.2204 70.5804L54.7956 35.97C54.828 35.7701 54.8661 35.5708 54.9179 35.3198L54.9373 35.2234C54.9503 35.1846 54.9567 35.1522 54.9632 35.1206C55.4207 33.1046 56.2578 31.2367 57.4618 29.5623C59.4261 26.8184 62.1311 24.9254 65.1131 23.9465C68.9646 29.0085 71.1216 35.2493 71.1216 41.8116C71.1223 55.8123 61.3205 67.5661 48.2204 70.5804Z" fill="#023047"/>
<path d="M41.5958 29.9251C42.4373 29.9251 43.1199 29.2425 43.1199 28.401C43.1199 27.5595 42.4373 26.877 41.5958 26.877C40.7543 26.877 40.0718 27.5595 40.0718 28.401C40.0718 29.2425 40.7543 29.9251 41.5958 29.9251Z" fill="#023047"/>
<path d="M41.5964 36.5672C42.6329 36.5672 43.4737 35.7271 43.4737 34.6899C43.4737 33.6535 42.6336 32.8135 41.5964 32.8135C40.56 32.8135 39.7192 33.6535 39.7192 34.6899C39.7192 35.7271 40.56 36.5672 41.5964 36.5672Z" fill="#023047"/>
<path d="M41.5967 39.458C40.2079 39.458 39.0815 40.5836 39.0815 41.9732C39.0815 43.362 40.2079 44.4883 41.5967 44.4883C42.9856 44.4883 44.1119 43.3627 44.1119 41.9732C44.1119 40.5836 42.9856 39.458 41.5967 39.458Z" fill="#023047"/>
<path d="M41.5958 54.0205C40.7543 54.0205 40.0718 54.7031 40.0718 55.5446C40.0718 56.3861 40.7543 57.0686 41.5958 57.0686C42.4373 57.0686 43.1199 56.3861 43.1199 55.5446C43.1199 54.7031 42.4373 54.0205 41.5958 54.0205Z" fill="#023047"/>
<path d="M41.5964 47.376C40.56 47.376 39.7192 48.2161 39.7192 49.2532C39.7192 50.2896 40.5593 51.1304 41.5964 51.1304C42.6329 51.1304 43.4737 50.2903 43.4737 49.2532C43.4729 48.2168 42.6329 47.376 41.5964 47.376Z" fill="#023047"/>
</g>
<path d="M15.4966 90.1016L15.3999 90.1445C14.8413 89.6289 14.1681 89.2171 13.3804 88.9092C12.5998 88.6012 11.7404 88.4473 10.8022 88.4473C9.8999 88.4473 9.07275 88.5905 8.3208 88.877C7.56885 89.1562 6.92074 89.5645 6.37646 90.1016C5.83936 90.6387 5.42041 91.2975 5.11963 92.0781C4.81885 92.8587 4.66846 93.7467 4.66846 94.7422C4.66846 95.8379 4.81169 96.862 5.09814 97.8145C5.3846 98.7598 5.81071 99.5798 6.37646 100.274C6.94222 100.969 7.64762 101.517 8.49268 101.918C9.34489 102.312 10.3368 102.509 11.4683 102.509C11.8765 102.509 12.2847 102.466 12.6929 102.38C13.1011 102.294 13.4914 102.169 13.8638 102.004C14.2433 101.832 14.5978 101.628 14.9272 101.392C15.2638 101.148 15.5682 100.872 15.8403 100.564L15.9585 100.64L15.0991 102.831C14.562 103.039 13.9676 103.196 13.3159 103.304C12.6714 103.418 12.0197 103.476 11.3608 103.476C10.036 103.476 8.8221 103.286 7.71924 102.906C6.62354 102.52 5.67822 101.975 4.8833 101.273C4.09554 100.572 3.47965 99.7301 3.03564 98.749C2.5988 97.7607 2.38037 96.665 2.38037 95.4619C2.38037 94.7816 2.46631 94.112 2.63818 93.4531C2.81722 92.7943 3.07503 92.1676 3.41162 91.5732C3.74821 90.9788 4.16357 90.4346 4.65771 89.9404C5.15186 89.4391 5.71403 89.0059 6.34424 88.6406C6.98161 88.2754 7.67985 87.9925 8.43896 87.792C9.20524 87.5843 10.0324 87.4805 10.9204 87.4805C12.3026 87.4805 13.5845 87.6917 14.7661 88.1143L15.4966 90.1016ZM17.1831 99.9736C17.1831 99.4079 17.2977 98.9173 17.5269 98.502C17.7632 98.0866 18.0747 97.7321 18.4614 97.4385C18.8481 97.1449 19.2886 96.9085 19.7827 96.7295C20.2769 96.5433 20.7889 96.4001 21.3188 96.2998C21.8488 96.1924 22.3716 96.1208 22.8872 96.085C23.4028 96.042 23.8755 96.0169 24.3052 96.0098V95.4619C24.3052 94.9893 24.2443 94.5811 24.1226 94.2373C24.0008 93.8936 23.8289 93.6107 23.6069 93.3887C23.3849 93.1595 23.1164 92.9912 22.8013 92.8838C22.4933 92.7692 22.1532 92.7119 21.7808 92.7119C21.5229 92.7119 21.2687 92.7334 21.0181 92.7764C20.7674 92.8193 20.506 92.891 20.2339 92.9912C19.9689 93.0915 19.686 93.2275 19.3853 93.3994C19.0916 93.5713 18.7729 93.7897 18.4292 94.0547L18.3218 93.9902L19.0522 92.4756C19.2886 92.3682 19.5213 92.2822 19.7505 92.2178C19.9797 92.1462 20.2124 92.0889 20.4487 92.0459C20.6851 92.0029 20.925 91.9743 21.1685 91.96C21.4191 91.9385 21.6805 91.9277 21.9526 91.9277C22.7046 91.9277 23.3455 92.0208 23.8755 92.207C24.4126 92.3861 24.8494 92.6367 25.186 92.959C25.5298 93.2741 25.7804 93.6465 25.938 94.0762C26.0955 94.4987 26.1743 94.9535 26.1743 95.4404V98.9424C26.1743 99.5511 26.1815 100.085 26.1958 100.543C26.2173 100.994 26.2388 101.384 26.2603 101.714C26.2889 102.043 26.3211 102.319 26.3569 102.541C26.3999 102.763 26.4429 102.949 26.4858 103.1V103.143H24.1118V103.1C24.1476 102.985 24.1727 102.856 24.187 102.713C24.2085 102.57 24.2264 102.398 24.2407 102.197C24.0903 102.326 23.9113 102.459 23.7036 102.595C23.5031 102.731 23.2703 102.856 23.0054 102.971C22.7476 103.078 22.4575 103.164 22.1353 103.229C21.8201 103.3 21.4728 103.336 21.0933 103.336C19.8472 103.336 18.884 103.046 18.2036 102.466C17.5233 101.879 17.1831 101.048 17.1831 99.9736ZM24.3052 96.8477C23.6535 96.8548 23.0269 96.8942 22.4253 96.9658C21.8237 97.0303 21.2902 97.1699 20.8247 97.3848C20.3664 97.5996 19.9976 97.9076 19.7183 98.3086C19.4461 98.7025 19.3101 99.2288 19.3101 99.8877C19.3101 100.733 19.5213 101.377 19.9438 101.821C20.3664 102.265 20.95 102.487 21.6948 102.487C22.0386 102.487 22.3501 102.441 22.6294 102.348C22.9159 102.247 23.1665 102.126 23.3813 101.982C23.6034 101.832 23.7896 101.671 23.9399 101.499C24.0903 101.32 24.2049 101.148 24.2837 100.983C24.298 100.711 24.3052 100.41 24.3052 100.081C24.3052 99.7445 24.3052 99.3649 24.3052 98.9424V96.8477ZM29.4292 96.3428C29.4292 95.734 29.4185 95.2041 29.397 94.7529C29.3826 94.2946 29.3612 93.9007 29.3325 93.5713C29.311 93.2419 29.2788 92.9661 29.2358 92.7441C29.2 92.5221 29.1606 92.3359 29.1177 92.1855V92.1426H31.5991V92.1855C31.5418 92.3503 31.4917 92.5508 31.4487 92.7871C31.4129 93.0234 31.3843 93.3278 31.3628 93.7002C31.6278 93.4782 31.9035 93.2598 32.1899 93.0449C32.4764 92.8301 32.77 92.6403 33.0708 92.4756C33.3716 92.3109 33.6759 92.1784 33.9839 92.0781C34.299 91.9779 34.6141 91.9277 34.9292 91.9277C35.1226 91.9277 35.2909 91.9385 35.4341 91.96C35.5773 91.9743 35.7062 91.9993 35.8208 92.0352C35.9354 92.0638 36.0392 92.0996 36.1323 92.1426C36.2254 92.1784 36.3149 92.2142 36.4009 92.25L35.8745 94.3018L35.6919 94.2588C35.606 93.9437 35.4448 93.693 35.2085 93.5068C34.9722 93.3135 34.6499 93.2168 34.2417 93.2168C34.0197 93.2168 33.7869 93.2562 33.5435 93.335C33.3 93.4137 33.0529 93.5247 32.8022 93.668C32.5516 93.804 32.3009 93.9652 32.0503 94.1514C31.7996 94.3304 31.5562 94.5202 31.3198 94.7207C31.3055 94.9284 31.2983 95.154 31.2983 95.3975C31.2983 95.641 31.2983 95.8988 31.2983 96.1709V98.9424C31.2983 99.5511 31.3055 100.085 31.3198 100.543C31.3341 100.994 31.3556 101.384 31.3843 101.714C31.4129 102.043 31.4451 102.319 31.481 102.541C31.5168 102.763 31.5562 102.949 31.5991 103.1V103.143H29.1177V103.1C29.1606 102.949 29.2 102.763 29.2358 102.541C29.2788 102.319 29.311 102.043 29.3325 101.714C29.3612 101.384 29.3826 100.994 29.397 100.543C29.4185 100.085 29.4292 99.5511 29.4292 98.9424V96.3428ZM42.8784 103.336C42.0835 103.336 41.3387 103.211 40.644 102.96C39.9494 102.709 39.3442 102.344 38.8286 101.864C38.313 101.377 37.9048 100.779 37.604 100.07C37.3104 99.3542 37.1636 98.5378 37.1636 97.6211C37.1636 96.8118 37.2996 96.0635 37.5718 95.376C37.8439 94.6813 38.2199 94.0798 38.6997 93.5713C39.1795 93.0628 39.7381 92.6654 40.3755 92.3789C41.02 92.0924 41.7147 91.9492 42.4595 91.9492C43.1971 91.9492 43.881 92.0781 44.5112 92.3359C45.1414 92.5866 45.6857 92.9554 46.144 93.4424C46.6095 93.9222 46.9748 94.5202 47.2397 95.2363C47.5119 95.9453 47.6587 96.7546 47.6802 97.6641C46.8709 97.6497 46.0617 97.639 45.2524 97.6318C44.4432 97.6247 43.6017 97.6211 42.728 97.6211C42.105 97.6211 41.4963 97.6247 40.9019 97.6318C40.3146 97.639 39.7847 97.6497 39.312 97.6641C39.355 98.4089 39.4696 99.082 39.6558 99.6836C39.8491 100.285 40.1105 100.801 40.4399 101.23C40.7765 101.653 41.1812 101.979 41.6538 102.208C42.1336 102.437 42.6743 102.552 43.2759 102.552C43.6912 102.552 44.0815 102.505 44.4468 102.412C44.8192 102.312 45.1558 102.176 45.4565 102.004C45.7573 101.832 46.0259 101.632 46.2622 101.402C46.4985 101.166 46.6991 100.912 46.8638 100.64L46.9927 100.704L46.1978 102.616C45.811 102.817 45.3491 102.989 44.812 103.132C44.2749 103.268 43.6304 103.336 42.8784 103.336ZM41.4497 96.7832C42.1659 96.7832 42.882 96.7832 43.5981 96.7832C44.3215 96.776 44.9767 96.7617 45.564 96.7402C45.4995 96.1172 45.3778 95.5586 45.1987 95.0645C45.0197 94.5703 44.7905 94.1514 44.5112 93.8076C44.2319 93.4639 43.9025 93.1989 43.5229 93.0127C43.1434 92.8265 42.7244 92.7334 42.2661 92.7334C41.8507 92.7334 41.4676 92.8265 41.1167 93.0127C40.7729 93.1917 40.4722 93.4531 40.2144 93.7969C39.9565 94.1406 39.7489 94.5632 39.5913 95.0645C39.4338 95.5586 39.3407 96.1243 39.312 96.7617C39.6343 96.776 39.9744 96.7832 40.3325 96.7832C40.6906 96.7832 41.063 96.7832 41.4497 96.7832ZM56.8755 96.3428C56.8755 95.5479 56.8576 94.8783 56.8218 94.334C56.7931 93.7826 56.7573 93.3314 56.7144 92.9805H52.2241V98.9424C52.2241 99.5511 52.2313 100.085 52.2456 100.543C52.2671 100.994 52.2886 101.384 52.3101 101.714C52.3387 102.043 52.3709 102.319 52.4067 102.541C52.4497 102.763 52.4927 102.949 52.5356 103.1V103.143H50.0542V103.1C50.0972 102.949 50.1366 102.763 50.1724 102.541C50.2082 102.319 50.2404 102.043 50.269 101.714C50.2977 101.384 50.3192 100.994 50.3335 100.543C50.3478 100.085 50.355 99.5511 50.355 98.9424V92.9805L48.5503 93.0449V92.0996C48.7723 92.1139 49.0373 92.1247 49.3452 92.1318C49.6532 92.139 49.9897 92.1426 50.355 92.1426V90.9072C50.355 90.4059 50.4159 89.9583 50.5376 89.5645C50.6665 89.1706 50.8384 88.8268 51.0532 88.5332C51.2752 88.2396 51.5295 87.9889 51.8159 87.7812C52.1095 87.5736 52.4175 87.4053 52.7397 87.2764C53.062 87.1475 53.3914 87.0544 53.728 86.9971C54.0646 86.9398 54.394 86.9111 54.7163 86.9111C55.0744 86.9111 55.4074 86.9255 55.7153 86.9541C56.0233 86.9827 56.299 87.0186 56.5425 87.0615C56.786 87.1045 56.9937 87.1475 57.1655 87.1904C57.3446 87.2334 57.4806 87.2692 57.5737 87.2979L57.9927 89.124L57.8638 89.1992C57.7205 89.0202 57.5487 88.8447 57.3481 88.6729C57.1476 88.501 56.9149 88.347 56.6499 88.2109C56.3921 88.0677 56.0985 87.9531 55.769 87.8672C55.4396 87.7812 55.0744 87.7383 54.6733 87.7383C54.4943 87.7383 54.2651 87.7669 53.9858 87.8242C53.7137 87.8815 53.4451 88.0104 53.1802 88.2109C52.9224 88.4043 52.6968 88.6979 52.5034 89.0918C52.3172 89.4785 52.2241 90.0049 52.2241 90.6709V92.1426C53.2052 92.1354 54.0968 92.1283 54.8989 92.1211C55.701 92.1068 56.3957 92.0924 56.9829 92.0781C57.5773 92.0638 58.05 92.0495 58.4009 92.0352C58.759 92.0137 58.981 91.9922 59.0669 91.9707C58.9953 92.3359 58.938 92.6833 58.895 93.0127C58.8521 93.3421 58.8198 93.6787 58.7983 94.0225C58.7769 94.3662 58.7625 94.7279 58.7554 95.1074C58.7482 95.4798 58.7446 95.8916 58.7446 96.3428V98.9424C58.7446 99.5511 58.7518 100.085 58.7661 100.543C58.7804 100.994 58.8019 101.384 58.8306 101.714C58.8592 102.043 58.8914 102.319 58.9272 102.541C58.9631 102.763 59.0024 102.949 59.0454 103.1V103.143H56.564V103.1C56.6069 102.949 56.6463 102.763 56.6821 102.541C56.7251 102.319 56.7573 102.043 56.7788 101.714C56.8075 101.384 56.8289 100.994 56.8433 100.543C56.8647 100.085 56.8755 99.5511 56.8755 98.9424V96.3428ZM62.1069 96.3428C62.1069 95.734 62.0962 95.2041 62.0747 94.7529C62.0604 94.2946 62.0389 93.9007 62.0103 93.5713C61.9888 93.2419 61.9565 92.9661 61.9136 92.7441C61.8778 92.5221 61.8384 92.3359 61.7954 92.1855V92.1426H64.2769V92.1855C64.2196 92.3503 64.1694 92.5508 64.1265 92.7871C64.0907 93.0234 64.062 93.3278 64.0405 93.7002C64.3055 93.4782 64.5812 93.2598 64.8677 93.0449C65.1541 92.8301 65.4478 92.6403 65.7485 92.4756C66.0493 92.3109 66.3537 92.1784 66.6616 92.0781C66.9767 91.9779 67.2918 91.9277 67.6069 91.9277C67.8003 91.9277 67.9686 91.9385 68.1118 91.96C68.255 91.9743 68.384 91.9993 68.4985 92.0352C68.6131 92.0638 68.717 92.0996 68.8101 92.1426C68.9032 92.1784 68.9927 92.2142 69.0786 92.25L68.5522 94.3018L68.3696 94.2588C68.2837 93.9437 68.1226 93.693 67.8862 93.5068C67.6499 93.3135 67.3276 93.2168 66.9194 93.2168C66.6974 93.2168 66.4647 93.2562 66.2212 93.335C65.9777 93.4137 65.7306 93.5247 65.48 93.668C65.2293 93.804 64.9787 93.9652 64.728 94.1514C64.4774 94.3304 64.2339 94.5202 63.9976 94.7207C63.9832 94.9284 63.9761 95.154 63.9761 95.3975C63.9761 95.641 63.9761 95.8988 63.9761 96.1709V98.9424C63.9761 99.5511 63.9832 100.085 63.9976 100.543C64.0119 100.994 64.0334 101.384 64.062 101.714C64.0907 102.043 64.1229 102.319 64.1587 102.541C64.1945 102.763 64.2339 102.949 64.2769 103.1V103.143H61.7954V103.1C61.8384 102.949 61.8778 102.763 61.9136 102.541C61.9565 102.319 61.9888 102.043 62.0103 101.714C62.0389 101.384 62.0604 100.994 62.0747 100.543C62.0962 100.085 62.1069 99.5511 62.1069 98.9424V96.3428ZM75.5991 94.3018L75.4487 94.3232C75.3986 94.1585 75.3162 93.9831 75.2017 93.7969C75.0942 93.6107 74.951 93.4388 74.772 93.2812C74.6001 93.1237 74.3888 92.9948 74.1382 92.8945C73.8947 92.7871 73.6118 92.7334 73.2896 92.7334C73.0675 92.7334 72.8563 92.7656 72.6558 92.8301C72.4624 92.8945 72.2905 92.9912 72.1401 93.1201C71.9969 93.2419 71.8823 93.3958 71.7964 93.582C71.7104 93.7682 71.6675 93.9867 71.6675 94.2373C71.6675 94.5882 71.7749 94.9248 71.9897 95.2471C72.2118 95.5622 72.4875 95.8773 72.8169 96.1924C73.1463 96.5003 73.5008 96.8118 73.8804 97.127C74.2671 97.4421 74.6252 97.7715 74.9546 98.1152C75.284 98.459 75.5562 98.8278 75.771 99.2217C75.993 99.6084 76.104 100.027 76.104 100.479C76.104 100.844 76.0396 101.202 75.9106 101.553C75.7817 101.896 75.5812 102.204 75.3091 102.477C75.0441 102.749 74.7004 102.971 74.2778 103.143C73.8625 103.307 73.3647 103.39 72.7847 103.39C72.4409 103.39 72.1187 103.357 71.8179 103.293C71.5243 103.229 71.2521 103.15 71.0015 103.057C70.758 102.956 70.536 102.849 70.3354 102.734C70.1421 102.613 69.9702 102.498 69.8198 102.391L69.9272 100.35H70.0991C70.1707 100.686 70.2782 100.994 70.4214 101.273C70.5646 101.553 70.7401 101.793 70.9478 101.993C71.1626 102.187 71.4061 102.34 71.6782 102.455C71.9504 102.562 72.2476 102.616 72.5698 102.616C73.0998 102.616 73.5187 102.469 73.8267 102.176C74.1418 101.882 74.2993 101.499 74.2993 101.026C74.2993 100.647 74.1919 100.299 73.9771 99.9844C73.7694 99.6621 73.5044 99.3542 73.1821 99.0605C72.8599 98.7669 72.5125 98.4733 72.1401 98.1797C71.7749 97.8861 71.4312 97.5745 71.1089 97.2451C70.7866 96.9085 70.5181 96.5433 70.3032 96.1494C70.0955 95.7484 69.9917 95.2936 69.9917 94.7852C69.9917 94.3698 70.0669 93.9902 70.2173 93.6465C70.3748 93.2956 70.5897 92.9984 70.8618 92.7549C71.1411 92.5042 71.4705 92.3109 71.8501 92.1748C72.2297 92.0387 72.645 91.9707 73.0962 91.9707C73.6906 91.9707 74.1847 92.0352 74.5786 92.1641C74.9797 92.2858 75.284 92.404 75.4917 92.5186L75.5991 94.3018ZM82.4312 102.509C82.646 102.509 82.8573 102.469 83.0649 102.391C83.2798 102.312 83.4839 102.204 83.6772 102.068C83.8778 101.932 84.0675 101.778 84.2466 101.606C84.4328 101.427 84.6047 101.241 84.7622 101.048L84.8696 101.102L84.1714 102.831C84.0854 102.874 83.978 102.928 83.8491 102.992C83.7274 103.049 83.577 103.103 83.3979 103.153C83.2261 103.211 83.022 103.257 82.7856 103.293C82.5493 103.336 82.27 103.357 81.9478 103.357C80.9881 103.357 80.2397 103.1 79.7026 102.584C79.1727 102.061 78.9077 101.248 78.9077 100.146V92.9805L77.103 93.0449V92.0996C77.325 92.1139 77.59 92.1247 77.8979 92.1318C78.2059 92.139 78.5425 92.1426 78.9077 92.1426C78.9006 91.6341 78.8862 91.1865 78.8647 90.7998C78.8504 90.4059 78.8289 90.0658 78.8003 89.7793C78.7788 89.4857 78.7502 89.2386 78.7144 89.0381C78.6785 88.8376 78.6427 88.6693 78.6069 88.5332V88.4902H81.0884V88.5332C81.0454 88.6693 81.006 88.8376 80.9702 89.0381C80.9344 89.2386 80.9022 89.4821 80.8735 89.7686C80.8521 90.055 80.8306 90.3952 80.8091 90.7891C80.7948 91.1758 80.784 91.627 80.7769 92.1426C81.228 92.1354 81.6685 92.1283 82.0981 92.1211C82.535 92.1068 82.9289 92.0924 83.2798 92.0781C83.6379 92.0566 83.9386 92.0387 84.1821 92.0244C84.4328 92.0029 84.5975 91.985 84.6763 91.9707L84.4829 93.0664C84.1177 93.0592 83.7345 93.0485 83.3335 93.0342C82.9897 93.0199 82.5959 93.0091 82.1519 93.002C81.7078 92.9948 81.2495 92.9876 80.7769 92.9805V100.371C80.7769 100.815 80.8234 101.177 80.9165 101.456C81.0168 101.728 81.1421 101.943 81.2925 102.101C81.45 102.258 81.6255 102.366 81.8188 102.423C82.0194 102.48 82.2235 102.509 82.4312 102.509Z" fill="#023047"/>
<defs>
<clipPath id="clip0_102_1057">
<rect width="81.6473" height="75.8839" fill="white" transform="translate(0.598633 0.375977)"/>
</clipPath>
</defs>
</svg>
