<svg width="1920" height="171" viewBox="0 0 1920 171" fill="none" xmlns="http://www.w3.org/2000/svg">
<mask id="mask0_458_2901" style="mask-type:alpha" maskUnits="userSpaceOnUse" x="0" y="0" width="1921" height="418">
<path d="M1913.13 54.0891C1843.28 121.198 1740.23 142.169 1644.46 133.548C1548.63 124.868 1457.35 90.1484 1366.41 58.5164C1275.42 26.8261 1181.34 -2.30096 1085.22 0.903018C882.318 7.71876 699.633 157.083 496.967 144.791C409.294 139.49 326.224 103.896 239.425 90.3232C152.626 76.75 51.555 91.7796 0 163.898V417.479H1920L1913.13 54.0891Z" fill="#023047"/>
</mask>
<g mask="url(#mask0_458_2901)">
<g opacity="0.2">
<path d="M10 40.6611V524.159" stroke="white" stroke-width="3"/>
<path d="M35 40.6611V524.159" stroke="white" stroke-width="3"/>
<path d="M60 40.6611V524.159" stroke="white" stroke-width="3"/>
<path d="M85 40.6611V524.159" stroke="white" stroke-width="3"/>
<path d="M110 40.6611V524.159" stroke="white" stroke-width="3"/>
<path d="M135 40.6611V524.159" stroke="white" stroke-width="3"/>
<path d="M160 40.6611V524.159" stroke="white" stroke-width="3"/>
<path d="M185 40.6611V524.159" stroke="white" stroke-width="3"/>
<path d="M210 40.6611V524.159" stroke="white" stroke-width="3"/>
<path d="M235 40.6611V524.159" stroke="white" stroke-width="3"/>
<path d="M260 40.6611V524.159" stroke="white" stroke-width="3"/>
<path d="M285 40.6611V524.159" stroke="white" stroke-width="3"/>
<path d="M310 40.6611V524.159" stroke="white" stroke-width="3"/>
<path d="M335 40.6611V524.159" stroke="white" stroke-width="3"/>
<path d="M360 40.6611V524.159" stroke="white" stroke-width="3"/>
<path d="M385 40.6611V524.159" stroke="white" stroke-width="3"/>
<path d="M410 40.6611V524.159" stroke="white" stroke-width="3"/>
<path d="M435 40.6611V524.159" stroke="white" stroke-width="3"/>
<path d="M460 40.6611V524.159" stroke="white" stroke-width="3"/>
<path d="M485 40.6611V524.159" stroke="white" stroke-width="3"/>
<path d="M510 40.6611V524.159" stroke="white" stroke-width="3"/>
<path d="M535 40.6611V524.159" stroke="white" stroke-width="3"/>
<path d="M560 40.6611V524.159" stroke="white" stroke-width="3"/>
<path d="M585 40.6611V524.159" stroke="white" stroke-width="3"/>
<path d="M610 40.6611V524.159" stroke="white" stroke-width="3"/>
<path d="M635 40.6611V524.159" stroke="white" stroke-width="3"/>
<path d="M660 40.6611V524.159" stroke="white" stroke-width="3"/>
<path d="M685 40.6611V524.159" stroke="white" stroke-width="3"/>
<path d="M710 40.6611V524.159" stroke="white" stroke-width="3"/>
<path d="M735 40.6611V524.159" stroke="white" stroke-width="3"/>
<path d="M760 40.6611V524.159" stroke="white" stroke-width="3"/>
<path d="M785 40.6611V524.159" stroke="white" stroke-width="3"/>
<path d="M810 40.6611V524.159" stroke="white" stroke-width="3"/>
<path d="M835 40.6611V524.159" stroke="white" stroke-width="3"/>
<path d="M860 40.6611V524.159" stroke="white" stroke-width="3"/>
<path d="M885 40.6611V524.159" stroke="white" stroke-width="3"/>
<path d="M910 40.6611V524.159" stroke="white" stroke-width="3"/>
<path d="M935 40.6611V524.159" stroke="white" stroke-width="3"/>
<path d="M960 40.6611V524.159" stroke="white" stroke-width="3"/>
<path d="M985 40.6611V524.159" stroke="white" stroke-width="3"/>
<path d="M1010 40.6611V524.159" stroke="white" stroke-width="3"/>
<path d="M1035 40.6611V524.159" stroke="white" stroke-width="3"/>
<path d="M1060 40.6611V524.159" stroke="white" stroke-width="3"/>
<path d="M1085 40.6611V524.159" stroke="white" stroke-width="3"/>
<path d="M1110 40.6611V524.159" stroke="white" stroke-width="3"/>
<path d="M1135 40.6611V524.159" stroke="white" stroke-width="3"/>
<path d="M1160 40.6611V524.159" stroke="white" stroke-width="3"/>
<path d="M1185 40.6611V524.159" stroke="white" stroke-width="3"/>
<path d="M1210 40.6611V524.159" stroke="white" stroke-width="3"/>
<path d="M1235 40.6611V524.159" stroke="white" stroke-width="3"/>
<path d="M1260 40.6611V524.159" stroke="white" stroke-width="3"/>
<path d="M1285 40.6611V524.159" stroke="white" stroke-width="3"/>
<path d="M1310 40.6611V524.159" stroke="white" stroke-width="3"/>
<path d="M1335 40.6611V524.159" stroke="white" stroke-width="3"/>
<path d="M1360 40.6611V524.159" stroke="white" stroke-width="3"/>
<path d="M1385 40.6611V524.159" stroke="white" stroke-width="3"/>
<path d="M1410 40.6611V524.159" stroke="white" stroke-width="3"/>
<path d="M1435 40.6611V524.159" stroke="white" stroke-width="3"/>
<path d="M1460 40.6611V524.159" stroke="white" stroke-width="3"/>
<path d="M1485 40.6611V524.159" stroke="white" stroke-width="3"/>
<path d="M1510 40.6611V524.159" stroke="white" stroke-width="3"/>
<path d="M1535 40.6611V524.159" stroke="white" stroke-width="3"/>
<path d="M1560 40.6611V524.159" stroke="white" stroke-width="3"/>
<path d="M1585 40.6611V524.159" stroke="white" stroke-width="3"/>
<path d="M1610 40.6611V524.159" stroke="white" stroke-width="3"/>
<path d="M1635 40.6611V524.159" stroke="white" stroke-width="3"/>
<path d="M1660 40.6611V524.159" stroke="white" stroke-width="3"/>
<path d="M1685 40.6611V524.159" stroke="white" stroke-width="3"/>
<path d="M1710 40.6611V524.159" stroke="white" stroke-width="3"/>
<path d="M1735 40.6611V524.159" stroke="white" stroke-width="3"/>
<path d="M1760 40.6611V524.159" stroke="white" stroke-width="3"/>
<path d="M1785 40.6611V524.159" stroke="white" stroke-width="3"/>
<path d="M1810 40.6611V524.159" stroke="white" stroke-width="3"/>
<path d="M1835 40.6611V524.159" stroke="white" stroke-width="3"/>
<path d="M1860 40.6611V524.159" stroke="white" stroke-width="3"/>
<path d="M1885 40.6611V524.159" stroke="white" stroke-width="3"/>
<path d="M1910 40.6611V524.159" stroke="white" stroke-width="3"/>
</g>
<path d="M1913.13 54.0891C1843.28 121.198 1740.23 142.169 1644.46 133.548C1548.63 124.868 1457.35 90.1484 1366.41 58.5164C1275.42 26.8261 1181.34 -2.30096 1085.22 0.903018C882.318 7.71876 699.633 157.083 496.967 144.791C409.294 139.49 326.223 103.896 239.425 90.3232C152.626 76.75 51.555 91.7796 0 163.898V417.479H1920L1913.13 54.0891Z" fill="url(#paint0_linear_458_2901)"/>
</g>
<defs>
<linearGradient id="paint0_linear_458_2901" x1="1030.67" y1="367.085" x2="1041.98" y2="46.7275" gradientUnits="userSpaceOnUse">
<stop stop-color="#023047" stop-opacity="0"/>
<stop offset="0.972685" stop-color="#023047"/>
</linearGradient>
</defs>
</svg>
