<svg width="40" height="41" viewBox="0 0 40 41" fill="none" xmlns="http://www.w3.org/2000/svg">
<path fill-rule="evenodd" clip-rule="evenodd" d="M31.9556 34.3691L32.0195 34.7882L32.0179 34.7897C32.0753 35.1699 32.0571 35.5577 31.9643 35.9309C31.8716 36.304 31.7062 36.6552 31.4775 36.9644C31.2489 37.2735 30.9615 37.5345 30.6318 37.7324C30.3021 37.9303 29.9367 38.0613 29.5563 38.1178L28.4008 38.2907C28.2564 38.3122 28.1106 38.3231 27.9647 38.3232C27.2644 38.3215 26.5879 38.0692 26.0575 37.6119C25.5271 37.1547 25.178 36.5227 25.0731 35.8303L22.6181 19.3782C22.5317 18.8133 22.6134 18.2355 22.8532 17.7169C23.093 17.1982 23.4801 16.7616 23.9664 16.4615C23.8424 15.4963 23.3726 14.6088 22.6441 13.9636C21.9157 13.3184 20.9779 12.9592 20.0048 12.9527H20.001C19.0266 12.9572 18.087 13.3157 17.3573 13.9614C16.6276 14.6071 16.1574 15.496 16.0344 16.4626C16.521 16.7618 16.9086 17.1978 17.1489 17.7161C17.3891 18.2343 17.4712 18.8119 17.385 19.3766L14.9276 35.8311C14.8218 36.5228 14.4725 37.154 13.9425 37.611C13.4124 38.0679 12.7367 38.3205 12.0369 38.3232C11.8906 38.3226 11.7445 38.3122 11.5996 38.2923L10.4425 38.1181C9.67498 38.0028 8.98461 37.5875 8.52312 36.9635C8.06162 36.3395 7.86674 35.5577 7.98131 34.7901L8.04593 34.3768C8.04555 34.3741 8.04555 34.3714 8.04593 34.3687L8.58771 30.7345V30.7287L8.93599 28.3855V28.3813L9.48009 24.7587V24.7495L9.82837 22.4005C9.82871 22.3979 9.82958 22.3954 9.83044 22.393C9.83154 22.3898 9.83263 22.3867 9.83263 22.3835L10.3725 18.7659C10.3726 18.7642 10.3732 18.7625 10.3738 18.7608C10.3745 18.7588 10.3752 18.7568 10.3752 18.7547L10.4359 18.341C10.5084 17.8451 10.7079 17.3764 11.0151 16.9804C11.3222 16.5844 11.7266 16.2746 12.189 16.0811C12.312 14.966 12.6736 13.8906 13.2492 12.9277C13.8248 11.9648 14.6009 11.1371 15.5247 10.5008C15.0103 9.69826 14.7214 8.77208 14.6882 7.81942C14.655 6.86676 14.8789 5.92272 15.3362 5.08636C15.7935 4.24999 16.4675 3.55212 17.2875 3.06595C18.1074 2.57978 19.0431 2.32324 19.9963 2.32324C20.9496 2.32324 21.8852 2.57978 22.7052 3.06595C23.5251 3.55212 24.1991 4.24999 24.6565 5.08636C25.1138 5.92272 25.3376 6.86676 25.3044 7.81942C25.2713 8.77208 24.9823 9.69826 24.4679 10.5008C25.3941 11.1358 26.172 11.9636 26.7483 12.9274C27.3247 13.8912 27.6859 14.9681 27.8072 16.0845C28.2698 16.2774 28.6746 16.5868 28.9822 16.9826C29.2897 17.3784 29.4895 17.847 29.5621 18.343L29.6295 18.7663L30.1712 22.4005L30.5195 24.7491L31.0656 28.3867L31.4138 30.7349L31.9556 34.3691ZM28.7293 21.9295L28.3869 19.6347L27.2402 19.8062C26.9519 19.8505 26.6909 20.0018 26.509 20.2299C26.3272 20.4579 26.2379 20.7461 26.2588 21.0371C26.2798 21.328 26.4095 21.6004 26.6222 21.8001C26.8349 21.9997 27.115 22.112 27.4066 22.1145C27.4691 22.1136 27.5314 22.1087 27.5932 22.0998L28.7293 21.9295ZM29.6241 27.915L29.2793 25.6178L28.1338 25.7901C27.8466 25.8354 27.5868 25.9868 27.4059 26.2145C27.225 26.4421 27.1361 26.7293 27.1568 27.0193C27.1775 27.3094 27.3062 27.5811 27.5176 27.7807C27.7289 27.9804 28.0075 28.0935 28.2983 28.0976C28.3521 28.0988 28.406 28.0953 28.4592 28.0872L29.6241 27.915ZM30.516 33.8997L30.174 31.6049L29.025 31.7771C28.7372 31.8226 28.4771 31.9747 28.2963 32.2032C28.1154 32.4317 28.0271 32.7198 28.0488 33.0103C28.0706 33.3009 28.2008 33.5726 28.4136 33.7716C28.6264 33.9707 28.9062 34.0824 29.1976 34.0846C29.2596 34.084 29.3216 34.0791 29.383 34.0699L30.516 33.8997ZM10.9715 31.7759L9.82683 31.6049L9.48435 33.8997L10.631 34.0707C10.6872 34.0802 10.7442 34.0854 10.8012 34.0862C11.0789 34.0848 11.347 33.9841 11.557 33.8025C11.7671 33.6208 11.9053 33.3701 11.9467 33.0955C11.9922 32.7912 11.915 32.4813 11.7322 32.2339C11.5493 31.9865 11.2757 31.8217 10.9715 31.7759ZM11.8693 25.7893L10.7215 25.6182L10.3767 27.9154L11.5249 28.0841C11.5837 28.0944 11.6432 28.0995 11.7029 28.0996C11.9968 28.1002 12.2801 27.9894 12.4955 27.7894C12.7109 27.5894 12.8424 27.3152 12.8635 27.022C12.8846 26.7289 12.7938 26.4386 12.6092 26.2098C12.4247 25.981 12.1603 25.8307 11.8693 25.7893ZM12.7613 19.8065L11.6116 19.6355L11.2695 21.9299L12.4208 22.1013C12.4771 22.1096 12.5341 22.1135 12.591 22.113C12.8682 22.1118 13.1358 22.0117 13.3458 21.8308C13.5558 21.6499 13.6943 21.4001 13.7365 21.1262C13.7814 20.822 13.7039 20.5124 13.5212 20.2651C13.3385 20.0178 13.0653 19.853 12.7613 19.8065ZM13.5875 35.6298L16.0449 19.1792C16.0968 18.8439 16.0379 18.5009 15.8773 18.202C15.7167 17.9031 15.4631 17.6647 15.1548 17.523C15.1412 17.5172 15.1287 17.5114 15.1161 17.5055C15.1035 17.4997 15.0909 17.4939 15.0774 17.4881C14.9609 17.444 14.8404 17.4116 14.7175 17.3914L13.5643 17.2211C13.3698 17.1922 13.1716 17.2 12.98 17.2443C12.9496 17.251 12.9199 17.2601 12.8909 17.2714C12.644 17.3421 12.4184 17.4728 12.2341 17.6517C12.0498 17.8306 11.9125 18.0522 11.8345 18.2969L12.9645 18.4672C13.2908 18.5159 13.6043 18.6284 13.887 18.7984C14.1698 18.9683 14.4164 19.1922 14.6126 19.4574C14.8088 19.7226 14.9509 20.0239 15.0306 20.344C15.1104 20.6642 15.1263 20.9969 15.0774 21.3231C14.9861 21.9177 14.6858 22.4601 14.2304 22.8531C13.7751 23.2461 13.1945 23.4637 12.593 23.467C12.4726 23.4669 12.3524 23.4591 12.2331 23.4438L11.0721 23.2696L10.9212 24.2797L12.0667 24.4499C12.6946 24.5428 13.2642 24.8697 13.6613 25.3651C14.0583 25.8604 14.2533 26.4875 14.2073 27.1206C14.1613 27.7537 13.8776 28.3461 13.4131 28.7787C12.9486 29.2114 12.3377 29.4525 11.7029 29.4536C11.5707 29.4544 11.4387 29.444 11.3082 29.4227L10.1782 29.2563L10.0273 30.2663L11.1727 30.4366C11.5002 30.4852 11.8147 30.5981 12.0983 30.7688C12.3819 30.9395 12.6289 31.1646 12.8252 31.4311C13.0225 31.6955 13.1649 31.9968 13.244 32.3172C13.3231 32.6375 13.3373 32.9704 13.2857 33.2963C13.1944 33.8909 12.8941 34.4334 12.4387 34.8263C11.9833 35.2193 11.4027 35.437 10.8012 35.4402C10.6808 35.4388 10.5606 35.4297 10.4414 35.4131L9.30363 35.2429C9.30499 35.574 9.41361 35.8958 9.61321 36.16C9.73485 36.3258 9.88809 36.4658 10.0641 36.5721C10.2401 36.6783 10.4354 36.7487 10.6387 36.7792L11.7997 36.9495C12.2116 37.0106 12.631 36.9061 12.9661 36.6588C13.3011 36.4115 13.5246 36.0415 13.5875 35.6298ZM14.7175 16.1105C14.7208 16.0831 14.726 16.0559 14.733 16.0292C14.9534 14.7926 15.6 13.6723 16.5604 12.8629C17.5209 12.0535 18.7345 11.606 19.9905 11.5983H19.999H20.0037C20.5604 11.5958 21.1104 11.4768 21.6182 11.2488C22.1261 11.0209 22.5806 10.6891 22.9525 10.2748C22.9575 10.2698 22.9618 10.2647 22.966 10.2598C22.9679 10.2576 22.9699 10.2553 22.9718 10.2531L22.9881 10.2338C23.4863 9.66055 23.8091 8.95606 23.9179 8.20439C24.0266 7.45272 23.9168 6.68563 23.6014 5.99469C23.2861 5.30375 22.7786 4.71815 22.1395 4.30778C21.5004 3.89742 20.7568 3.67964 19.9973 3.68042C19.2378 3.68121 18.4945 3.90054 17.8563 4.31223C17.2181 4.72392 16.7118 5.31057 16.3979 6.00217C16.084 6.69376 15.9757 7.46107 16.0861 8.21251C16.1964 8.96395 16.5206 9.66778 17.02 10.24C17.0858 10.3163 17.1338 10.4063 17.1606 10.5034C17.1873 10.6005 17.1922 10.7024 17.1748 10.8016C17.1574 10.9008 17.1182 10.995 17.0599 11.0772C17.0017 11.1594 16.926 11.2277 16.8382 11.2771C15.9872 11.7474 15.2533 12.4036 14.6911 13.1969C14.1289 13.9902 13.753 14.9002 13.5914 15.8589C13.5814 15.8998 13.5737 15.9411 13.5682 15.9828L14.7175 16.1105ZM23.5937 11.5441C23.2871 11.8269 22.9481 12.0724 22.5837 12.2755V12.2759C23.2795 12.6645 23.8805 13.2025 24.3434 13.8512C24.8063 14.5 25.1197 15.2433 25.2608 16.0277L26.2325 15.8825C26.28 15.8754 26.3266 15.8712 26.3735 15.867C26.3848 15.866 26.3961 15.865 26.4075 15.864C26.2607 14.9892 25.935 14.154 25.4509 13.4107C24.9667 12.6674 24.3345 12.032 23.5937 11.5441ZM29.9361 36.5726C30.1126 36.4668 30.2663 36.3269 30.3883 36.1612C30.5872 35.8954 30.6964 35.5736 30.6999 35.2417L29.573 35.4112C29.4491 35.4289 29.3242 35.4382 29.1991 35.4391C28.5663 35.4363 27.9577 35.195 27.4948 34.7634C27.0319 34.3318 26.7488 33.7416 26.7018 33.1104C26.6548 32.4793 26.8475 31.8536 27.2414 31.3582C27.6352 30.8629 28.2014 30.5342 28.8269 30.4377L29.9758 30.2651L29.8257 29.2543L28.6759 29.4242C28.5516 29.444 28.4257 29.4534 28.2998 29.4521C27.6676 29.4473 27.0603 29.2047 26.599 28.7724C26.1376 28.3401 25.8559 27.75 25.81 27.1194C25.7641 26.4889 25.9573 25.8641 26.3512 25.3696C26.7451 24.8751 27.3108 24.547 27.9356 24.4507L29.0807 24.2785L28.9302 23.2689L27.782 23.4411C27.6576 23.4582 27.5322 23.467 27.4066 23.4674C26.7741 23.4636 26.1662 23.2216 25.7042 22.7896C25.2421 22.3577 24.9597 21.7675 24.9133 21.1366C24.8668 20.5058 25.0598 19.8806 25.4537 19.3857C25.8476 18.8908 26.4135 18.5624 27.0386 18.466L28.1663 18.2969C28.0842 18.0363 27.9352 17.8018 27.7342 17.6167C27.5333 17.4316 27.2873 17.3024 27.0208 17.242C26.9043 17.2161 26.7853 17.2031 26.666 17.2033C26.5906 17.2031 26.5152 17.2088 26.4407 17.2203L25.2798 17.3937C25.1586 17.4123 25.0399 17.4442 24.9257 17.4889C24.597 17.6193 24.3223 17.8574 24.1465 18.1643C23.9708 18.4711 23.9044 18.8286 23.9582 19.1781L26.4156 35.6291C26.4778 36.0412 26.7009 36.4118 27.036 36.6595C27.3711 36.9073 27.7908 37.012 28.2031 36.9506L29.3601 36.7776C29.5638 36.7481 29.7596 36.6784 29.9361 36.5726ZM21.5625 9.9759C21.0998 10.2847 20.556 10.4493 19.9998 10.4489C19.2551 10.4475 18.5413 10.151 18.0148 9.62445C17.4882 9.09788 17.1917 8.3841 17.1903 7.63942C17.1899 7.08321 17.3545 6.53938 17.6633 6.07675C17.9721 5.61412 18.4111 5.25347 18.9249 5.04044C19.4387 4.82741 20.0042 4.77157 20.5497 4.87999C21.0953 4.98841 21.5964 5.25621 21.9897 5.64951C22.383 6.04281 22.6508 6.54393 22.7592 7.08948C22.8676 7.63502 22.8118 8.20046 22.5988 8.71426C22.3857 9.22806 22.0251 9.66713 21.5625 9.9759ZM20.8096 6.42497C20.5698 6.26519 20.2879 6.18011 19.9998 6.1805C19.614 6.18314 19.2449 6.33782 18.9725 6.61096C18.7001 6.8841 18.5464 7.25366 18.5447 7.63942C18.5451 7.92758 18.6309 8.20916 18.7914 8.44855C18.9518 8.68794 19.1796 8.87438 19.4459 8.9843C19.7123 9.09423 20.0053 9.12269 20.2879 9.0661C20.5704 9.0095 20.8298 8.87039 21.0333 8.66636C21.2368 8.46233 21.3752 8.20253 21.4311 7.91983C21.4869 7.63713 21.4577 7.34421 21.3471 7.07813C21.2364 6.81205 21.0494 6.58475 20.8096 6.42497Z" fill="#023047"/>
</svg>
