<svg width="40" height="41" viewBox="0 0 40 41" fill="none" xmlns="http://www.w3.org/2000/svg">
<path fill-rule="evenodd" clip-rule="evenodd" d="M35.9292 37.9725C30.0824 38.0278 25.0234 37.5095 20.8836 36.4313C20.2893 36.2793 19.8332 36.065 19.301 35.4638C19.2941 35.4569 19.2872 35.4499 19.2872 35.443C17.6907 33.812 15.2442 31.4208 12.1756 29.2507C12.6041 28.4974 12.5903 27.5367 12.0512 26.7834L10.434 24.5304C10.745 24.323 11.0284 24.1779 11.1597 24.1503C11.4765 24.2109 11.8328 24.7976 12.158 25.3331L12.1826 25.3735C12.459 25.8435 12.7493 26.3273 13.1225 26.7212C14.847 28.5975 15.7522 28.8902 16.9033 29.2624L16.9098 29.2645C17.2346 29.3682 17.5732 29.4787 17.9603 29.6377C18.1814 29.7275 18.4026 29.8036 18.6306 29.8796C18.6445 30.5707 18.9693 31.248 19.5774 31.6834C19.9783 31.9736 20.4413 32.1119 20.9044 32.1119C21.5126 32.1119 22.1069 31.87 22.5492 31.4139C22.8257 31.6143 23.0814 31.8493 23.3302 32.1257C23.4339 32.2432 23.579 32.3054 23.731 32.2916L31.8101 31.8216C31.8516 31.8216 31.8931 31.8147 31.9345 31.8009C32.0244 31.7732 34.2014 31.0683 35.4385 29.8589C35.6389 29.6653 35.6389 29.3474 35.4454 29.1539C35.2519 28.9535 34.934 28.9535 34.7404 29.147C33.7729 30.0869 32.0244 30.7158 31.6857 30.8333L23.9038 31.2825C23.6619 31.0268 23.4062 30.8057 23.1436 30.6191L27.1175 25.0902C27.6289 24.3783 27.7118 23.6665 27.3939 22.6298C27.0898 21.6277 25.9357 17.5847 25.3344 15.228C24.747 12.9335 22.3626 12.4567 20.7178 12.277C21.478 11.3025 21.9272 10.0792 21.9272 8.74539C21.9272 5.56628 19.3356 2.97461 16.1564 2.97461C12.9773 2.97461 10.3857 5.56628 10.3857 8.74539C10.3857 10.1 10.8556 11.3509 11.6435 12.3323C10.3027 12.6087 7.97369 13.3344 7.08215 15.1105L3.84775 20.9435C3.42617 21.7037 3.48146 22.6575 3.99288 23.3624L6.82644 27.3156C6.6122 27.516 6.41869 27.6473 6.28737 27.7026C4.79457 28.2624 4.15875 29.4165 3.90995 30.0593C3.71644 30.5638 3.56439 31.2894 3.76482 31.6834C3.90304 31.946 4.24859 32.4021 4.69782 32.4436C4.93971 32.4643 5.16086 32.3607 5.3129 32.1672L5.4373 32.0013C5.7483 31.5797 5.90726 31.3655 6.63293 31.1581C7.98751 30.7711 8.82375 30.4808 9.43884 30.2666C9.56324 30.3081 9.69455 30.3495 9.83278 30.3703C9.95718 30.391 10.0816 30.3979 10.206 30.3979C10.6621 30.3979 11.1113 30.2597 11.4914 29.9971C13.0603 31.0959 14.4632 32.257 15.6727 33.349C14.6844 33.577 13.9034 33.6807 11.8646 33.0933C11.4669 32.9824 11.0445 32.7608 10.6323 32.5445L10.5584 32.5058C9.74293 32.0704 8.89286 31.6212 8.13955 31.9737C7.84929 32.1119 7.73871 32.4229 7.52446 33.038L7.52325 33.0414C7.08756 34.2863 6.27827 36.5985 3.90995 38.0485C3.67497 38.1937 3.59895 38.4977 3.74408 38.7327C3.84084 38.8848 3.99979 38.9746 4.17257 38.9746C4.26241 38.9746 4.35226 38.9539 4.43519 38.8986C7.1167 37.2607 8.03588 34.6344 8.4782 33.3697C8.50764 33.2902 8.53708 33.2057 8.56492 33.1258C8.60243 33.0181 8.63703 32.9188 8.6648 32.8514C8.99451 32.8033 9.57 33.1102 10.0859 33.3854L10.0859 33.3854L10.0954 33.3904C10.5792 33.6461 11.0768 33.9088 11.5951 34.0539C14.0486 34.7588 14.9746 34.5446 16.1495 34.2612C16.2299 34.2401 16.3128 34.2215 16.3983 34.2024L16.3984 34.2024C16.4526 34.1903 16.5079 34.1779 16.5642 34.1645C17.3313 34.8832 18.0017 35.5536 18.5615 36.1272C19.301 36.9566 19.9921 37.2261 20.6349 37.392C24.6571 38.4425 29.5225 38.9677 35.0929 38.9677C35.3693 38.9677 35.6527 38.9677 35.9361 38.9608C36.2125 38.9608 36.4337 38.7327 36.4337 38.4563C36.4268 38.1937 36.1987 37.9725 35.9292 37.9725ZM16.1495 3.98363C18.7827 3.98363 20.9182 6.12608 20.9182 8.7523C20.9182 11.3854 18.7758 13.521 16.1495 13.521C13.5164 13.521 11.3809 11.3785 11.3809 8.7523C11.3809 6.11917 13.5233 3.98363 16.1495 3.98363ZM4.71164 21.4411L7.95295 15.6012C7.95986 15.5943 7.95986 15.5874 7.95986 15.5805C8.71317 14.0739 11.063 13.3966 12.4866 13.21C13.4818 14.0324 14.7604 14.5231 16.1495 14.5231C17.5456 14.5231 18.8241 14.0255 19.8193 13.2031C19.8812 13.2099 19.9499 13.2168 20.0186 13.2237L20.0198 13.2238C21.4573 13.3551 23.8693 13.5763 24.3599 15.4837C24.975 17.8957 26.1154 21.8903 26.4264 22.9339C26.6752 23.7563 26.5646 24.1364 26.2951 24.5166L21.9341 30.5914C21.5195 31.1651 20.7247 31.2964 20.1511 30.8817C19.5775 30.467 19.4461 29.6723 19.8608 29.0986L23.4477 24.1019C23.5375 23.9775 23.5652 23.8254 23.5237 23.6803L22.1691 18.6283C22.1 18.3588 21.8236 18.1998 21.554 18.2758C21.2845 18.3449 21.1255 18.6214 21.2016 18.8909L22.4939 23.7149L19.0453 28.5181C18.9555 28.6425 18.8794 28.7738 18.8172 28.912C18.6514 28.8567 18.4855 28.7945 18.3196 28.7323C17.898 28.5665 17.5318 28.4421 17.2069 28.3384C16.115 27.9859 15.3962 27.751 13.8481 26.0646C13.551 25.7467 13.2883 25.3044 13.0395 24.8829L13.0221 24.8538C12.5508 24.0682 12.0688 23.2645 11.2496 23.1758C10.9178 23.1412 10.3788 23.3831 9.85351 23.7356L8.68553 22.1115L10.441 19.8861C10.5032 20.287 10.5515 20.8191 10.5446 21.4964C10.5446 21.7728 10.7658 21.994 11.0422 22.0009C11.3187 22.0009 11.5398 21.7798 11.5398 21.5033C11.5464 19.636 11.1902 18.7007 11.1436 18.5785L11.139 18.5661C11.0699 18.4071 10.9178 18.2896 10.745 18.2689C10.5723 18.2482 10.3995 18.3173 10.2889 18.4555L7.66268 21.7867C7.52446 21.9594 7.51755 22.2082 7.64886 22.3879L11.2357 27.3847C11.6504 27.9583 11.5191 28.76 10.9455 29.1677C10.669 29.3682 10.3304 29.4442 9.99173 29.3889C9.65309 29.3336 9.35591 29.147 9.1624 28.8706L4.80148 22.7957C4.51122 22.3948 4.47666 21.8627 4.71164 21.4411ZM6.35649 30.1975C5.37511 30.4808 5.02264 30.8817 4.69782 31.3102C4.69091 31.3033 4.68572 31.2946 4.68054 31.286C4.67536 31.2774 4.67017 31.2687 4.66326 31.2618C4.61488 30.9163 4.96044 29.2714 6.62602 28.6425C6.86099 28.5526 7.12362 28.3799 7.40006 28.138L8.33997 29.4442L8.42291 29.5479C7.91148 29.7345 7.24802 29.9418 6.35649 30.1975ZM31.7132 12.3112C32.1693 12.3112 32.5494 11.938 32.5494 11.4749C32.5494 11.0188 32.1763 10.6387 31.7132 10.6387C31.2571 10.6387 30.877 11.0119 30.877 11.4749C30.877 11.938 31.2502 12.3112 31.7132 12.3112ZM31.7132 16.7692C32.1693 16.7692 32.5494 16.396 32.5494 15.9329C32.5494 15.4768 32.1763 15.0967 31.7132 15.0967C31.2571 15.0967 30.877 15.4699 30.877 15.9329C30.877 16.396 31.2502 16.7692 31.7132 16.7692ZM32.5494 20.3909C32.5494 20.854 32.1693 21.2272 31.7132 21.2272C31.2502 21.2272 30.877 20.854 30.877 20.3909C30.877 19.9279 31.2571 19.5547 31.7132 19.5547C32.1763 19.5547 32.5494 19.9348 32.5494 20.3909ZM9.12114 37.9725H16.7095C16.986 37.9725 17.2071 38.2005 17.2071 38.4701C17.2071 38.7465 16.986 38.9677 16.7095 38.9677H9.12114C8.84469 38.9677 8.62354 38.7465 8.62354 38.4701C8.62354 38.1936 8.84469 37.9725 9.12114 37.9725Z" fill="#023047"/>
<path d="M20.8836 36.4313L20.9845 36.0442L20.9828 36.0438L20.8836 36.4313ZM35.9292 37.9725V37.5725L35.9254 37.5725L35.9292 37.9725ZM19.301 35.4638L19.6005 35.1987L19.5925 35.1896L19.5839 35.1809L19.301 35.4638ZM19.2872 35.443H19.6872V35.2799L19.573 35.1632L19.2872 35.443ZM12.1756 29.2507L11.828 29.0529L11.6487 29.368L11.9447 29.5773L12.1756 29.2507ZM12.0512 26.7834L12.3765 26.5506L12.3762 26.5502L12.0512 26.7834ZM10.434 24.5304L10.2122 24.1976L9.86764 24.4272L10.1091 24.7636L10.434 24.5304ZM11.1597 24.1503L11.2349 23.7574L11.156 23.7423L11.0773 23.7588L11.1597 24.1503ZM12.158 25.3331L11.8161 25.5408L11.8161 25.5408L12.158 25.3331ZM12.1826 25.3735L12.5274 25.1707L12.5244 25.1659L12.1826 25.3735ZM13.1225 26.7212L13.417 26.4505L13.4129 26.4461L13.1225 26.7212ZM16.9033 29.2624L17.0264 28.8818L17.0263 28.8818L16.9033 29.2624ZM16.9098 29.2645L16.7866 29.6451L16.7881 29.6456L16.9098 29.2645ZM17.9603 29.6377L17.8083 30.0077L17.8097 30.0083L17.9603 29.6377ZM18.6306 29.8796L19.0305 29.8716L19.0249 29.5894L18.7571 29.5001L18.6306 29.8796ZM19.5774 31.6834L19.8121 31.3594L19.8103 31.3581L19.5774 31.6834ZM22.5492 31.4139L22.784 31.09L22.5034 30.8865L22.2621 31.1354L22.5492 31.4139ZM23.3302 32.1257L23.6301 31.861L23.6275 31.8581L23.3302 32.1257ZM23.731 32.2916L23.7078 31.892L23.6948 31.8932L23.731 32.2916ZM31.8101 31.8216V31.4216H31.7985L31.7869 31.4223L31.8101 31.8216ZM31.9345 31.8009L31.8169 31.4185L31.808 31.4214L31.9345 31.8009ZM35.4385 29.8589L35.1606 29.5711L35.1588 29.5728L35.4385 29.8589ZM35.4454 29.1539L35.1576 29.4318L35.1625 29.4368L35.4454 29.1539ZM34.7404 29.147L35.0192 29.4339L35.0233 29.4298L34.7404 29.147ZM31.6857 30.8333L31.7088 31.2327L31.7643 31.2294L31.8168 31.2112L31.6857 30.8333ZM23.9038 31.2825L23.6132 31.5574L23.7411 31.6926L23.9269 31.6819L23.9038 31.2825ZM23.1436 30.6191L22.8188 30.3856L22.5841 30.7122L22.9119 30.9451L23.1436 30.6191ZM27.1175 25.0902L27.4423 25.3236L27.4423 25.3236L27.1175 25.0902ZM27.3939 22.6298L27.0112 22.746L27.0115 22.7471L27.3939 22.6298ZM25.3344 15.228L25.722 15.1291L25.7219 15.1288L25.3344 15.228ZM20.7178 12.277L20.4024 12.0309L19.961 12.5967L20.6743 12.6746L20.7178 12.277ZM11.6435 12.3323L11.7243 12.724L12.3649 12.5919L11.9554 12.0818L11.6435 12.3323ZM7.08215 15.1105L7.43197 15.3045L7.43596 15.2973L7.43965 15.29L7.08215 15.1105ZM3.84775 20.9435L4.19756 21.1375L4.19757 21.1375L3.84775 20.9435ZM3.99288 23.3624L4.318 23.1294L4.31665 23.1275L3.99288 23.3624ZM6.82644 27.3156L7.0997 27.6077L7.35606 27.3678L7.15155 27.0825L6.82644 27.3156ZM6.28737 27.7026L6.42782 28.0771L6.43527 28.0743L6.4426 28.0712L6.28737 27.7026ZM3.90995 30.0593L3.53692 29.9149L3.53648 29.916L3.90995 30.0593ZM3.76482 31.6834L3.40827 31.8648L3.41085 31.8697L3.76482 31.6834ZM4.69782 32.4436L4.66105 32.8419L4.66366 32.8421L4.69782 32.4436ZM5.3129 32.1672L5.62751 32.4144L5.6329 32.4072L5.3129 32.1672ZM5.4373 32.0013L5.75731 32.2413L5.75919 32.2388L5.4373 32.0013ZM6.63293 31.1581L6.52304 30.7735H6.52304L6.63293 31.1581ZM9.43884 30.2666L9.56533 29.8871L9.436 29.844L9.30727 29.8889L9.43884 30.2666ZM9.83278 30.3703L9.89854 29.9757L9.89211 29.9747L9.83278 30.3703ZM11.4914 29.9971L11.7209 29.6695L11.493 29.5098L11.2641 29.668L11.4914 29.9971ZM15.6727 33.349L15.7626 33.7387L16.5102 33.5662L15.9407 33.0521L15.6727 33.349ZM11.8646 33.0933L11.9754 32.7089L11.972 32.7079L11.8646 33.0933ZM10.6323 32.5445L10.8181 32.1903L10.818 32.1903L10.6323 32.5445ZM10.5584 32.5058L10.37 32.8587L10.3727 32.8601L10.5584 32.5058ZM8.13955 31.9737L7.97003 31.6113L7.96758 31.6125L8.13955 31.9737ZM7.52446 33.038L7.90201 33.1701L7.9022 33.1695L7.52446 33.038ZM7.52325 33.0414L7.90079 33.1736L7.9008 33.1736L7.52325 33.0414ZM3.90995 38.0485L3.70109 37.7074L3.69975 37.7082L3.90995 38.0485ZM3.74408 38.7327L3.40373 38.9429L3.40661 38.9475L3.74408 38.7327ZM4.43519 38.8986L4.22668 38.5572L4.21991 38.5614L4.21331 38.5658L4.43519 38.8986ZM8.4782 33.3697L8.10303 33.2307L8.10062 33.2376L8.4782 33.3697ZM8.56492 33.1258L8.94266 33.2574L8.56492 33.1258ZM8.6648 32.8514L8.60707 32.4555L8.38166 32.4884L8.29492 32.6991L8.6648 32.8514ZM10.0859 33.3854L9.89768 33.7383L9.91702 33.7486L9.93737 33.7568L10.0859 33.3854ZM10.0859 33.3854L10.2741 33.0324L10.2548 33.0221L10.2345 33.014L10.0859 33.3854ZM10.0954 33.3904L9.90719 33.7434L9.90847 33.7441L10.0954 33.3904ZM11.5951 34.0539L11.7056 33.6694L11.703 33.6687L11.5951 34.0539ZM16.1495 34.2612L16.2433 34.6502L16.2513 34.6481L16.1495 34.2612ZM16.3983 34.2024L16.3159 33.811L16.311 33.8121L16.3983 34.2024ZM16.3984 34.2024L16.4808 34.5938L16.4857 34.5927L16.3984 34.2024ZM16.5642 34.1645L16.8377 33.8726L16.6808 33.7255L16.4716 33.7754L16.5642 34.1645ZM18.5615 36.1272L18.8601 35.861L18.8541 35.8543L18.8478 35.8479L18.5615 36.1272ZM20.6349 37.392L20.7359 37.005L20.7348 37.0047L20.6349 37.392ZM35.9361 38.9608V38.5607L35.9263 38.5609L35.9361 38.9608ZM36.4337 38.4563H36.8338L36.8335 38.4458L36.4337 38.4563ZM7.95295 15.6012L7.67011 15.3184L7.63044 15.358L7.60321 15.4071L7.95295 15.6012ZM4.71164 21.4411L5.06103 21.6359L5.06138 21.6352L4.71164 21.4411ZM7.95986 15.5805L7.60209 15.4016L7.55986 15.4861V15.5805H7.95986ZM12.4866 13.21L12.7415 12.9016L12.6073 12.7907L12.4347 12.8134L12.4866 13.21ZM19.8193 13.2031L19.8635 12.8055L19.6951 12.7868L19.5645 12.8947L19.8193 13.2031ZM20.0186 13.2237L19.9788 13.6217L19.9792 13.6217L20.0186 13.2237ZM20.0198 13.2238L19.9803 13.6219L19.9834 13.6221L20.0198 13.2238ZM24.3599 15.4837L24.7475 15.3849L24.7473 15.3841L24.3599 15.4837ZM26.4264 22.9339L26.043 23.0482L26.0435 23.0497L26.4264 22.9339ZM26.2951 24.5166L26.62 24.7498L26.6214 24.7479L26.2951 24.5166ZM21.9341 30.5914L22.2583 30.8258L22.2591 30.8247L21.9341 30.5914ZM20.1511 30.8817L19.9167 31.2059L20.1511 30.8817ZM19.8608 29.0986L20.185 29.333L20.1858 29.3319L19.8608 29.0986ZM23.4477 24.1019L23.1234 23.8677L23.1227 23.8686L23.4477 24.1019ZM23.5237 23.6803L23.1373 23.7839L23.1391 23.7902L23.5237 23.6803ZM22.1691 18.6283L21.7816 18.7276L21.7828 18.7319L22.1691 18.6283ZM21.554 18.2758L21.6534 18.6634L21.6626 18.6608L21.554 18.2758ZM21.2016 18.8909L21.588 18.7874L21.5865 18.7823L21.2016 18.8909ZM22.4939 23.7149L22.8189 23.9482L22.9293 23.7943L22.8803 23.6114L22.4939 23.7149ZM19.0453 28.5181L19.3696 28.7523L19.3702 28.7514L19.0453 28.5181ZM18.8172 28.912L18.6907 29.2915L19.0337 29.4058L19.182 29.0762L18.8172 28.912ZM18.3196 28.7323L18.1732 29.1046L18.1792 29.1069L18.3196 28.7323ZM17.2069 28.3384L17.0841 28.7191L17.0853 28.7195L17.2069 28.3384ZM13.8481 26.0646L14.1428 25.7941L14.1403 25.7915L13.8481 26.0646ZM13.0395 24.8829L13.384 24.6795L13.3826 24.6771L13.0395 24.8829ZM13.0221 24.8538L12.6791 25.0596L13.0221 24.8538ZM11.2496 23.1758L11.2926 22.7781L11.291 22.778L11.2496 23.1758ZM9.85351 23.7356L9.52876 23.9691L9.75485 24.2835L10.0764 24.0677L9.85351 23.7356ZM8.68553 22.1115L8.37148 21.8638L8.18483 22.1004L8.36078 22.345L8.68553 22.1115ZM10.441 19.8861L10.8362 19.8248L10.6955 18.9176L10.1269 19.6384L10.441 19.8861ZM10.5446 21.4964L10.1446 21.4923V21.4964H10.5446ZM11.0422 22.0009L11.0322 22.4009H11.0422V22.0009ZM11.5398 21.5033L11.1398 21.5019V21.5033H11.5398ZM11.1436 18.5785L10.7688 18.7183L10.7698 18.7209L11.1436 18.5785ZM11.139 18.5661L11.5137 18.4262L11.51 18.4163L11.5058 18.4066L11.139 18.5661ZM10.745 18.2689L10.7927 17.8718H10.7927L10.745 18.2689ZM10.2889 18.4555L9.97655 18.2056L9.97479 18.2079L10.2889 18.4555ZM7.66268 21.7867L7.97504 22.0366L7.9768 22.0343L7.66268 21.7867ZM7.64886 22.3879L7.97382 22.1547L7.97182 22.1519L7.64886 22.3879ZM11.2357 27.3847L10.9108 27.6179L10.9116 27.619L11.2357 27.3847ZM10.9455 29.1677L10.7137 28.8417L10.7107 28.8439L10.9455 29.1677ZM9.99173 29.3889L9.92728 29.7837H9.92728L9.99173 29.3889ZM9.1624 28.8706L9.49011 28.6412L9.48734 28.6373L9.1624 28.8706ZM4.80148 22.7957L5.12643 22.5624L5.12546 22.5611L4.80148 22.7957ZM4.69782 31.3102L4.41495 31.593L4.73938 31.9175L5.01658 31.5518L4.69782 31.3102ZM6.35649 30.1975L6.2462 29.813L6.24553 29.8132L6.35649 30.1975ZM4.66326 31.2618L4.26713 31.3173L4.2857 31.4499L4.38044 31.5447L4.66326 31.2618ZM6.62602 28.6425L6.76732 29.0167L6.76887 29.0161L6.62602 28.6425ZM7.40006 28.138L7.72474 27.9044L7.46777 27.5472L7.13666 27.837L7.40006 28.138ZM8.33997 29.4442L8.01529 29.6778L8.02125 29.6861L8.02763 29.6941L8.33997 29.4442ZM8.42291 29.5479L8.56001 29.9236L9.08309 29.7328L8.73525 29.298L8.42291 29.5479ZM20.7828 36.8184C24.9666 37.908 30.0628 38.428 35.9329 38.3725L35.9254 37.5725C30.1019 37.6276 25.0802 37.1109 20.9845 36.0442L20.7828 36.8184ZM19.0015 35.7289C19.5949 36.3993 20.1255 36.6503 20.7845 36.8188L20.9828 36.0438C20.4531 35.9083 20.0714 35.7307 19.6005 35.1987L19.0015 35.7289ZM18.8872 35.443C18.8872 35.5769 18.9516 35.6669 18.9714 35.6933C18.9848 35.7112 18.9971 35.7247 19.0041 35.7321C19.0109 35.7394 19.0173 35.7457 19.0181 35.7466L19.5839 35.1809C19.5752 35.1723 19.5938 35.1897 19.6116 35.2135C19.6262 35.233 19.6872 35.316 19.6872 35.443H18.8872ZM11.9447 29.5773C14.9838 31.7266 17.4106 34.0977 19.0013 35.7228L19.573 35.1632C17.9708 33.5263 15.5045 31.115 12.4066 28.9241L11.9447 29.5773ZM11.726 27.0162C12.17 27.6367 12.183 28.4287 11.828 29.0529L12.5233 29.4484C13.0253 28.566 13.0107 27.4368 12.3765 26.5506L11.726 27.0162ZM10.1091 24.7636L11.7263 27.0167L12.3762 26.5502L10.759 24.2971L10.1091 24.7636ZM11.0773 23.7588C10.9545 23.7847 10.8097 23.8504 10.6796 23.9181C10.5387 23.9914 10.3777 24.0872 10.2122 24.1976L10.6559 24.8632C10.8014 24.7662 10.9375 24.6857 11.049 24.6277C11.1047 24.5987 11.1515 24.5768 11.1882 24.5615C11.2279 24.545 11.2442 24.5412 11.2421 24.5417L11.0773 23.7588ZM12.4999 25.1255C12.3404 24.8629 12.1584 24.5622 11.9734 24.3205C11.8803 24.199 11.7772 24.0798 11.6655 23.983C11.5576 23.8896 11.4125 23.7914 11.2349 23.7574L11.0845 24.5431C11.0653 24.5395 11.0836 24.5374 11.1418 24.5878C11.1961 24.6348 11.2618 24.7071 11.3381 24.8068C11.4917 25.0074 11.6504 25.2679 11.8161 25.5408L12.4999 25.1255ZM12.5244 25.1659L12.4999 25.1255L11.8161 25.5408L11.8407 25.5812L12.5244 25.1659ZM13.4129 26.4461C13.0756 26.0901 12.8064 25.6452 12.5273 25.1707L11.8378 25.5763C12.1116 26.0418 12.423 26.5645 12.8321 26.9963L13.4129 26.4461ZM17.0263 28.8818C16.4499 28.6954 15.9765 28.5411 15.4349 28.2136C14.892 27.8852 14.2634 27.3714 13.417 26.4505L12.828 26.9919C13.7061 27.9473 14.3924 28.518 15.0209 28.8981C15.6508 29.2791 16.2056 29.4572 16.7802 29.643L17.0263 28.8818ZM17.0329 28.8839L17.0264 28.8818L16.7801 29.643L16.7866 29.6451L17.0329 28.8839ZM18.1122 29.2677C17.7095 29.1023 17.358 28.9877 17.0314 28.8834L16.7881 29.6456C17.1112 29.7487 17.437 29.8552 17.8083 30.0077L18.1122 29.2677ZM18.7571 29.5001C18.5305 29.4246 18.3194 29.3519 18.1108 29.2671L17.8097 30.0083C18.0434 30.1032 18.2747 30.1826 18.5041 30.2591L18.7571 29.5001ZM19.8103 31.3581C19.3101 31 19.042 30.4432 19.0305 29.8716L18.2307 29.8876C18.2469 30.6982 18.6285 31.4959 19.3446 32.0086L19.8103 31.3581ZM20.9044 31.7119C20.5218 31.7119 20.1416 31.5981 19.8121 31.3594L19.3428 32.0074C19.815 32.3492 20.3609 32.5119 20.9044 32.5119V31.7119ZM22.2621 31.1354C21.8963 31.5126 21.4061 31.7119 20.9044 31.7119V32.5119C21.6191 32.5119 22.3175 32.2274 22.8364 31.6923L22.2621 31.1354ZM23.6275 31.8581C23.3627 31.5639 23.0864 31.3092 22.784 31.09L22.3144 31.7377C22.565 31.9193 22.8001 32.1346 23.0329 32.3933L23.6275 31.8581ZM23.6948 31.8932C23.6797 31.8946 23.6563 31.8907 23.6301 31.861L23.0302 32.3903C23.2114 32.5956 23.4782 32.7162 23.7673 32.6899L23.6948 31.8932ZM31.7869 31.4223L23.7078 31.8922L23.7543 32.6909L31.8334 32.2209L31.7869 31.4223ZM31.808 31.4214C31.8052 31.4224 31.8064 31.4216 31.8101 31.4216V32.2216C31.8968 32.2216 31.9809 32.207 32.061 32.1803L31.808 31.4214ZM35.1588 29.5728C34.5884 30.1305 33.7831 30.5863 33.0873 30.9105C32.7433 31.0708 32.4337 31.1954 32.205 31.2815C32.0908 31.3245 31.9972 31.3577 31.9299 31.3809C31.8963 31.3925 31.8694 31.4015 31.85 31.4079C31.8402 31.4111 31.8324 31.4136 31.8267 31.4155C31.8238 31.4164 31.8215 31.4171 31.8197 31.4177C31.8189 31.4179 31.8182 31.4182 31.8177 31.4183C31.8174 31.4184 31.8172 31.4185 31.8171 31.4185C31.817 31.4185 31.817 31.4185 31.8169 31.4185C31.8169 31.4186 31.8169 31.4186 31.8169 31.4186L32.0522 32.1832C32.1108 32.1652 32.6952 31.9758 33.4252 31.6356C34.1497 31.298 35.0514 30.7967 35.7181 30.1449L35.1588 29.5728ZM35.1625 29.4368C35.199 29.4732 35.1991 29.534 35.1606 29.5711L35.7163 30.1466C36.0787 29.7967 36.0788 29.2217 35.7282 28.8711L35.1625 29.4368ZM35.0233 29.4298C35.0597 29.3934 35.1205 29.3933 35.1576 29.4318L35.7331 28.8761C35.3832 28.5137 34.8082 28.5136 34.4576 28.8642L35.0233 29.4298ZM31.8168 31.2112C31.9934 31.15 32.5312 30.9576 33.1509 30.6589C33.7643 30.3632 34.4892 29.9488 35.0192 29.4339L34.4617 28.8601C34.0242 29.2851 33.391 29.6551 32.8036 29.9382C32.2225 30.2183 31.7167 30.3992 31.5546 30.4554L31.8168 31.2112ZM23.9269 31.6819L31.7088 31.2327L31.6627 30.434L23.8808 30.8832L23.9269 31.6819ZM22.9119 30.9451C23.1529 31.1164 23.3889 31.3203 23.6132 31.5574L24.1944 31.0077C23.9349 30.7334 23.6596 30.495 23.3753 30.293L22.9119 30.9451ZM26.7927 24.8567L22.8188 30.3856L23.4684 30.8525L27.4423 25.3236L26.7927 24.8567ZM27.0115 22.7471C27.1607 23.2335 27.206 23.6128 27.1692 23.9368C27.1332 24.255 27.015 24.5473 26.7926 24.8568L27.4423 25.3236C27.7314 24.9213 27.9104 24.5017 27.9642 24.0268C28.0173 23.5578 27.9451 23.0628 27.7763 22.5125L27.0115 22.7471ZM24.9468 15.3269C25.5498 17.6901 26.7056 21.739 27.0112 22.746L27.7767 22.5137C27.4741 21.5165 26.3216 17.4793 25.722 15.1291L24.9468 15.3269ZM20.6743 12.6746C21.487 12.7634 22.4367 12.9221 23.2467 13.3187C24.0431 13.7086 24.6888 14.3192 24.9469 15.3272L25.7219 15.1288C25.3925 13.8423 24.5523 13.0672 23.5985 12.6002C22.6583 12.1398 21.5934 11.9703 20.7612 11.8793L20.6743 12.6746ZM21.5272 8.74539C21.5272 9.98763 21.1093 11.1248 20.4024 12.0309L21.0332 12.523C21.8467 11.4802 22.3272 10.1708 22.3272 8.74539H21.5272ZM16.1564 3.37461C19.1146 3.37461 21.5272 5.78719 21.5272 8.74539H22.3272C22.3272 5.34536 19.5565 2.57461 16.1564 2.57461V3.37461ZM10.7857 8.74539C10.7857 5.78719 13.1982 3.37461 16.1564 3.37461V2.57461C12.7564 2.57461 9.98567 5.34536 9.98567 8.74539H10.7857ZM11.9554 12.0818C11.2228 11.1693 10.7857 10.0062 10.7857 8.74539H9.98567C9.98567 10.1937 10.4884 11.5324 11.3316 12.5827L11.9554 12.0818ZM7.43965 15.29C7.83246 14.5074 8.55509 13.9328 9.37568 13.5155C10.1935 13.0997 11.073 12.8583 11.7243 12.724L11.5627 11.9405C10.8732 12.0827 9.91786 12.3423 9.01305 12.8025C8.11104 13.2611 7.22338 13.9375 6.72466 14.9311L7.43965 15.29ZM4.19757 21.1375L7.43197 15.3045L6.73233 14.9166L3.49793 20.7495L4.19757 21.1375ZM4.31665 23.1275C3.89695 22.549 3.85094 21.7626 4.19756 21.1375L3.49793 20.7495C3.0014 21.6449 3.06597 22.7659 3.66911 23.5973L4.31665 23.1275ZM7.15155 27.0825L4.31799 23.1294L3.66777 23.5954L6.50133 27.5486L7.15155 27.0825ZM6.4426 28.0712C6.63538 27.9901 6.86877 27.8237 7.0997 27.6077L6.55318 27.0235C6.35563 27.2083 6.20199 27.3045 6.13215 27.3339L6.4426 28.0712ZM4.28298 30.2037C4.50932 29.6189 5.08227 28.5817 6.42782 28.0771L6.14692 27.328C4.50688 27.9431 3.80818 29.2141 3.53692 29.9149L4.28298 30.2037ZM4.12133 31.502C4.07678 31.4144 4.05223 31.2339 4.0865 30.963C4.11883 30.7073 4.19569 30.4312 4.28342 30.2025L3.53648 29.916C3.4307 30.1918 3.33477 30.5309 3.29282 30.8626C3.25279 31.1791 3.25243 31.5584 3.40831 31.8648L4.12133 31.502ZM4.73459 32.0453C4.63414 32.036 4.51569 31.9758 4.3904 31.8566C4.26779 31.74 4.17161 31.5975 4.11878 31.4971L3.41085 31.8697C3.49624 32.0319 3.64195 32.2488 3.83899 32.4362C4.03334 32.6211 4.31228 32.8097 4.66105 32.8419L4.73459 32.0453ZM4.99838 31.92C4.92317 32.0158 4.82946 32.0534 4.73198 32.0451L4.66366 32.8421C5.04995 32.8753 5.39855 32.7056 5.62743 32.4143L4.99838 31.92ZM5.11731 31.7613L4.99291 31.9272L5.6329 32.4072L5.7573 32.2413L5.11731 31.7613ZM6.52304 30.7735C6.1343 30.8846 5.85898 31.008 5.63348 31.1841C5.4136 31.3557 5.26493 31.5612 5.11541 31.7638L5.75919 32.2388C5.92068 32.0199 6.00699 31.9074 6.12575 31.8147C6.2389 31.7264 6.4059 31.639 6.74282 31.5427L6.52304 30.7735ZM9.30727 29.8889C8.69536 30.102 7.86717 30.3895 6.52304 30.7735L6.74282 31.5427C8.10785 31.1527 8.95214 30.8597 9.57041 30.6443L9.30727 29.8889ZM9.89211 29.9747C9.79125 29.9596 9.6887 29.9283 9.56533 29.8871L9.31235 30.6461C9.43779 30.6879 9.59786 30.7395 9.77344 30.7658L9.89211 29.9747ZM10.206 29.9979C10.096 29.9979 9.99478 29.9918 9.89853 29.9757L9.76702 30.7648C9.91957 30.7903 10.0672 30.7979 10.206 30.7979V29.9979ZM11.2641 29.668C10.9513 29.8841 10.5814 29.9979 10.206 29.9979V30.7979C10.7428 30.7979 11.2714 30.6353 11.7188 30.3262L11.2641 29.668ZM15.9407 33.0521C14.722 31.9517 13.3061 30.7798 11.7209 29.6695L11.262 30.3247C12.8144 31.4121 14.2044 32.5623 15.4046 33.6459L15.9407 33.0521ZM11.7539 33.4776C12.7903 33.7762 13.5303 33.9062 14.1493 33.9267C14.7743 33.9474 15.2561 33.8556 15.7626 33.7387L15.5827 32.9592C15.1009 33.0704 14.6981 33.1445 14.1758 33.1271C13.6476 33.1096 12.9778 32.9977 11.9754 32.7089L11.7539 33.4776ZM10.4464 32.8987C10.8484 33.1096 11.3105 33.3541 11.7573 33.4786L11.972 32.7079C11.6232 32.6107 11.2405 32.4119 10.8181 32.1903L10.4464 32.8987ZM10.3727 32.8601L10.4465 32.8988L10.818 32.1903L10.7442 32.1516L10.3727 32.8601ZM8.30907 32.336C8.56393 32.2167 8.85465 32.2205 9.21066 32.3274C9.57413 32.4365 9.95464 32.6369 10.3701 32.8587L10.7468 32.1529C10.3467 31.9393 9.89445 31.6974 9.44069 31.5612C8.97946 31.4227 8.46848 31.3781 7.97003 31.6114L8.30907 32.336ZM7.9022 33.1695C8.01308 32.8512 8.08382 32.6529 8.15727 32.5137C8.22279 32.3895 8.26898 32.3551 8.31153 32.3348L7.96758 31.6125C7.71986 31.7305 7.56562 31.9207 7.44972 32.1403C7.34176 32.3449 7.25009 32.6096 7.14672 32.9064L7.9022 33.1695ZM7.9008 33.1736L7.90201 33.1701L7.14692 32.9058L7.14571 32.9093L7.9008 33.1736ZM4.11881 38.3897C6.61858 36.8592 7.46473 34.4195 7.90079 33.1736L7.14571 32.9093C6.7104 34.153 5.93795 36.3379 3.70109 37.7074L4.11881 38.3897ZM4.0844 38.5225C4.05849 38.4806 4.06801 38.4211 4.12015 38.3888L3.69975 37.7082C3.28194 37.9663 3.1394 38.5149 3.40376 38.9429L4.0844 38.5225ZM4.17257 38.5746C4.14379 38.5746 4.10885 38.5609 4.08155 38.518L3.40661 38.9475C3.57282 39.2087 3.85579 39.3746 4.17257 39.3746V38.5746ZM4.21331 38.5658C4.20887 38.5687 4.2051 38.5704 4.20059 38.5716C4.19555 38.573 4.18673 38.5746 4.17257 38.5746V39.3746C4.32621 39.3746 4.49685 39.3382 4.65708 39.2314L4.21331 38.5658ZM8.10062 33.2376C7.65944 34.4992 6.77728 36.9993 4.22668 38.5572L4.6437 39.2399C7.45613 37.522 8.41233 34.7697 8.85577 33.5017L8.10062 33.2376ZM8.18719 32.9942C8.1591 33.0748 8.13095 33.1556 8.1031 33.2308L8.85329 33.5086C8.88433 33.4248 8.91506 33.3366 8.94266 33.2574L8.18719 32.9942ZM8.29492 32.6991C8.26191 32.7792 8.22308 32.8912 8.18719 32.9942L8.94266 33.2574C8.98178 33.1451 9.01214 33.0584 9.03467 33.0037L8.29492 32.6991ZM10.2742 33.0324C10.0203 32.897 9.73048 32.7421 9.4608 32.6285C9.21201 32.5237 8.89275 32.4139 8.60707 32.4555L8.72252 33.2472C8.76656 33.2408 8.8999 33.2603 9.15027 33.3658C9.37974 33.4624 9.63566 33.5986 9.89768 33.7383L10.2742 33.0324ZM10.2345 33.014L10.2345 33.014L9.93737 33.7568L9.93738 33.7568L10.2345 33.014ZM10.2836 33.0375L10.2741 33.0324L9.89773 33.7383L9.9072 33.7434L10.2836 33.0375ZM11.703 33.6687C11.233 33.5371 10.7734 33.2964 10.2823 33.0368L9.90847 33.7441C10.385 33.9959 10.9205 34.2804 11.4873 34.4391L11.703 33.6687ZM16.0558 33.8724C15.4688 34.0139 14.9844 34.1274 14.3513 34.1282C13.716 34.129 12.9103 34.0156 11.7056 33.6695L11.4846 34.4383C12.7334 34.7971 13.6174 34.9291 14.3523 34.9282C15.0893 34.9272 15.6554 34.7919 16.2433 34.6501L16.0558 33.8724ZM16.311 33.8121C16.2268 33.8309 16.1365 33.851 16.0477 33.8744L16.2513 34.6481C16.3232 34.6291 16.3987 34.6122 16.4857 34.5927L16.311 33.8121ZM16.316 33.811L16.3159 33.811L16.4807 34.5938L16.4808 34.5938L16.316 33.811ZM16.4716 33.7754C16.4183 33.788 16.3656 33.7998 16.311 33.812L16.4857 34.5927C16.5396 34.5807 16.5975 34.5677 16.6569 34.5536L16.4716 33.7754ZM18.8478 35.8479C18.2853 35.2715 17.6105 34.5966 16.8377 33.8726L16.2907 34.4564C17.0522 35.1698 17.7181 35.8357 18.2752 36.4066L18.8478 35.8479ZM20.7348 37.0047C20.1452 36.8525 19.5327 36.6153 18.8601 35.861L18.263 36.3934C19.0693 37.2978 19.839 37.5997 20.5349 37.7793L20.7348 37.0047ZM35.0929 38.5677C29.5454 38.5677 24.7159 38.0444 20.7359 37.005L20.5338 37.779C24.5984 38.8405 29.4997 39.3677 35.0929 39.3677V38.5677ZM35.9263 38.5609C35.6486 38.5677 35.3701 38.5677 35.0929 38.5677V39.3677C35.3686 39.3677 35.6568 39.3677 35.9458 39.3607L35.9263 38.5609ZM36.0337 38.4563C36.0337 38.519 35.9844 38.5608 35.9361 38.5608V39.3608C36.4406 39.3608 36.8337 38.9464 36.8337 38.4563H36.0337ZM35.9292 38.3725C35.9531 38.3725 35.98 38.3825 36.0025 38.4041C36.0252 38.426 36.0334 38.4497 36.0338 38.4668L36.8335 38.4458C36.8208 37.9619 36.411 37.5725 35.9292 37.5725V38.3725ZM21.3182 8.7523C21.3182 5.90554 19.004 3.58363 16.1495 3.58363V4.38363C18.5614 4.38363 20.5182 6.34661 20.5182 8.7523H21.3182ZM16.1495 13.921C18.9963 13.921 21.3182 11.6067 21.3182 8.7523H20.5182C20.5182 11.1641 18.5552 13.121 16.1495 13.121V13.921ZM10.9809 8.7523C10.9809 11.5991 13.2951 13.921 16.1495 13.921V13.121C13.7377 13.121 11.7809 11.158 11.7809 8.7523H10.9809ZM16.1495 3.58363C13.3028 3.58363 10.9809 5.89787 10.9809 8.7523H11.7809C11.7809 6.34046 13.7438 4.38363 16.1495 4.38363V3.58363ZM7.60321 15.4071L4.3619 21.247L5.06138 21.6352L8.30269 15.7953L7.60321 15.4071ZM7.55986 15.5805C7.55986 15.5914 7.55796 15.5458 7.57092 15.4939C7.58725 15.4285 7.62117 15.3673 7.67011 15.3184L8.23579 15.8841C8.36711 15.7527 8.35986 15.5932 8.35986 15.5805H7.55986ZM12.4347 12.8134C11.6947 12.9103 10.7125 13.1344 9.80978 13.5345C8.91657 13.9304 8.0399 14.526 7.60209 15.4016L8.31763 15.7594C8.63313 15.1284 9.30801 14.632 10.1339 14.2659C10.9504 13.904 11.8549 13.6962 12.5386 13.6066L12.4347 12.8134ZM16.1495 14.1231C14.8561 14.1231 13.667 13.6665 12.7415 12.9016L12.2318 13.5183C13.2967 14.3983 14.6647 14.9231 16.1495 14.9231V14.1231ZM19.5645 12.8947C18.6381 13.6603 17.4488 14.1231 16.1495 14.1231V14.9231C17.6424 14.9231 19.0102 14.3906 20.0741 13.5114L19.5645 12.8947ZM20.0584 12.8257C19.9891 12.8187 19.9228 12.8121 19.8635 12.8055L19.7752 13.6006C19.8396 13.6078 19.9106 13.6149 19.9788 13.6217L20.0584 12.8257ZM20.0592 12.8257L20.058 12.8256L19.9792 13.6217L19.9803 13.6218L20.0592 12.8257ZM24.7473 15.3841C24.4564 14.2532 23.5926 13.6465 22.6829 13.3122C21.7816 12.9811 20.7665 12.8903 20.0561 12.8254L19.9834 13.6221C20.7105 13.6886 21.6202 13.7741 22.4069 14.0632C23.1852 14.3491 23.7728 14.8067 23.9726 15.5834L24.7473 15.3841ZM26.8097 22.8197C26.4996 21.7792 25.3609 17.79 24.7475 15.3849L23.9723 15.5826C24.5892 18.0014 25.7311 22.0014 26.043 23.0482L26.8097 22.8197ZM26.6214 24.7479C26.7804 24.5237 26.9112 24.2716 26.9521 23.94C26.9917 23.6183 26.9422 23.2576 26.8092 22.8181L26.0435 23.0497C26.1593 23.4326 26.1789 23.6732 26.1581 23.8422C26.1385 24.0013 26.0793 24.1293 25.9688 24.2852L26.6214 24.7479ZM22.2591 30.8247L26.62 24.7498L25.9701 24.2833L21.6092 30.3582L22.2591 30.8247ZM19.9167 31.2059C20.671 31.7511 21.7154 31.5768 22.2583 30.8258L21.61 30.3571C21.3236 30.7533 20.7784 30.8416 20.3854 30.5575L19.9167 31.2059ZM19.5366 28.8643C18.9914 29.6186 19.1657 30.6629 19.9167 31.2059L20.3854 30.5575C19.9892 30.2711 19.9009 29.726 20.185 29.333L19.5366 28.8643ZM23.1227 23.8686L19.5359 28.8654L20.1858 29.3319L23.7726 24.3351L23.1227 23.8686ZM23.1391 23.7902C23.146 23.8145 23.1433 23.8402 23.1234 23.8677L23.7719 24.3361C23.9317 24.1148 23.9843 23.8364 23.9083 23.5704L23.1391 23.7902ZM21.7828 18.7319L23.1373 23.7839L23.9101 23.5767L22.5555 18.5247L21.7828 18.7319ZM21.6626 18.6608C21.7171 18.6454 21.7686 18.6769 21.7816 18.7276L22.5566 18.5289C22.4314 18.0406 21.93 17.7542 21.4454 17.8908L21.6626 18.6608ZM21.5865 18.7823C21.5712 18.7278 21.6027 18.6763 21.6534 18.6633L21.4547 17.8883C20.9663 18.0136 20.6799 18.5149 20.8166 18.9995L21.5865 18.7823ZM22.8803 23.6114L21.5879 18.7874L20.8152 18.9944L22.1076 23.8184L22.8803 23.6114ZM19.3702 28.7514L22.8189 23.9482L22.169 23.4816L18.7204 28.2848L19.3702 28.7514ZM19.182 29.0762C19.233 28.9629 19.2954 28.855 19.3696 28.7523L18.721 28.2839C18.6155 28.4299 18.5259 28.5847 18.4525 28.7479L19.182 29.0762ZM18.1792 29.1069C18.3438 29.1686 18.5166 29.2335 18.6907 29.2915L18.9437 28.5326C18.7861 28.48 18.6272 28.4205 18.4601 28.3578L18.1792 29.1069ZM17.0853 28.7195C17.4044 28.8213 17.762 28.9428 18.1732 29.1046L18.4661 28.3601C18.0341 28.1902 17.6591 28.0628 17.3286 27.9573L17.0853 28.7195ZM13.5535 26.3352C14.3406 27.1926 14.9357 27.702 15.489 28.0424C16.0445 28.3842 16.5398 28.5434 17.0841 28.7191L17.3298 27.9577C16.7821 27.781 16.3721 27.6465 15.9082 27.361C15.4421 27.0743 14.9038 26.6231 14.1428 25.7941L13.5535 26.3352ZM12.6951 25.0862C12.9381 25.498 13.223 25.9816 13.5559 26.3378L14.1403 25.7915C13.8789 25.5119 13.6385 25.1108 13.384 24.6795L12.6951 25.0862ZM12.6791 25.0596L12.6965 25.0886L13.3826 24.6771L13.3651 24.648L12.6791 25.0596ZM11.2065 23.5735C11.4841 23.6035 11.7261 23.7537 11.9703 24.0224C12.2204 24.2978 12.4385 24.6585 12.6791 25.0596L13.3651 24.648C13.1344 24.2635 12.8759 23.8295 12.5624 23.4845C12.2429 23.1328 11.8343 22.8368 11.2926 22.7781L11.2065 23.5735ZM10.0764 24.0677C10.3235 23.9019 10.566 23.7676 10.7772 23.6801C11.0002 23.5877 11.1427 23.5668 11.2081 23.5736L11.291 22.778C11.0247 22.7502 10.7318 22.833 10.471 22.941C10.1984 23.0539 9.9088 23.2168 9.63062 23.4035L10.0764 24.0677ZM8.36078 22.345L9.52876 23.9691L10.1783 23.5021L9.01027 21.8779L8.36078 22.345ZM10.1269 19.6384L8.37148 21.8638L8.99958 22.3592L10.755 20.1338L10.1269 19.6384ZM10.9446 21.5005C10.9517 20.8018 10.9019 20.2478 10.8362 19.8248L10.0457 19.9474C10.1044 20.3261 10.1513 20.8364 10.1446 21.4923L10.9446 21.5005ZM11.0522 21.601C10.987 21.5994 10.9446 21.5501 10.9446 21.4964H10.1446C10.1446 21.9956 10.5446 22.3886 11.0322 22.4008L11.0522 21.601ZM11.1398 21.5033C11.1398 21.5588 11.0978 21.6009 11.0422 21.6009V22.4009C11.5396 22.4009 11.9398 22.0007 11.9398 21.5033H11.1398ZM10.7698 18.7209C10.8013 18.8037 11.1462 19.6902 11.1398 21.5019L11.9398 21.5047C11.9466 19.5818 11.579 18.5978 11.5174 18.4361L10.7698 18.7209ZM10.7642 18.7059L10.7688 18.7183L11.5184 18.4386L11.5137 18.4262L10.7642 18.7059ZM10.6974 18.6661C10.7234 18.6692 10.7573 18.6915 10.7721 18.7256L11.5058 18.4066C11.3824 18.1228 11.1123 17.9101 10.7927 17.8718L10.6974 18.6661ZM10.6013 18.7054C10.6246 18.6762 10.6607 18.6617 10.6974 18.6661L10.7927 17.8718C10.4838 17.8347 10.1744 17.9583 9.97656 18.2056L10.6013 18.7054ZM7.9768 22.0343L10.603 18.7032L9.97479 18.2079L7.34856 21.539L7.9768 22.0343ZM7.97182 22.1519C7.94806 22.1194 7.94854 22.0697 7.97503 22.0365L7.35034 21.5368C7.10039 21.8492 7.08704 22.2971 7.3259 22.6239L7.97182 22.1519ZM11.5607 27.1514L7.97381 22.1547L7.32392 22.6212L10.9108 27.6179L11.5607 27.1514ZM11.1772 29.4938C11.933 28.9565 12.1039 27.9029 11.5599 27.1503L10.9116 27.619C11.1969 28.0137 11.1052 28.5635 10.7137 28.8417L11.1772 29.4938ZM9.92728 29.7837C10.3673 29.8555 10.8144 29.7568 11.1803 29.4916L10.7107 28.8439C10.5237 28.9795 10.2935 29.0329 10.0562 28.9941L9.92728 29.7837ZM8.8347 29.0999C9.09067 29.4656 9.48321 29.7112 9.92728 29.7837L10.0562 28.9941C9.82296 28.956 9.62115 28.8284 9.49009 28.6412L8.8347 29.0999ZM4.47654 23.0289L8.83745 29.1038L9.48734 28.6373L5.12643 22.5624L4.47654 23.0289ZM4.36224 21.2464C4.04947 21.8075 4.09851 22.5069 4.47751 23.0303L5.12546 22.5611C4.92393 22.2828 4.90385 21.9179 5.06103 21.6359L4.36224 21.2464ZM5.01658 31.5518C5.17301 31.3455 5.31544 31.1741 5.52147 31.019C5.72674 30.8645 6.01395 30.7127 6.46745 30.5818L6.24553 29.8132C5.71764 29.9656 5.33793 30.1559 5.04042 30.3798C4.74367 30.6031 4.54745 30.8464 4.37906 31.0685L5.01658 31.5518ZM4.33753 31.4918C4.33774 31.4921 4.36715 31.5452 4.41495 31.593L4.98068 31.0274C5.00034 31.047 5.01287 31.0644 5.01867 31.0729C5.02374 31.0803 5.02723 31.0864 5.02355 31.0802L4.33753 31.4918ZM4.38044 31.5447C4.36077 31.525 4.34822 31.5076 4.34242 31.4991C4.33734 31.4917 4.33385 31.4856 4.33753 31.4918L5.02355 31.0802C5.02335 31.0799 4.99392 31.0268 4.94609 30.9789L4.38044 31.5447ZM6.48472 28.2683C5.54522 28.623 4.97515 29.2676 4.65014 29.868C4.48833 30.1669 4.38576 30.4571 4.3266 30.7008C4.27064 30.9314 4.24466 31.1568 4.26713 31.3173L5.0594 31.2063C5.05964 31.208 5.05683 31.1802 5.06334 31.1164C5.06935 31.0573 5.082 30.9803 5.10402 30.8896C5.1481 30.708 5.22694 30.4829 5.35367 30.2488C5.60574 29.7832 6.04124 29.2909 6.76732 29.0167L6.48472 28.2683ZM7.13666 27.837C6.8793 28.0621 6.65733 28.2023 6.48316 28.2689L6.76887 29.0161C7.06466 28.903 7.36794 28.6976 7.66347 28.439L7.13666 27.837ZM8.66465 29.2106L7.72474 27.9044L7.07538 28.3716L8.01529 29.6778L8.66465 29.2106ZM8.73525 29.298L8.65232 29.1943L8.02763 29.6941L8.11056 29.7977L8.73525 29.298ZM6.46677 30.582C7.36121 30.3254 8.0353 30.1151 8.56001 29.9236L8.2858 29.1721C7.78766 29.3538 7.13483 29.5581 6.2462 29.813L6.46677 30.582ZM32.1494 11.4749C32.1494 11.7149 31.9506 11.9112 31.7132 11.9112V12.7112C32.3881 12.7112 32.9494 12.161 32.9494 11.4749H32.1494ZM31.7132 11.0387C31.9532 11.0387 32.1494 11.2375 32.1494 11.4749H32.9494C32.9494 10.8 32.3993 10.2387 31.7132 10.2387V11.0387ZM31.277 11.4749C31.277 11.2349 31.4758 11.0387 31.7132 11.0387V10.2387C31.0383 10.2387 30.477 10.7888 30.477 11.4749H31.277ZM31.7132 11.9112C31.4711 11.9112 31.277 11.717 31.277 11.4749H30.477C30.477 12.1589 31.0293 12.7112 31.7132 12.7112V11.9112ZM32.1494 15.9329C32.1494 16.1729 31.9506 16.3692 31.7132 16.3692V17.1692C32.3881 17.1692 32.9494 16.619 32.9494 15.9329H32.1494ZM31.7132 15.4967C31.9532 15.4967 32.1494 15.6956 32.1494 15.9329H32.9494C32.9494 15.258 32.3993 14.6967 31.7132 14.6967V15.4967ZM31.277 15.9329C31.277 15.6929 31.4758 15.4967 31.7132 15.4967V14.6967C31.0383 14.6967 30.477 15.2468 30.477 15.9329H31.277ZM31.7132 16.3692C31.4711 16.3692 31.277 16.1751 31.277 15.9329H30.477C30.477 16.6169 31.0293 17.1692 31.7132 17.1692V16.3692ZM31.7132 21.6272C32.3881 21.6272 32.9494 21.077 32.9494 20.3909H32.1494C32.1494 20.6309 31.9506 20.8272 31.7132 20.8272V21.6272ZM30.477 20.3909C30.477 21.0749 31.0293 21.6272 31.7132 21.6272V20.8272C31.4711 20.8272 31.277 20.6331 31.277 20.3909H30.477ZM31.7132 19.1547C31.0383 19.1547 30.477 19.7048 30.477 20.3909H31.277C31.277 20.151 31.4758 19.9547 31.7132 19.9547V19.1547ZM32.9494 20.3909C32.9494 19.716 32.3993 19.1547 31.7132 19.1547V19.9547C31.9532 19.9547 32.1494 20.1536 32.1494 20.3909H32.9494ZM16.7095 37.5725H9.12114V38.3725H16.7095V37.5725ZM17.6071 38.4701C17.6071 37.9832 17.2105 37.5725 16.7095 37.5725V38.3725C16.7615 38.3725 16.8071 38.4178 16.8071 38.4701H17.6071ZM16.7095 39.3677C17.2069 39.3677 17.6071 38.9674 17.6071 38.4701H16.8071C16.8071 38.5256 16.7651 38.5677 16.7095 38.5677V39.3677ZM9.12114 39.3677H16.7095V38.5677H9.12114V39.3677ZM8.22354 38.4701C8.22354 38.9674 8.62378 39.3677 9.12114 39.3677V38.5677C9.0656 38.5677 9.02354 38.5256 9.02354 38.4701H8.22354ZM9.12114 37.5725C8.62377 37.5725 8.22354 37.9727 8.22354 38.4701H9.02354C9.02354 38.4145 9.06561 38.3725 9.12114 38.3725V37.5725Z" fill="#023047"/>
</svg>
