<svg width="39" height="38" viewBox="0 0 39 38" fill="none" xmlns="http://www.w3.org/2000/svg">
<path fill-rule="evenodd" clip-rule="evenodd" d="M5.59234 6.02242C3.57101 6.5518 2.07723 8.12997 1.69204 10.1431C1.5395 10.9402 1.5395 27.2473 1.69204 28.0444C2.0497 29.9139 3.40612 31.449 5.25734 32.0795L5.83843 32.2773L19.3125 32.2976C34.4483 32.3203 33.3054 32.36 34.5299 31.769C36.1316 30.996 37.212 29.4995 37.4693 27.6977C37.5282 27.2856 37.5452 24.706 37.529 18.6943C37.5037 9.3239 37.5401 10.0084 37.0074 8.8883C36.3217 7.44646 35.0684 6.41698 33.5153 6.01973C32.9541 5.8762 32.7323 5.87395 19.537 5.87787C6.51977 5.8818 6.11336 5.88601 5.59234 6.02242ZM5.85746 7.97613C4.76828 8.32428 3.88182 9.28207 3.62744 10.3855C3.58016 10.5903 3.55328 13.7022 3.55212 19.0967C3.5506 26.4511 3.56432 27.5426 3.66311 27.922C3.86722 28.7059 4.36413 29.3756 5.0918 29.8477C5.93969 30.3978 4.85268 30.3614 19.7484 30.3375L33.0772 30.3161L33.4798 30.1531C34.2955 29.8229 35.023 29.0709 35.3785 28.1907L35.5469 27.7738L35.5665 19.3122C35.5798 13.5949 35.5613 10.7309 35.5097 10.4821C35.2679 9.31715 34.422 8.37222 33.2754 7.98594C32.8283 7.83536 32.8039 7.83507 19.5509 7.83899C6.87997 7.8427 6.25522 7.84894 5.85746 7.97613ZM6.5648 11.8565C6.18673 12.0283 6.05634 12.2371 6.05634 12.6709C6.05634 13.0529 6.06586 13.0704 6.52848 13.5418C7.1257 14.1503 8.86651 15.7499 10.923 17.5796C11.8019 18.3617 12.5777 19.0652 12.6472 19.1431C12.7696 19.2804 12.6877 19.3699 9.86178 22.1851C8.2605 23.7804 6.92079 25.1408 6.88469 25.2083C6.84859 25.2758 6.81903 25.4508 6.81903 25.5972C6.81903 25.8032 6.87496 25.9194 7.06599 26.1105C7.34303 26.3875 7.57176 26.4227 7.92122 26.2419C8.04405 26.1785 9.04752 25.2386 10.1512 24.1535C11.2548 23.0684 12.5732 21.7751 13.0808 21.2795L14.0037 20.3786L14.3156 20.6406C14.4871 20.7847 14.9707 21.2 15.3902 21.5634C16.5667 22.5827 17.491 22.9917 18.9981 23.1598C20.3539 23.3111 21.7514 22.9323 23.017 22.0705C23.2367 21.9209 23.7682 21.4841 24.198 21.0998C24.6278 20.7156 25.0037 20.4017 25.0333 20.4022C25.0629 20.4027 26.411 21.6984 28.0289 23.2813C29.733 24.9486 31.0726 26.2027 31.2131 26.2621C31.8434 26.5288 32.4918 25.7978 32.1655 25.1883C32.1236 25.1098 30.783 23.7504 29.1865 22.1672C26.3518 19.3561 26.2869 19.2854 26.4119 19.1446C26.4823 19.0653 27.259 18.3614 28.1379 17.5803C29.9701 15.952 32.0273 14.0589 32.5924 13.481C32.8927 13.174 32.988 13.0208 33.0181 12.7964C33.0622 12.4675 32.9183 12.123 32.6619 11.9435C32.394 11.7557 31.8744 11.797 31.5751 12.0298C31.4339 12.1397 29.524 13.8481 27.3311 15.8262C22.2591 20.4013 22.0704 20.5643 21.4971 20.8649C20.7587 21.2519 20.2115 21.3672 19.3125 21.3251C18.1126 21.2688 17.5029 20.9888 16.3217 19.9517C15.9891 19.6597 13.9232 17.8028 11.7307 15.8252C9.53819 13.8476 7.62602 12.1402 7.4814 12.031C7.15635 11.7854 6.84968 11.727 6.5648 11.8565Z" fill="white"/>
</svg>
