<svg width="42" height="41" viewBox="0 0 42 41" fill="none" xmlns="http://www.w3.org/2000/svg">
<path d="M21.5723 34.7979H20.5693C20.2128 34.7979 19.9453 35.0876 19.9453 35.4219C19.9453 35.7785 20.235 36.0459 20.5693 36.0459H21.5723C21.9289 36.0459 22.1963 35.7562 22.1963 35.4219C22.1963 35.0653 21.9289 34.7979 21.5723 34.7979Z" fill="#023047"/>
<path d="M1.2018 9.16802C1.29095 9.2126 1.40238 9.25718 1.51382 9.25718C1.73669 9.25718 1.93727 9.14574 2.07099 8.94515C4.43341 4.7552 8.2222 5.71353 8.37821 5.7581C8.44507 5.78039 8.51194 5.78038 8.55651 5.78038C12.947 5.64666 16.6913 1.70187 16.8473 1.52357C17.0924 1.27841 17.0701 0.877248 16.825 0.632091C16.5798 0.386934 16.1787 0.409215 15.9335 0.654372C15.8889 0.698946 12.4344 4.35402 8.60108 4.51003C7.86561 4.35402 3.6088 3.68541 0.978931 8.32111C0.800635 8.61084 0.91207 8.98973 1.2018 9.16802Z" fill="#023047"/>
<path d="M33.5846 5.75792C33.6515 5.75792 33.7184 5.75793 33.7629 5.73564C33.919 5.69107 37.6855 4.73274 40.0702 8.92269C40.1816 9.12327 40.4045 9.23469 40.6273 9.23469C40.7388 9.23469 40.8279 9.21242 40.9394 9.14556C41.2514 8.96727 41.3405 8.58838 41.1845 8.29864C38.5547 3.66295 34.2978 4.33156 33.5624 4.48757C29.729 4.33156 26.2745 0.676485 26.2299 0.631911C25.9848 0.386754 25.6059 0.364473 25.3385 0.60963C25.0933 0.854787 25.071 1.23367 25.3162 1.50111C25.4499 1.67941 29.1941 5.6242 33.5846 5.75792Z" fill="#023047"/>
<path d="M24.8704 21.3586C23.7338 20.9797 22.664 20.4003 21.6834 19.6425V12.377C21.6834 12.0204 21.3937 11.7529 21.0594 11.7529C20.7028 11.7529 20.4353 12.0427 20.4353 12.377V19.6425C19.4547 20.4226 18.3849 21.002 17.2483 21.3586C16.914 21.4701 16.7357 21.8266 16.8471 22.1609C16.9363 22.4284 17.1814 22.5844 17.4489 22.5844C17.5157 22.5844 17.5826 22.5844 17.6495 22.5621C18.8752 22.161 20.0119 21.5592 21.0594 20.7346C22.1069 21.5369 23.2658 22.161 24.4693 22.5621C24.5361 22.5844 24.603 22.5844 24.6699 22.5844C24.9373 22.5844 25.1825 22.4061 25.2716 22.1609C25.3831 21.8044 25.2048 21.4478 24.8704 21.3586Z" fill="#023047"/>
<path d="M6.46149 15.0292C6.17176 15.0961 5.97118 15.3858 5.99346 15.6755C6.01575 15.8538 6.23862 20.2889 1.17947 23.8994C0.889739 24.1 0.822877 24.5012 1.04575 24.7686C1.24633 25.0584 1.6475 25.1252 1.91494 24.9024C5.0797 22.6291 6.39463 20.0438 6.90723 18.1717C7.73185 20.6678 8.8462 24.9246 8.8462 29.6718V39.7678C8.8462 40.1244 9.13593 40.3918 9.47024 40.3918C9.82683 40.3918 10.0943 40.1021 10.0943 39.7678V29.6718C10.0943 21.9159 7.30839 15.6309 7.19696 15.3635C7.04095 15.1183 6.75122 14.9623 6.46149 15.0292Z" fill="#023047"/>
<path d="M40.9841 23.9223C35.925 20.2895 36.1479 15.8767 36.1701 15.6984C36.1924 15.3864 35.9918 15.1189 35.7021 15.0521C35.4124 14.9852 35.1004 15.1189 34.9666 15.4087C34.8552 15.6761 32.0693 21.961 32.0693 29.7169V39.8129C32.0693 40.1695 32.3591 40.437 32.6934 40.437C33.0277 40.437 33.3174 40.1472 33.3174 39.8129V29.7169C33.3174 24.9698 34.4318 20.713 35.2564 18.2168C35.7913 20.0889 37.0839 22.6742 40.2487 24.9475C40.5384 25.1481 40.9173 25.0812 41.1179 24.8138C41.3407 24.524 41.2739 24.1229 40.9841 23.9223Z" fill="#023047"/>
<path d="M17.7833 13.8479C17.7833 11.9981 16.29 10.5049 14.4402 10.5049C12.5904 10.5049 11.0972 11.9981 11.0972 13.8479C11.0972 15.4749 12.2561 16.8344 13.8162 17.1241V39.8123C13.8162 40.1689 14.1059 40.4363 14.4402 40.4363C14.7968 40.4363 15.0643 40.1466 15.0643 39.8123V17.1241C16.6021 16.8344 17.7833 15.4749 17.7833 13.8479ZM14.4402 15.9429C13.2813 15.9429 12.3675 15.0069 12.3675 13.8702C12.3675 12.7113 13.3036 11.7975 14.4402 11.7975C15.5769 11.7975 16.5129 12.7336 16.5129 13.8702C16.5129 15.0069 15.5769 15.9429 14.4402 15.9429Z" fill="#023047"/>
<path d="M27.701 10.5049C25.8511 10.5049 24.3579 11.9981 24.3579 13.8479C24.3579 15.4749 25.5168 16.8344 27.0769 17.1241V39.8123C27.0769 40.1689 27.3667 40.4363 27.701 40.4363C28.0353 40.4363 28.325 40.1466 28.325 39.8123V17.1241C29.8628 16.8344 31.044 15.4749 31.044 13.8479C31.044 12.0204 29.5508 10.5049 27.701 10.5049ZM27.701 15.9429C26.542 15.9429 25.6283 15.0069 25.6283 13.8702C25.6283 12.7113 26.5643 11.7975 27.701 11.7975C28.8376 11.7975 29.7736 12.7336 29.7736 13.8702C29.7959 15.0069 28.8599 15.9429 27.701 15.9429Z" fill="#023047"/>
</svg>
