<svg width="51" height="51" viewBox="0 0 51 51" fill="none" xmlns="http://www.w3.org/2000/svg">
<g clip-path="url(#clip0_102_1254)">
<path fill-rule="evenodd" clip-rule="evenodd" d="M24.812 9.4944C23.1202 9.75602 21.9213 10.3658 20.7027 11.5843C19.2258 13.0613 18.5691 14.635 18.5824 16.6664C18.591 17.9864 18.8218 18.9351 19.4088 20.0635C19.8474 20.9067 20.8148 22.0255 21.5398 22.5279C21.757 22.6784 21.9001 22.833 21.8578 22.8714C21.8155 22.9097 21.5287 23.0336 21.2204 23.1467C20.1525 23.5384 18.9357 24.226 17.7674 25.0979L17.4649 25.3237L16.8056 24.8246C16.4429 24.5501 15.7091 24.1142 15.1749 23.856L14.2038 23.3865L14.6416 23.0277C15.2032 22.5675 15.9817 21.4033 16.2601 20.6076C16.5563 19.7604 16.6286 18.3549 16.4212 17.4727C15.8212 14.9206 13.4315 13.0077 10.8434 13.0077C7.63936 13.0077 4.93906 15.8841 5.16328 19.0582C5.26738 20.5315 5.74902 21.6112 6.79228 22.7094L7.47207 23.4251L6.83975 23.6938C5.23242 24.377 3.51104 25.8394 2.49004 27.3892C1.44756 28.9716 0.951758 30.5013 0.861621 32.4134L0.805176 33.6097H6.8627H12.9202L12.8698 34.8549C12.8387 35.6227 12.8648 36.3694 12.938 36.803C13.2525 38.6671 14.6992 40.332 16.5492 40.9591C17.19 41.1762 17.2037 41.1766 25.4562 41.2054C34.3493 41.2364 34.4293 41.2326 35.5962 40.7306C36.6062 40.2961 37.6998 39.2488 38.188 38.2484C38.6345 37.3335 38.7479 36.639 38.7094 35.0575L38.6741 33.6112L44.7782 33.586L50.8824 33.5609L50.9075 32.5843C50.9248 31.9128 50.9024 31.6535 50.8358 31.7543C50.7605 31.868 50.7385 31.8352 50.7367 31.6078C50.7331 31.1139 50.3777 29.7953 50.0198 28.9468C49.0763 26.7106 46.9439 24.5584 44.8165 23.6951L44.1441 23.4222L44.8395 22.7203C47.0857 20.4526 47.0811 16.9646 44.8287 14.7123C42.9979 12.8814 40.4533 12.5161 38.0385 13.7373C37.2751 14.1232 36.0998 15.3333 35.715 16.1293C34.6062 18.4228 35.0411 21.0662 36.814 22.8088L37.4132 23.3977L36.3842 23.9112C35.8182 24.1935 35.1399 24.5906 34.8769 24.7935C34.6139 24.9965 34.3408 25.2051 34.2701 25.2574C34.1801 25.3238 34.0596 25.288 33.8693 25.1383C32.8861 24.3644 31.4432 23.548 30.3491 23.1467C29.6187 22.8787 29.5801 22.8329 29.9058 22.6205C30.389 22.3052 31.315 21.3698 31.6912 20.8168C32.6225 19.4477 32.9791 18.301 32.9821 16.6664C32.9858 14.6031 32.3444 13.0619 30.8668 11.5843C30.1902 10.9078 29.7966 10.6048 29.1819 10.2873C27.8471 9.59802 26.1423 9.28864 24.812 9.4944ZM24.4274 11.2068C23.4262 11.4491 22.6285 11.9096 21.823 12.7103C20.6889 13.838 20.1695 15.0805 20.1695 16.6664C20.1695 18.2435 20.6869 19.4752 21.8303 20.62C24.2769 23.0696 28.1176 22.796 30.2586 20.0195C30.7672 19.3599 31.0726 18.6836 31.2592 17.803C31.7875 15.3105 30.5309 12.7374 28.2546 11.6506C27.8093 11.438 27.212 11.2162 26.9274 11.1576C26.2327 11.0147 25.1318 11.0364 24.4274 11.2068ZM9.61348 14.8074C7.60254 15.5477 6.48389 17.3508 6.79561 19.3492C7.30977 22.6454 11.3485 23.9644 13.7066 21.6063C14.521 20.792 14.8939 19.8843 14.8939 18.7172C14.8939 16.8709 13.7556 15.3429 11.978 14.8034C11.4162 14.633 10.0813 14.6352 9.61348 14.8074ZM39.3751 14.9034C37.8803 15.518 37.0023 16.6079 36.769 18.1385C36.5768 19.4002 36.9604 20.6045 37.8567 21.5521C39.6339 23.4311 42.7467 23.1548 44.1926 20.9895C45.7195 18.7028 44.6023 15.6058 41.9613 14.8043C41.2275 14.5816 40.0478 14.6268 39.3751 14.9034ZM23.8255 24.0892C22.6872 24.2977 21.7881 24.605 20.6815 25.1636C19.3751 25.8232 18.5705 26.4281 17.5213 27.5394C15.7155 29.452 14.7322 31.7032 14.4958 34.4659C14.2803 36.984 14.8882 38.3839 16.5541 39.2058L17.1867 39.5179L25.4408 39.5484C34.0795 39.5802 34.3321 39.57 35.1489 39.1557C35.713 38.8695 36.4552 38.0762 36.7527 37.4414C36.9901 36.9347 37.0183 36.7541 37.0469 35.55C37.0974 33.4204 36.7522 31.8842 35.8104 30.0471C34.2091 26.9234 31.1815 24.7019 27.6891 24.088C26.6939 23.9131 24.7841 23.9136 23.8255 24.0892ZM9.67148 24.5318C6.69434 24.9944 4.2542 26.8743 3.08486 29.6058C2.82744 30.2074 2.49795 31.3944 2.49541 31.7299L2.49375 31.9496H7.85264H13.2114L13.5253 31.0508C14.0162 29.645 14.7787 28.2621 15.6683 27.1644C15.8641 26.9227 16.0781 26.6545 16.1439 26.5683C16.2463 26.4342 16.1798 26.3529 15.6838 26.005C13.9899 24.8168 11.6023 24.2318 9.67148 24.5318ZM39.6031 24.5382C38.8055 24.66 37.3834 25.1324 36.7865 25.4737C36.128 25.8501 35.4039 26.3847 35.4039 26.4944C35.4039 26.5464 35.6368 26.8832 35.9214 27.2428C36.8455 28.4108 37.574 29.741 38.0443 31.1195L38.3108 31.9008L43.7435 31.9259L49.176 31.9512L49.115 31.5353C49.0203 30.8889 48.5108 29.4228 48.1737 28.8266C47.0077 26.764 45.1079 25.2915 42.8806 24.7239C41.9539 24.4877 40.4795 24.4041 39.6031 24.5382ZM0.869238 32.682C0.869531 33.2191 0.885938 33.4263 0.905664 33.1425C0.925488 32.8589 0.925293 32.4194 0.905273 32.166C0.885156 31.9127 0.869043 32.1449 0.869238 32.682Z" fill="white"/>
</g>
<defs>
<clipPath id="clip0_102_1254">
<rect width="50" height="50" fill="white" transform="translate(0.833496 0.308594)"/>
</clipPath>
</defs>
</svg>
