<svg width="38" height="38" viewBox="0 0 38 38" fill="none" xmlns="http://www.w3.org/2000/svg">
<path fill-rule="evenodd" clip-rule="evenodd" d="M17.3641 2.30608C17.2642 2.32366 16.9864 2.37197 16.7467 2.41351C13.6188 2.95531 10.7481 5.11807 9.28087 8.03828C8.50395 9.58457 8.19009 10.9013 8.18144 12.6507C8.1752 13.9202 8.24144 14.3801 8.61785 15.6816C9.57011 18.9745 12.3595 23.7259 16.2483 28.6793C17.8652 30.7388 18.0183 30.8818 18.6063 30.8822C19.1842 30.8828 19.3968 30.6763 21.1866 28.3766C23.0755 25.9495 24.9476 23.1935 26.1707 21.0395C27.5712 18.573 28.3665 16.6911 28.8137 14.785C28.9943 14.0153 29.016 13.7881 29.0139 12.687C29.0121 11.6982 28.9801 11.3048 28.8531 10.7122C28.1589 7.47281 26.0964 4.78067 23.1945 3.32605C21.7413 2.59757 20.6335 2.33586 18.8532 2.30027C18.1341 2.28596 17.464 2.28851 17.3641 2.30608ZM17.1705 4.69561C14.1697 5.2401 11.6583 7.52046 10.8008 10.4793C10.1383 12.7653 10.4713 14.8056 12.0265 17.9895C13.1742 20.3389 15.0924 23.3349 17.3217 26.2593C17.8044 26.8927 18.2811 27.521 18.381 27.6557C18.4809 27.7905 18.579 27.8997 18.5989 27.8984C18.6189 27.8972 18.7518 27.7427 18.8943 27.5553C19.0368 27.3678 19.5138 26.7404 19.9543 26.1611C22.1312 23.2984 24.2772 19.9174 25.3026 17.7353C26.4778 15.234 26.8769 13.4964 26.6642 11.8067C26.2092 8.19177 23.507 5.30794 20.0021 4.6967C19.2532 4.5661 17.8871 4.56559 17.1705 4.69561ZM17.5329 8.5824C16.9138 8.74468 16.6792 8.85799 16.072 9.28785C15.0225 10.031 14.3638 11.3231 14.3575 12.6507C14.3519 13.847 14.7526 14.8335 15.5835 15.6688C17.2814 17.3756 19.9164 17.3756 21.6144 15.6688C22.4453 14.8335 22.846 13.847 22.8403 12.6507C22.8275 9.91471 20.1831 7.88778 17.5329 8.5824ZM18.09 10.8256C16.7282 11.2725 16.2491 12.7997 17.1146 13.9345C17.5266 14.4747 18.4264 14.7436 19.1588 14.5454C20.1563 14.2755 20.7674 13.0608 20.4198 12.0394C20.2981 11.6819 19.8215 11.1591 19.4396 10.9643C19.1232 10.8028 18.3892 10.7275 18.09 10.8256ZM9.95516 25.1868C8.23505 25.7818 6.80636 26.6056 6.03568 27.4466C4.77224 28.8255 4.72641 30.4637 5.91089 31.9104C7.17455 33.4539 10.3445 34.717 14.3497 35.2733C16.9873 35.6395 20.4035 35.6243 23.1387 35.2342C28.3607 34.4894 31.6736 32.6315 32.1155 30.2001C32.3456 28.9333 31.5769 27.5334 30.1181 26.5628C28.926 25.7695 26.7147 24.8689 26.1975 24.9659C25.3962 25.1163 24.9816 25.9144 25.3268 26.6419C25.4878 26.9812 25.7101 27.1214 26.5163 27.3918C28.1086 27.9261 29.4874 28.798 29.7407 29.431C29.9149 29.8664 29.8098 30.121 29.2328 30.6608C27.9447 31.8657 24.8321 32.8116 21.1049 33.1308C19.9834 33.2268 17.2145 33.2268 16.093 33.1308C12.3658 32.8116 9.2532 31.8657 7.96506 30.6608C7.38811 30.121 7.28293 29.8664 7.45718 29.431C7.71105 28.7966 9.08279 27.9311 10.6702 27.4037C11.461 27.1409 11.7088 26.9838 11.8711 26.6419C12.1339 26.088 11.9459 25.425 11.444 25.1355C11.0271 24.895 10.7734 24.9038 9.95516 25.1868Z" fill="white"/>
</svg>
