<svg width="51" height="51" viewBox="0 0 51 51" fill="none" xmlns="http://www.w3.org/2000/svg">
<g clip-path="url(#clip0_102_1247)">
<path d="M42.6772 15.7521C42.3473 15.2925 42.0837 14.7887 41.8942 14.2555C41.7846 13.6755 41.7575 13.0829 41.8138 12.4954C41.9511 11.4706 41.7944 10.428 41.3618 9.48898C40.759 8.63727 39.9259 7.97509 38.9602 7.58008C38.4313 7.34059 37.9392 7.02716 37.4985 6.64918C37.1208 6.20828 36.8074 5.71615 36.5676 5.18741C36.1727 4.22139 35.5105 3.38801 34.6587 2.78501C33.72 2.35344 32.6781 2.19698 31.654 2.3338C31.0662 2.39014 30.4733 2.36307 29.893 2.25338C29.3596 2.06426 28.8554 1.80082 28.3956 1.47084C27.5589 0.822206 26.5534 0.427605 25.4989 0.333984C24.4443 0.42743 23.4387 0.821918 22.6018 1.4705C22.1421 1.8003 21.6383 2.06373 21.1052 2.25304C20.5251 2.36186 19.9326 2.38893 19.345 2.33346C18.3203 2.19645 17.2778 2.35321 16.3387 2.78551C15.4871 3.38839 14.825 4.2216 14.4302 5.18741C14.1907 5.71628 13.8773 6.20843 13.4993 6.6491C13.0584 7.02684 12.5662 7.34027 12.0375 7.58008C11.0715 7.975 10.2381 8.63719 9.6351 9.48898C9.20359 10.4277 9.04714 11.4696 9.18389 12.4937C9.24026 13.0815 9.21319 13.6744 9.10347 14.2547C8.91423 14.7882 8.65064 15.2923 8.32052 15.7521C7.67204 16.5889 7.27758 17.5943 7.18408 18.6488C7.27753 19.7034 7.67202 20.709 8.3206 21.5459C8.65054 22.0055 8.91412 22.5094 9.10356 23.0425C9.21322 23.6225 9.2403 24.2151 9.18398 24.8027C9.04667 25.8274 9.20344 26.87 9.63602 27.809C10.2388 28.6607 11.0718 29.3229 12.0376 29.7179C12.5665 29.9574 13.0586 30.2709 13.4993 30.6488C13.877 31.0896 14.1904 31.5816 14.4302 32.1102C14.665 32.5854 14.9354 33.0422 15.2389 33.4768L10.5644 46.3195C10.5108 46.4669 10.5 46.6264 10.5331 46.7796C10.5662 46.9329 10.6419 47.0737 10.7515 47.1858C10.8611 47.298 11.0001 47.3769 11.1526 47.4134C11.3051 47.45 11.4648 47.4428 11.6134 47.3926L16.0319 45.9L18.4579 49.8844C18.5322 50.0064 18.6367 50.1073 18.7613 50.1773C18.8858 50.2472 19.0263 50.284 19.1692 50.284C19.196 50.284 19.2237 50.2823 19.2513 50.2799C19.4074 50.2645 19.5559 50.2052 19.6798 50.109C19.8036 50.0128 19.8977 49.8835 19.9513 49.736L24.6437 36.8457C25.203 37.0036 25.7951 37.0036 26.3545 36.8457L31.0469 49.736C31.1004 49.8835 31.1945 50.0128 31.3184 50.109C31.4422 50.2052 31.5907 50.2645 31.7468 50.2799C31.7745 50.2823 31.8021 50.284 31.8289 50.284C31.9718 50.284 32.1123 50.2472 32.2369 50.1773C32.3615 50.1073 32.4659 50.0064 32.5403 49.8844L34.9662 45.9L39.3849 47.3925C39.5334 47.4427 39.6931 47.4499 39.8456 47.4133C39.9981 47.3768 40.1371 47.2979 40.2467 47.1857C40.3563 47.0736 40.432 46.9328 40.4651 46.7795C40.4982 46.6263 40.4874 46.4668 40.4338 46.3194L35.759 33.4761C36.0623 33.0416 36.3326 32.585 36.5676 32.1101C36.8071 31.5812 37.1205 31.0891 37.4985 30.6484C37.9394 30.2707 38.4316 29.9573 38.9603 29.7175C39.9263 29.3226 40.7597 28.6604 41.3627 27.8086C41.7942 26.8699 41.9507 25.828 41.8139 24.8039C41.7575 24.2161 41.7846 23.6232 41.8943 23.0429C42.0836 22.5094 42.3472 22.0053 42.6773 21.5455C43.3258 20.7087 43.7202 19.7033 43.8137 18.6488C43.7202 17.5943 43.3257 16.5889 42.6772 15.7521ZM18.9796 47.5388L17.1081 44.465C17.0097 44.3035 16.8592 44.1803 16.6815 44.1157C16.5037 44.0512 16.3092 44.049 16.1301 44.1097L12.7213 45.2609L16.5886 34.6352C17.4688 34.9587 18.4126 35.0712 19.3441 34.9637C19.932 34.9078 20.5248 34.9349 21.1051 35.0441C21.6386 35.2334 22.1427 35.497 22.6026 35.8271C22.7715 35.9346 22.9463 36.0444 23.1248 36.1518L18.9796 47.5388ZM34.8677 44.1097C34.6886 44.049 34.4941 44.0512 34.3163 44.1157C34.1386 44.1803 33.9881 44.3035 33.8897 44.465L32.0182 47.5388L27.8733 36.1522C28.0518 36.044 28.2266 35.9346 28.3956 35.8271C28.8552 35.4972 29.359 35.2336 29.8922 35.0441C30.4722 34.9349 31.0648 34.9078 31.6523 34.9637C32.5844 35.0717 33.5288 34.9589 34.4092 34.6345L38.2765 45.2609L34.8677 44.1097ZM41.2724 20.6512C40.8461 21.2513 40.5136 21.9128 40.2862 22.6129C40.1273 23.3543 40.0813 24.1154 40.1496 24.8705C40.2548 25.5801 40.1761 26.3049 39.9212 26.9754C39.4631 27.5398 38.8668 27.9761 38.1903 28.2419C37.5085 28.5544 36.8783 28.9689 36.3213 29.4712C35.8185 30.0279 35.4037 30.6582 35.0913 31.3402C34.8254 32.0167 34.3891 32.613 33.8246 33.0711C33.154 33.3254 32.4295 33.404 31.7199 33.2995C30.9647 33.2316 30.2036 33.2777 29.4621 33.4361C28.7624 33.6637 28.1012 33.9962 27.5013 34.4223C26.9222 34.8849 26.2316 35.1871 25.4989 35.2986C24.7662 35.1871 24.0756 34.8849 23.4965 34.4223C22.8964 33.996 22.2349 33.6635 21.5348 33.4361C21.0677 33.3212 20.5874 33.268 20.1064 33.2779C19.8284 33.2779 19.5512 33.2892 19.2772 33.2998C18.5676 33.4046 17.8429 33.326 17.1723 33.0714C16.6079 32.6133 16.1716 32.0171 15.9058 31.3406C15.5933 30.6586 15.1788 30.0283 14.6765 29.4712C14.1198 28.9684 13.4895 28.5536 12.8075 28.2412C12.131 27.9753 11.5347 27.539 11.0766 26.9746C10.8217 26.304 10.7431 25.5793 10.8482 24.8698C10.9165 24.1146 10.8705 23.3535 10.7116 22.612C10.484 21.9123 10.1515 21.2511 9.72543 20.6512C9.26284 20.0721 8.96062 19.3815 8.84907 18.6488C8.96062 17.9161 9.26284 17.2255 9.72543 16.6464C10.1517 16.0463 10.4842 15.3848 10.7116 14.6847C10.8705 13.9433 10.9165 13.1822 10.8482 12.4271C10.743 11.7175 10.8217 10.9927 11.0766 10.3222C11.5347 9.75783 12.131 9.32151 12.8075 9.05567C13.4893 8.74321 14.1195 8.3287 14.6765 7.82641C15.1793 7.2697 15.5941 6.63942 15.9065 5.95738C16.1724 5.28085 16.6087 4.6846 17.1732 4.22655C17.8437 3.97178 18.5683 3.89313 19.2779 3.99811C20.0331 4.06598 20.7942 4.01992 21.5357 3.8615C22.2354 3.63393 22.8966 3.30142 23.4965 2.87533C24.0756 2.41274 24.7662 2.11052 25.4989 1.99897C26.2316 2.11052 26.9222 2.41274 27.5013 2.87533C28.1014 3.30159 28.7629 3.63412 29.463 3.8615C30.2044 4.01992 30.9655 4.06598 31.7206 3.99811C32.4302 3.89296 33.1549 3.97161 33.8255 4.22655C34.3899 4.6846 34.8262 5.28086 35.092 5.95738C35.4045 6.6392 35.819 7.26944 36.3213 7.82641C36.878 8.32923 37.5083 8.74402 38.1903 9.05642C38.8668 9.32229 39.4631 9.75863 39.9212 10.3231C40.1761 10.9936 40.2547 11.7183 40.1496 12.4278C40.0813 13.183 40.1273 13.9441 40.2862 14.6856C40.5138 15.3853 40.8463 16.0465 41.2724 16.6464C41.735 17.2255 42.0372 17.9161 42.1487 18.6488C42.0372 19.3815 41.735 20.0721 41.2724 20.6512Z" fill="white"/>
<path d="M25.4991 5.3291C22.8647 5.3291 20.2894 6.1103 18.099 7.5739C15.9085 9.03751 14.2013 11.1178 13.1931 13.5517C12.185 15.9856 11.9212 18.6637 12.4351 21.2475C12.9491 23.8313 14.2177 26.2047 16.0805 28.0675C17.9433 29.9304 20.3167 31.1989 22.9005 31.7129C25.4843 32.2268 28.1625 31.9631 30.5964 30.9549C33.0303 29.9468 35.1105 28.2395 36.5741 26.0491C38.0377 23.8586 38.8189 21.2834 38.8189 18.649C38.8149 15.1176 37.4103 11.7319 34.9132 9.23485C32.4161 6.73777 29.0305 5.33313 25.4991 5.3291ZM25.4991 30.3039C23.194 30.3039 20.9406 29.6203 19.024 28.3397C17.1073 27.059 15.6135 25.2388 14.7314 23.1091C13.8492 20.9794 13.6184 18.636 14.0681 16.3752C14.5178 14.1144 15.6279 12.0377 17.2578 10.4077C18.8878 8.77776 20.9645 7.66774 23.2253 7.21803C25.4861 6.76832 27.8296 6.99913 29.9592 7.88126C32.0889 8.76339 33.9091 10.2572 35.1898 12.1739C36.4704 14.0905 37.154 16.3439 37.154 18.649C37.1505 21.739 35.9214 24.7014 33.7365 26.8864C31.5515 29.0713 28.5891 30.3004 25.4991 30.3039Z" fill="white"/>
<path d="M28.4859 14.4949L26.2453 9.95526C26.1689 9.82526 26.0598 9.71748 25.9289 9.6426C25.798 9.56771 25.6498 9.52832 25.499 9.52832C25.3482 9.52832 25.2 9.56771 25.0691 9.6426C24.9382 9.71748 24.8291 9.82526 24.7527 9.95526L22.5121 14.4949L17.5018 15.2234C17.3481 15.2457 17.2038 15.3106 17.085 15.4106C16.9663 15.5107 16.8779 15.642 16.8299 15.7896C16.7819 15.9373 16.7761 16.0954 16.8132 16.2462C16.8503 16.397 16.9289 16.5344 17.04 16.6428L20.6658 20.1768L19.8098 25.1678C19.7836 25.3209 19.8007 25.4783 19.8593 25.6221C19.9179 25.766 20.0155 25.8906 20.1412 25.9819C20.2669 26.0731 20.4156 26.1274 20.5705 26.1386C20.7254 26.1497 20.8804 26.1173 21.0179 26.045L25.499 23.689L29.9801 26.0449C30.1176 26.1172 30.2726 26.1496 30.4275 26.1385C30.5824 26.1273 30.7311 26.073 30.8568 25.9818C30.9825 25.8905 31.0802 25.7659 31.1387 25.6221C31.1973 25.4782 31.2144 25.3208 31.1883 25.1677L30.3322 20.1768L33.958 16.6428C34.0691 16.5343 34.1477 16.3969 34.1848 16.2461C34.2219 16.0954 34.2161 15.9372 34.1681 15.7896C34.1201 15.6419 34.0317 15.5106 33.913 15.4106C33.7943 15.3105 33.6499 15.2456 33.4963 15.2233L28.4859 14.4949ZM28.8566 19.2907C28.7601 19.385 28.6879 19.5012 28.6463 19.6295C28.6046 19.7578 28.5948 19.8943 28.6176 20.0272L29.2623 23.7865L25.8868 22.0117C25.7672 21.9488 25.6341 21.9158 25.499 21.9158C25.3639 21.9158 25.2308 21.9488 25.1112 22.0117L21.7361 23.7865L22.3808 20.0272C22.4036 19.8943 22.3938 19.7578 22.3522 19.6295C22.3105 19.5012 22.2383 19.385 22.1418 19.2907L19.4102 16.6282L23.1848 16.0795C23.3184 16.0602 23.4453 16.0087 23.5546 15.9293C23.6638 15.85 23.752 15.7453 23.8117 15.6242L25.499 12.205L27.1867 15.6244C27.2464 15.7454 27.3346 15.8502 27.4439 15.9295C27.5531 16.0088 27.68 16.0604 27.8136 16.0797L31.5883 16.6284L28.8566 19.2907Z" fill="white"/>
</g>
<defs>
<clipPath id="clip0_102_1247">
<rect width="50" height="50" fill="white" transform="translate(0.499023 0.308594)"/>
</clipPath>
</defs>
</svg>
