<svg width="51" height="51" viewBox="0 0 51 51" fill="none" xmlns="http://www.w3.org/2000/svg">
<path d="M28.8293 45.8744L19.9048 38.8179C18.8753 38.0049 18.277 36.7895 18.2632 35.4838C18.202 29.6551 17.332 18.9839 15.9816 11.2152C15.9144 10.8293 15.5471 10.57 15.1609 10.6377C14.7747 10.7048 14.5162 11.0722 14.5833 11.4583C15.9215 19.1562 16.7837 29.7266 16.844 35.4989C16.8625 37.236 17.6576 38.8518 19.0249 39.9317L27.9502 46.9887C28.1509 47.1469 28.2354 47.4087 28.1651 47.6559C28.0884 47.9262 27.8393 48.115 27.5595 48.115C27.4866 48.115 27.4155 48.1027 27.3467 48.0781C25.3821 47.378 21.7208 46.0982 19.2717 45.3926C17.7161 44.9437 16.4173 44.8227 15.1612 44.7054C14.3031 44.6254 13.4925 44.5498 12.6308 44.3732C11.9791 44.2397 11.6642 43.6641 11.5148 43.2047C11.1623 42.121 11.3396 40.3447 12.5616 39.0058C12.6555 38.903 12.717 38.7748 12.7386 38.6372C12.9587 37.2312 11.6503 29.6937 9.77194 26.3288C6.62942 20.6968 5.94099 17.12 7.31652 13.572C7.43036 13.2782 7.33705 12.9448 7.08723 12.7528C6.83732 12.5609 6.49116 12.5567 6.23661 12.7422C5.52434 13.2617 3.18303 15.0031 1.39445 16.3366C1.08019 16.5709 1.01537 17.0155 1.24967 17.3297C1.48397 17.6439 1.92835 17.7089 2.24271 17.4745C3.25164 16.7223 4.43639 15.8403 5.40378 15.1224C4.69038 18.98 6.1399 22.7326 8.5325 27.0206C10.2809 30.1523 11.3635 36.817 11.3479 38.2383C10.0746 39.761 9.59859 41.9016 10.1651 43.6437C10.5356 44.7827 11.3304 45.5554 12.3458 45.7635C13.2834 45.9556 14.1711 46.0384 15.0294 46.1184C16.22 46.2294 17.4511 46.3443 18.8785 46.7561C21.2911 47.4512 24.9212 48.7202 26.869 49.4143C27.0906 49.4937 27.3228 49.534 27.5594 49.534C28.4708 49.534 29.2813 48.921 29.5304 48.0435C29.7583 47.2408 29.4828 46.3891 28.8293 45.8744Z" fill="white"/>
<path d="M15.4352 8.37229C14.4434 3.73406 13.6157 2.62302 13.0792 2.19085C10.773 0.333858 6.82525 1.03572 1.60713 2.66059C1.23297 2.77727 1.02413 3.17499 1.14071 3.54925C1.2572 3.92341 1.65426 4.13198 2.02927 4.01568C6.169 2.72645 10.2652 1.74705 12.1889 3.29602C12.3901 3.45812 13.1184 4.32436 14.0475 8.66896C14.1188 9.00224 14.4132 9.23039 14.7407 9.23039C14.7899 9.23039 14.8398 9.22518 14.8898 9.21449C15.273 9.13264 15.5172 8.75554 15.4352 8.37229Z" fill="white"/>
<path d="M39.8611 19.8405L38.4968 16.092C38.3628 15.7237 37.9555 15.534 37.5872 15.6679C37.2189 15.802 37.0291 16.2092 37.1631 16.5775L38.5274 20.326C38.6324 20.6141 38.9045 20.793 39.1944 20.793C39.275 20.793 39.357 20.7792 39.437 20.7501C39.8053 20.616 39.9952 20.2088 39.8611 19.8405Z" fill="white"/>
<path d="M35.8963 19.8405L34.5319 16.092C34.3979 15.7237 33.9907 15.534 33.6224 15.6679C33.2541 15.802 33.0642 16.2092 33.1982 16.5775L34.5626 20.326C34.6675 20.6141 34.9396 20.793 35.2295 20.793C35.3102 20.793 35.3921 20.7792 35.4722 20.7501C35.8405 20.616 36.0304 20.2088 35.8963 19.8405Z" fill="white"/>
<path d="M48.5157 41.9345H48.2507C46.5841 41.9345 45.1052 40.8434 44.6049 39.2645C45.9574 38.6145 46.7532 37.0882 46.3978 35.5338L44.0012 25.0547C43.9024 24.6229 44.0258 24.1739 44.3312 23.8533L47.7133 20.3016C48.4337 19.545 48.467 18.3745 47.7905 17.579C43.911 13.0156 41.8473 11.6749 40.7993 11.3538C39.5672 10.9762 37.3831 10.9268 34.1229 11.2023C33.7323 11.2354 33.4426 11.5788 33.4755 11.9691C33.5087 12.3599 33.8515 12.6475 34.2424 12.6165C38.0211 12.2968 39.6676 12.4913 40.3834 12.7107C41.5735 13.0754 43.9382 15.2389 46.709 18.4983C46.9138 18.7391 46.9036 19.0935 46.6852 19.3229L43.303 22.8746C42.6685 23.5408 42.4122 24.4741 42.6173 25.3711L43.8082 30.5782C43.1547 32.375 42.1534 33.9207 40.9275 35.0394L39.7243 29.779C39.7243 29.7786 39.7243 29.7781 39.7242 29.7776L39.1429 27.2361L38.761 25.5668C38.5549 24.6656 37.7652 24.036 36.8405 24.036H26.17C25.808 24.036 25.5137 23.7416 25.5137 23.3797V21.7754V15.2961V14.3216C25.5137 13.9987 25.7445 13.7265 26.0624 13.6742C27.3417 13.4637 29.3161 13.1595 31.4576 12.9039C31.8467 12.8574 32.1245 12.5043 32.0782 12.1152C32.0317 11.726 31.6782 11.4481 31.2894 11.4946C29.1222 11.7531 27.1254 12.0609 25.832 12.2737C24.825 12.4393 24.0943 13.3006 24.0943 14.3215V14.5864H22.4105C21.6992 14.5864 21.1206 15.165 21.1206 15.8763V21.1952C21.1206 21.9065 21.6992 22.4851 22.4105 22.4851H24.0943V23.3797C24.0943 24.5242 25.0255 25.4553 26.1699 25.4553H36.8407C37.0993 25.4553 37.3199 25.6312 37.3776 25.8831L37.4694 26.2848H37.1532C35.9509 26.2848 34.9729 27.2629 34.9729 28.465C34.9729 29.6672 35.951 30.6453 37.1532 30.6453H38.4666C39.9955 37.3302 39.9465 37.2499 40.1636 37.7049C40.7119 38.859 41.9072 39.6206 43.2223 39.594C43.8771 41.812 45.931 43.3536 48.2505 43.3536H48.5155C48.9075 43.3536 49.2251 43.0359 49.2251 42.6439C49.2253 42.2521 48.9076 41.9345 48.5157 41.9345ZM24.0945 21.0659H22.54V16.0058H24.0945V21.0659ZM37.1534 29.2262C36.7338 29.2262 36.3924 28.8848 36.3924 28.4652C36.3924 28.0456 36.7338 27.7042 37.1534 27.7042H37.7941L37.8039 27.7468L38.1423 29.2262H37.1534ZM42.5633 38.0767C41.9538 37.8735 41.4603 37.3688 41.307 36.6981L41.2836 36.5959C42.4911 35.6567 43.5348 34.382 44.3352 32.8817L45.0142 35.8503C45.0284 35.9121 45.0394 35.9743 45.0473 36.0365C45.2246 37.4219 43.8867 38.5176 42.5633 38.0767Z" fill="white"/>
</svg>
