<svg width="56" height="56" viewBox="0 0 56 56" fill="none" xmlns="http://www.w3.org/2000/svg">
<path fill-rule="evenodd" clip-rule="evenodd" d="M41.4074 12.2664H41.4075C41.4791 12.2664 41.5508 12.2664 41.5985 12.2425C41.7657 12.1947 45.803 11.1675 48.3591 15.6586C48.4785 15.8736 48.7174 15.993 48.9563 15.993C49.0758 15.993 49.1713 15.9692 49.2907 15.8975C49.6252 15.7064 49.7207 15.3003 49.5535 14.9897C46.7346 10.0208 42.1719 10.7375 41.3835 10.9047C37.3567 10.7408 33.72 6.97474 33.5313 6.77937L33.5241 6.77193C33.2613 6.50915 32.8552 6.48527 32.5685 6.74805C32.3057 7.01083 32.2819 7.41694 32.5446 7.7036C32.688 7.89472 36.7013 12.123 41.4074 12.2664ZM7.03127 16.0165C6.91183 16.0165 6.79239 15.9687 6.69683 15.9209C6.38628 15.7298 6.26683 15.3237 6.45794 15.0132C9.27683 10.0443 13.8396 10.7609 14.6279 10.9282C18.6547 10.7643 22.2915 6.99823 22.4802 6.80281L22.4802 6.8028L22.4874 6.79537C22.7502 6.53259 23.1802 6.50871 23.443 6.77149C23.7057 7.03426 23.7296 7.46426 23.4668 7.72704C23.2996 7.91815 19.2863 12.1465 14.5802 12.2898H14.5801C14.5324 12.2898 14.4607 12.2898 14.3891 12.2659C14.2218 12.2182 10.1607 11.1909 7.6285 15.6821C7.48516 15.8971 7.27016 16.0165 7.03127 16.0165ZM27.4563 43.3937H28.5313C28.9135 43.3937 29.2002 43.6803 29.2002 44.0625C29.2002 44.4209 28.9135 44.7314 28.5313 44.7314H27.4563C27.098 44.7314 26.7874 44.4447 26.7874 44.0625C26.7874 43.7042 27.0741 43.3937 27.4563 43.3937ZM28.6507 27.1492C29.7019 27.9614 30.8485 28.5825 32.0669 28.9886C32.4252 29.0842 32.6163 29.4664 32.4969 29.8486C32.4013 30.1114 32.1385 30.3025 31.8519 30.3025H31.8518C31.7802 30.3025 31.7085 30.3025 31.6369 30.2786C30.3469 29.8486 29.1046 29.1798 27.9819 28.3198C26.8591 29.2036 25.6407 29.8486 24.3269 30.2786C24.2552 30.3025 24.1836 30.3025 24.1119 30.3025H24.1119C23.8252 30.3025 23.5624 30.1353 23.4669 29.8486C23.3474 29.4903 23.5385 29.1081 23.8969 28.9886C25.1152 28.6064 26.2619 27.9853 27.313 27.1492V19.3614C27.313 19.0031 27.5996 18.6925 27.9819 18.6925C28.3402 18.6925 28.6507 18.9792 28.6507 19.3614V27.1492ZM12.3346 22.2042C12.024 22.2758 11.809 22.5864 11.8329 22.897C11.8568 23.0881 12.0957 27.842 6.6729 31.712C6.36234 31.927 6.29068 32.357 6.52956 32.6436C6.74456 32.9542 7.17457 33.0259 7.46123 32.787C10.8535 30.3503 12.2629 27.5792 12.8123 25.5725C13.6962 28.2481 14.8907 32.8109 14.8907 37.8992V48.7208C14.8907 49.1031 15.2012 49.3898 15.5596 49.3898C15.9418 49.3898 16.2285 49.0792 16.2285 48.7208V37.8992C16.2285 29.8255 13.412 23.2389 13.1402 22.6033L13.1229 22.5625C12.9557 22.2997 12.6451 22.1325 12.3346 22.2042ZM44.1785 22.9208C44.1546 23.112 43.9157 27.842 49.3385 31.7359C49.6491 31.9509 49.7207 32.3809 49.4818 32.6914C49.2668 32.9781 48.8607 33.0497 48.5502 32.8347C45.158 30.3981 43.7724 27.627 43.1991 25.6203C42.3152 28.2959 41.1207 32.8586 41.1207 37.947V48.7687C41.1207 49.127 40.8102 49.4375 40.4518 49.4375C40.0935 49.4375 39.783 49.1509 39.783 48.7687V37.947C39.783 29.8733 42.5994 23.2867 42.8712 22.6511L42.8885 22.6103C43.0318 22.2998 43.3663 22.1564 43.6768 22.2281C43.9874 22.2998 44.2024 22.5864 44.1785 22.9208ZM24.4701 20.9378C24.4701 18.955 22.8695 17.3545 20.8867 17.3545C18.904 17.3545 17.3034 18.955 17.3034 20.9378C17.3034 22.6817 18.5456 24.1389 20.2179 24.4495V48.7684C20.2179 49.1506 20.5284 49.4373 20.8867 49.4373C21.269 49.4373 21.5556 49.1267 21.5556 48.7684V24.4495C23.204 24.1389 24.4701 22.6817 24.4701 20.9378ZM20.8867 23.1834C19.6445 23.1834 18.6651 22.18 18.6651 20.9617C18.6651 19.7195 19.6684 18.74 20.8867 18.74C22.1051 18.74 23.1084 19.7434 23.1084 20.9617C23.1084 22.18 22.1051 23.1834 20.8867 23.1834ZM31.5173 20.9378C31.5173 18.955 33.1178 17.3545 35.1006 17.3545C37.0834 17.3545 38.6839 18.9789 38.6839 20.9378C38.6839 22.6817 37.4178 24.1389 35.7695 24.4495V48.7684C35.7695 49.1267 35.4589 49.4373 35.1006 49.4373C34.7423 49.4373 34.4317 49.1506 34.4317 48.7684V24.4495C32.7595 24.1389 31.5173 22.6817 31.5173 20.9378ZM32.8789 20.9617C32.8789 22.18 33.8584 23.1834 35.1006 23.1834C36.3428 23.1834 37.3462 22.18 37.3223 20.9617C37.3223 19.7434 36.3189 18.74 35.1006 18.74C33.8823 18.74 32.8789 19.7195 32.8789 20.9617Z" fill="white"/>
<path d="M41.4074 12.2664L41.3922 12.7661L41.3998 12.7664H41.4074V12.2664ZM41.5985 12.2425L41.4612 11.7617L41.4165 11.7745L41.3749 11.7953L41.5985 12.2425ZM48.3591 15.6586L48.7962 15.4158L48.7936 15.4113L48.3591 15.6586ZM49.2907 15.8975L49.0426 15.4633L49.0335 15.4688L49.2907 15.8975ZM49.5535 14.9897L49.9939 14.7526L49.9884 14.743L49.5535 14.9897ZM41.3835 10.9047L41.3632 11.4043L41.4259 11.4069L41.4873 11.3938L41.3835 10.9047ZM33.5313 6.77937L33.891 6.43204L33.8902 6.43127L33.5313 6.77937ZM33.5241 6.77193L33.883 6.42379L33.8776 6.41838L33.5241 6.77193ZM32.5685 6.74805L32.2307 6.37947L32.2226 6.38681L32.215 6.3945L32.5685 6.74805ZM32.5446 7.7036L32.9446 7.4036L32.9298 7.3839L32.9132 7.36574L32.5446 7.7036ZM6.69683 15.9209L6.43478 16.3468L6.45353 16.3583L6.47323 16.3682L6.69683 15.9209ZM6.45794 15.0132L6.88377 15.2752L6.88844 15.2676L6.89283 15.2599L6.45794 15.0132ZM14.6279 10.9282L14.5242 11.4173L14.5856 11.4303L14.6483 11.4277L14.6279 10.9282ZM22.4802 6.80281L22.1762 6.40581L22.1465 6.42856L22.1205 6.45549L22.4802 6.80281ZM22.4802 6.8028L22.7841 7.19981L22.8134 7.17739L22.8391 7.15091L22.4802 6.8028ZM22.4874 6.79537L22.1338 6.44177L22.1285 6.44726L22.4874 6.79537ZM23.443 6.77149L23.0894 7.12504L23.443 6.77149ZM23.4668 7.72704L23.1133 7.37349L23.1015 7.38526L23.0905 7.39779L23.4668 7.72704ZM14.5802 12.2898V12.7898H14.5878L14.5954 12.7896L14.5802 12.2898ZM14.3891 12.2659L14.5472 11.7916L14.5369 11.7882L14.5264 11.7852L14.3891 12.2659ZM7.6285 15.6821L8.04452 15.9594L8.05487 15.9439L8.06404 15.9276L7.6285 15.6821ZM32.0669 28.9886L31.9087 29.463L31.9232 29.4678L31.938 29.4717L32.0669 28.9886ZM28.6507 27.1492H28.1507V27.3947L28.345 27.5448L28.6507 27.1492ZM32.4969 29.8486L32.9668 30.0195L32.9707 30.0087L32.9741 29.9978L32.4969 29.8486ZM31.6369 30.2786L31.4787 30.753L31.4788 30.753L31.6369 30.2786ZM27.9819 28.3198L28.2859 27.9228L27.9777 27.6867L27.6726 27.9269L27.9819 28.3198ZM24.3269 30.2786L24.1713 29.8034L24.1687 29.8043L24.3269 30.2786ZM23.4669 29.8486L23.9412 29.6905L23.9412 29.6905L23.4669 29.8486ZM23.8969 28.9886L23.7472 28.5115L23.7387 28.5143L23.8969 28.9886ZM27.313 27.1492L27.6242 27.5405L27.813 27.3904V27.1492H27.313ZM11.8329 22.897L11.3344 22.9353L11.3353 22.9472L11.3368 22.959L11.8329 22.897ZM6.6729 31.712L6.95753 32.1231L6.96335 32.119L6.6729 31.712ZM6.52956 32.6436L6.94066 32.359L6.92796 32.3407L6.91367 32.3235L6.52956 32.6436ZM7.46123 32.787L7.16953 32.3809L7.15494 32.3914L7.14114 32.4029L7.46123 32.787ZM12.8123 25.5725L13.2871 25.4157L12.7675 23.8429L12.3301 25.4405L12.8123 25.5725ZM13.1402 22.6033L12.6801 22.799L12.6805 22.7998L13.1402 22.6033ZM13.1229 22.5625L13.583 22.3668L13.5669 22.3288L13.5447 22.2941L13.1229 22.5625ZM49.3385 31.7359L49.0468 32.1421L49.0539 32.147L49.3385 31.7359ZM44.1785 22.9208L44.6747 22.9829L44.6763 22.9697L44.6772 22.9565L44.1785 22.9208ZM49.4818 32.6914L49.0855 32.3865L49.0818 32.3914L49.4818 32.6914ZM48.5502 32.8347L48.2584 33.2409L48.2656 33.2458L48.5502 32.8347ZM43.1991 25.6203L43.6798 25.4829L43.2337 23.9215L42.7243 25.4635L43.1991 25.6203ZM42.8712 22.6511L43.3309 22.8477L43.3313 22.8468L42.8712 22.6511ZM42.8885 22.6103L42.4345 22.4008L42.4314 22.4076L42.4284 22.4146L42.8885 22.6103ZM43.6768 22.2281L43.5644 22.7153L43.6768 22.2281ZM20.2179 24.4495H20.7179V24.0338L20.3092 23.9579L20.2179 24.4495ZM21.5556 24.4495L21.4631 23.9581L21.0556 24.0349V24.4495H21.5556ZM35.7695 24.4495L35.6769 23.9581L35.2695 24.0349V24.4495H35.7695ZM34.4317 24.4495H34.9317V24.0338L34.523 23.9579L34.4317 24.4495ZM37.3223 20.9617H36.8222L36.8224 20.9715L37.3223 20.9617ZM41.4075 11.7664H41.4074V12.7664H41.4075V11.7664ZM41.3749 11.7953C41.4068 11.7793 41.4327 11.7722 41.4462 11.7691C41.4598 11.766 41.4677 11.7654 41.4667 11.7654C41.4659 11.7655 41.4612 11.7659 41.4502 11.7661C41.4389 11.7664 41.4263 11.7664 41.4075 11.7664V12.7664C41.4381 12.7664 41.4976 12.7668 41.5572 12.7613C41.6136 12.7562 41.716 12.7428 41.8221 12.6897L41.3749 11.7953ZM48.7936 15.4113C47.442 13.0364 45.6712 12.0878 44.191 11.7603C42.7332 11.4378 41.5931 11.724 41.4612 11.7617L41.7359 12.7233C41.7352 12.7235 41.7393 12.7223 41.7485 12.7199C41.7574 12.7177 41.7699 12.7146 41.7859 12.7109C41.8181 12.7036 41.8637 12.6938 41.9216 12.6833C42.0375 12.6622 42.2014 12.6382 42.403 12.6232C42.807 12.5931 43.3571 12.6 43.975 12.7367C45.1942 13.0064 46.7201 13.7897 47.9245 15.9059L48.7936 15.4113ZM48.9563 15.493C48.8715 15.493 48.8148 15.4494 48.7962 15.4158L47.922 15.9014C48.1422 16.2978 48.5633 16.493 48.9563 16.493V15.493ZM49.0335 15.4688C49.004 15.4865 48.9917 15.4898 48.9897 15.4904C48.9884 15.4907 48.9811 15.493 48.9563 15.493V16.493C49.1668 16.493 49.3512 16.4443 49.548 16.3263L49.0335 15.4688ZM49.1133 15.2268C49.1575 15.3089 49.1315 15.4126 49.0427 15.4634L49.5388 16.3316C50.1189 16.0002 50.284 15.2916 49.9938 14.7527L49.1133 15.2268ZM41.4873 11.3938C41.8396 11.3191 43.0915 11.111 44.5792 11.5046C46.0493 11.8934 47.7798 12.8764 49.1186 15.2364L49.9884 14.743C48.5084 12.1342 46.548 10.991 44.8349 10.5378C43.1395 10.0893 41.7158 10.3231 41.2798 10.4156L41.4873 11.3938ZM33.1716 7.12669C33.2762 7.23497 34.2592 8.25228 35.735 9.266C37.2014 10.2732 39.2113 11.3167 41.3632 11.4043L41.4039 10.4051C39.5289 10.3288 37.707 9.40735 36.3012 8.44171C34.9048 7.48256 33.9751 6.51914 33.891 6.43204L33.1716 7.12669ZM33.1652 7.12003L33.1724 7.12747L33.8902 6.43127L33.883 6.42383L33.1652 7.12003ZM32.9064 7.11663C32.954 7.07295 32.9999 7.06127 33.0377 7.0626C33.0777 7.064 33.1259 7.08084 33.1705 7.12548L33.8776 6.41838C33.4343 5.97508 32.7237 5.92754 32.2307 6.37947L32.9064 7.11663ZM32.9132 7.36574C32.8695 7.3181 32.8579 7.2722 32.8592 7.2344C32.8606 7.19448 32.8774 7.14625 32.9221 7.1016L32.215 6.3945C31.7717 6.83779 31.7241 7.54845 32.1761 8.04147L32.9132 7.36574ZM41.4226 11.7666C39.2069 11.6991 37.1216 10.6651 35.5469 9.58997C34.7645 9.0558 34.1202 8.51975 33.6637 8.10637C33.4356 7.89983 33.2554 7.72481 33.1292 7.59714C32.9916 7.45802 32.9385 7.39537 32.9446 7.4036L32.1446 8.0036C32.1866 8.05962 32.2902 8.17091 32.418 8.30016C32.5571 8.44087 32.7507 8.62866 32.9925 8.84764C33.4759 9.2853 34.1559 9.85113 34.983 10.4158C36.6274 11.5385 38.9018 12.6903 41.3922 12.7661L41.4226 11.7666ZM6.47323 16.3682C6.58574 16.4244 6.79147 16.5165 7.03127 16.5165V15.5165C7.03668 15.5165 7.02919 15.5173 7.00567 15.5099C6.98269 15.5026 6.95453 15.4908 6.92044 15.4737L6.47323 16.3682ZM6.03211 14.7511C5.68048 15.3225 5.91557 16.0273 6.43478 16.3468L6.95888 15.4951C6.91387 15.4674 6.88369 15.4244 6.87164 15.3803C6.86018 15.3383 6.86652 15.3032 6.88377 15.2752L6.03211 14.7511ZM14.7317 10.439C14.2957 10.3466 12.872 10.1127 11.1765 10.5612C9.46342 11.0144 7.50306 12.1576 6.02305 14.7664L6.89283 15.2599C8.23171 12.8998 9.96218 11.9169 11.4323 11.528C12.92 11.1344 14.1718 11.3425 14.5242 11.4173L14.7317 10.439ZM22.1205 6.45549C22.0364 6.5426 21.1066 7.50603 19.7102 8.46517C18.3044 9.4308 16.4825 10.3523 14.6076 10.4286L14.6483 11.4277C16.8001 11.3402 18.81 10.2967 20.2764 9.28946C21.7523 8.27575 22.7353 7.25844 22.8399 7.15013L22.1205 6.45549ZM22.1762 6.4058L22.1762 6.40581L22.7841 7.19981L22.7841 7.19981L22.1762 6.4058ZM22.1285 6.44726L22.1213 6.4547L22.8391 7.15091L22.8463 7.14347L22.1285 6.44726ZM23.7965 6.41793C23.3159 5.93732 22.5685 6.00714 22.1338 6.44181L22.8409 7.14892C22.8814 7.10852 22.9337 7.08772 22.9824 7.08605C23.0287 7.08445 23.0639 7.09957 23.0894 7.12504L23.7965 6.41793ZM23.8204 8.08059C24.301 7.59998 24.2312 6.85261 23.7965 6.41793L23.0894 7.12504C23.1298 7.16545 23.1506 7.21783 23.1523 7.26649C23.1539 7.31278 23.1388 7.34801 23.1133 7.37349L23.8204 8.08059ZM14.5954 12.7896C17.0858 12.7137 19.3601 11.562 21.0072 10.4395C22.6586 9.31413 23.7349 8.17997 23.8431 8.05629L23.0905 7.39779C23.0908 7.39755 23.0895 7.39899 23.0862 7.40258C23.0832 7.40595 23.079 7.4105 23.0736 7.41626C23.063 7.42777 23.0484 7.44323 23.03 7.46245C22.9932 7.50085 22.9421 7.55322 22.8774 7.61756C22.748 7.74623 22.5653 7.92183 22.3353 8.12862C21.8748 8.54258 21.228 9.07888 20.444 9.61317C18.8661 10.6885 16.7806 11.7226 14.5649 11.79L14.5954 12.7896ZM14.5801 12.7898H14.5802V11.7898H14.5801V12.7898ZM14.2309 12.7403C14.3888 12.7929 14.5363 12.7898 14.5801 12.7898V11.7898C14.5677 11.7898 14.5603 11.7898 14.553 11.7896C14.5462 11.7894 14.5418 11.7892 14.5388 11.7889C14.5322 11.7883 14.5364 11.788 14.5472 11.7916L14.2309 12.7403ZM8.06404 15.9276C9.2563 13.813 10.7813 13.03 12.0034 12.7602C12.6228 12.6234 13.1752 12.6166 13.5814 12.6466C13.784 12.6616 13.9488 12.6857 14.0654 12.7068C14.1236 12.7173 14.1695 12.7271 14.2018 12.7345C14.2352 12.7421 14.2519 12.7468 14.2517 12.7467L14.5264 11.7852C14.3941 11.7474 13.2483 11.4613 11.7879 11.7837C10.3046 12.1111 8.53291 13.06 7.19296 15.4365L8.06404 15.9276ZM7.03127 16.5165C7.45087 16.5165 7.81622 16.3019 8.04452 15.9594L7.21247 15.4047C7.1541 15.4923 7.08945 15.5165 7.03127 15.5165V16.5165ZM28.5313 42.8937H27.4563V43.8937H28.5313V42.8937ZM29.7002 44.0625C29.7002 43.4041 29.1896 42.8937 28.5313 42.8937V43.8937C28.594 43.8937 28.6328 43.9156 28.6555 43.9383C28.6782 43.961 28.7002 43.9998 28.7002 44.0625H29.7002ZM28.5313 45.2314C29.2012 45.2314 29.7002 44.6853 29.7002 44.0625H28.7002C28.7002 44.1564 28.6258 44.2314 28.5313 44.2314V45.2314ZM27.4563 45.2314H28.5313V44.2314H27.4563V45.2314ZM26.2874 44.0625C26.2874 44.7324 26.8335 45.2314 27.4563 45.2314V44.2314C27.3624 44.2314 27.2874 44.157 27.2874 44.0625H26.2874ZM27.4563 42.8937C26.7864 42.8937 26.2874 43.4397 26.2874 44.0625H27.2874C27.2874 43.9686 27.3618 43.8937 27.4563 43.8937V42.8937ZM32.225 28.5143C31.0629 28.1269 29.9657 27.5334 28.9565 26.7536L28.345 27.5448C29.438 28.3894 30.6341 29.0381 31.9087 29.463L32.225 28.5143ZM32.9741 29.9978C33.1667 29.3815 32.8654 28.6841 32.1957 28.5055L31.938 29.4717C31.972 29.4808 31.997 29.5011 32.0138 29.5347C32.0315 29.57 32.0422 29.6272 32.0196 29.6995L32.9741 29.9978ZM31.8519 30.8025C32.3542 30.8025 32.8012 30.4747 32.9668 30.0195L32.027 29.6778C32.0014 29.7481 31.9228 29.8025 31.8519 29.8025V30.8025ZM31.8518 30.8025H31.8519V29.8025H31.8518V30.8025ZM31.4788 30.753C31.6392 30.8065 31.7914 30.8025 31.8518 30.8025V29.8025C31.833 29.8025 31.8203 29.8025 31.8085 29.8023C31.7972 29.802 31.7903 29.8016 31.7859 29.8013C31.7775 29.8006 31.7829 29.8003 31.795 29.8043L31.4788 30.753ZM27.6778 28.7167C28.842 29.6084 30.1331 30.3044 31.4787 30.753L31.795 29.8043C30.5606 29.3928 29.3673 28.7511 28.2859 27.9228L27.6778 28.7167ZM24.4824 30.7538C25.8514 30.3058 27.1219 29.6331 28.2911 28.7126L27.6726 27.9269C26.5963 28.7742 25.4301 29.3915 24.1713 29.8034L24.4824 30.7538ZM24.1119 30.8025C24.1723 30.8025 24.3245 30.8065 24.485 30.753L24.1687 29.8043C24.1808 29.8003 24.1863 29.8006 24.1779 29.8013C24.1734 29.8016 24.1665 29.802 24.1552 29.8023C24.1434 29.8025 24.1307 29.8025 24.1119 29.8025V30.8025ZM24.1119 30.8025H24.1119V29.8025H24.1119V30.8025ZM22.9925 30.0067C23.1624 30.5163 23.6304 30.8025 24.1119 30.8025V29.8025C24.0654 29.8025 24.0272 29.789 24 29.7704C23.9745 29.753 23.9537 29.7279 23.9412 29.6905L22.9925 30.0067ZM23.7387 28.5143C23.1184 28.7211 22.7857 29.3864 22.9925 30.0067L23.9412 29.6905C23.9091 29.5942 23.9586 29.4951 24.055 29.463L23.7387 28.5143ZM27.0017 26.7579C25.9952 27.5585 24.9027 28.1491 23.7472 28.5116L24.0465 29.4657C25.3277 29.0638 26.5285 28.4121 27.6242 27.5405L27.0017 26.7579ZM26.813 19.3614V27.1492H27.813V19.3614H26.813ZM27.9819 18.1925C27.3119 18.1925 26.813 18.7387 26.813 19.3614H27.813C27.813 19.2675 27.8874 19.1925 27.9819 19.1925V18.1925ZM29.1507 19.3614C29.1507 18.6915 28.6046 18.1925 27.9819 18.1925V19.1925C28.0757 19.1925 28.1507 19.2669 28.1507 19.3614H29.1507ZM29.1507 27.1492V19.3614H28.1507V27.1492H29.1507ZM12.3314 22.8586C12.3292 22.8295 12.3383 22.7893 12.3652 22.7516C12.3916 22.7147 12.4228 22.6969 12.447 22.6914L12.2221 21.717C11.6593 21.8469 11.2924 22.39 11.3344 22.9353L12.3314 22.8586ZM6.96335 32.119C12.5746 28.1144 12.3691 23.1552 12.329 22.8349L11.3368 22.959C11.3365 22.9566 11.3585 23.2483 11.3023 23.7557C11.2472 24.2545 11.1177 24.9482 10.8254 25.7544C10.2426 27.3614 9.00632 29.4324 6.38245 31.305L6.96335 32.119ZM6.91367 32.3235C6.87619 32.2786 6.87094 32.183 6.9575 32.1231L6.38829 31.3009C5.85375 31.6709 5.70516 32.4354 6.14545 32.9637L6.91367 32.3235ZM7.14114 32.4029C7.09615 32.4403 7.00058 32.4456 6.94066 32.359L6.11847 32.9282C6.48854 33.4628 7.25298 33.6114 7.78132 33.1711L7.14114 32.4029ZM12.3301 25.4405C11.8085 27.3453 10.4617 30.0161 7.16953 32.3809L7.75293 33.1931C11.2452 30.6845 12.7173 27.8131 13.2946 25.7046L12.3301 25.4405ZM15.3907 37.8992C15.3907 32.7382 14.1803 28.1194 13.2871 25.4157L12.3376 25.7294C13.2122 28.3768 14.3907 32.8835 14.3907 37.8992H15.3907ZM15.3907 48.7208V37.8992H14.3907V48.7208H15.3907ZM15.5596 48.8898C15.4657 48.8898 15.3907 48.8154 15.3907 48.7208H14.3907C14.3907 49.3908 14.9368 49.8898 15.5596 49.8898V48.8898ZM15.7285 48.7208C15.7285 48.8148 15.6541 48.8898 15.5596 48.8898V49.8898C16.2295 49.8898 16.7285 49.3436 16.7285 48.7208H15.7285ZM15.7285 37.8992V48.7208H16.7285V37.8992H15.7285ZM12.6805 22.7998C12.9447 23.4176 15.7285 29.9287 15.7285 37.8992H16.7285C16.7285 29.7224 13.8794 23.0602 13.6 22.4067L12.6805 22.7998ZM12.6628 22.7582L12.6801 22.799L13.6003 22.4075L13.583 22.3668L12.6628 22.7582ZM12.447 22.6914C12.4797 22.6838 12.5195 22.6864 12.5668 22.709C12.6162 22.7326 12.6656 22.7752 12.7011 22.8309L13.5447 22.2941C13.29 21.8937 12.783 21.5875 12.2221 21.717L12.447 22.6914ZM49.6301 31.3297C47.0053 29.4449 45.7688 27.3732 45.186 25.7691C44.8936 24.9644 44.7642 24.2729 44.7091 23.7761C44.6529 23.2707 44.6749 22.9805 44.6747 22.9829L43.6824 22.8588C43.6422 23.1803 43.4376 28.1142 49.0469 32.142L49.6301 31.3297ZM49.8782 32.9963C50.2909 32.4597 50.1695 31.703 49.6231 31.3248L49.0539 32.147C49.1287 32.1987 49.1505 32.302 49.0855 32.3866L49.8782 32.9963ZM48.2656 33.2458C48.7959 33.613 49.5047 33.4942 49.8819 32.9914L49.0818 32.3914C49.029 32.4619 48.9255 32.4865 48.8348 32.4236L48.2656 33.2458ZM42.7183 25.7577C43.3187 27.859 44.7638 30.7306 48.2585 33.2408L48.8419 32.4286C45.5521 30.0655 44.2261 27.395 43.6798 25.4829L42.7183 25.7577ZM41.6207 37.947C41.6207 32.9313 42.7992 28.4246 43.6738 25.7771L42.7243 25.4635C41.8311 28.1672 40.6207 32.786 40.6207 37.947H41.6207ZM41.6207 48.7687V37.947H40.6207V48.7687H41.6207ZM40.4518 49.9375C41.0863 49.9375 41.6207 49.4031 41.6207 48.7687H40.6207C40.6207 48.8508 40.534 48.9375 40.4518 48.9375V49.9375ZM39.283 48.7687C39.283 49.4386 39.8291 49.9375 40.4518 49.9375V48.9375C40.3579 48.9375 40.283 48.8632 40.283 48.7687H39.283ZM39.283 37.947V48.7687H40.283V37.947H39.283ZM42.4114 22.4545C42.132 23.108 39.283 29.7702 39.283 37.947H40.283C40.283 29.9764 43.0667 23.4654 43.3309 22.8477L42.4114 22.4545ZM42.4284 22.4146L42.4111 22.4554L43.3313 22.8468L43.3486 22.806L42.4284 22.4146ZM43.7893 21.7409C43.2632 21.6195 42.6835 21.8613 42.4345 22.4008L43.3425 22.8198C43.3802 22.7382 43.4693 22.6934 43.5644 22.7153L43.7893 21.7409ZM44.6772 22.9565C44.7184 22.3805 44.3437 21.8688 43.7893 21.7409L43.5644 22.7153C43.6311 22.7307 43.6864 22.7923 43.6798 22.8852L44.6772 22.9565ZM20.8867 17.8545C22.5934 17.8545 23.9701 19.2312 23.9701 20.9378H24.9701C24.9701 18.6789 23.1457 16.8545 20.8867 16.8545V17.8545ZM17.8034 20.9378C17.8034 19.2312 19.1801 17.8545 20.8867 17.8545V16.8545C18.6278 16.8545 16.8034 18.6789 16.8034 20.9378H17.8034ZM20.3092 23.9579C18.8712 23.6908 17.8034 22.4382 17.8034 20.9378H16.8034C16.8034 22.9253 18.2201 24.587 20.1266 24.9411L20.3092 23.9579ZM20.7179 48.7684V24.4495H19.7179V48.7684H20.7179ZM20.8867 48.9373C20.7928 48.9373 20.7179 48.8629 20.7179 48.7684H19.7179C19.7179 49.4383 20.264 49.9373 20.8867 49.9373V48.9373ZM21.0556 48.7684C21.0556 48.8623 20.9813 48.9373 20.8867 48.9373V49.9373C21.5567 49.9373 22.0556 49.3912 22.0556 48.7684H21.0556ZM21.0556 24.4495V48.7684H22.0556V24.4495H21.0556ZM23.9701 20.9378C23.9701 22.4351 22.8812 23.6909 21.4631 23.9581L21.6482 24.9408C23.5267 24.5869 24.9701 22.9283 24.9701 20.9378H23.9701ZM18.1651 20.9617C18.1651 22.4527 19.3649 23.6834 20.8867 23.6834V22.6834C19.9242 22.6834 19.1651 21.9074 19.1651 20.9617H18.1651ZM20.8867 18.24C19.3958 18.24 18.1651 19.4399 18.1651 20.9617H19.1651C19.1651 19.9991 19.941 19.24 20.8867 19.24V18.24ZM23.6084 20.9617C23.6084 19.4672 22.3812 18.24 20.8867 18.24V19.24C21.8289 19.24 22.6084 20.0195 22.6084 20.9617H23.6084ZM20.8867 23.6834C22.3812 23.6834 23.6084 22.4562 23.6084 20.9617H22.6084C22.6084 21.9039 21.8289 22.6834 20.8867 22.6834V23.6834ZM35.1006 16.8545C32.8417 16.8545 31.0173 18.6789 31.0173 20.9378H32.0173C32.0173 19.2312 33.394 17.8545 35.1006 17.8545V16.8545ZM39.1839 20.9378C39.1839 18.705 37.3617 16.8545 35.1006 16.8545V17.8545C36.8051 17.8545 38.1839 19.2529 38.1839 20.9378H39.1839ZM35.8621 24.9408C37.7406 24.5869 39.1839 22.9283 39.1839 20.9378H38.1839C38.1839 22.4351 37.0951 23.6909 35.6769 23.9581L35.8621 24.9408ZM36.2695 48.7684V24.4495H35.2695V48.7684H36.2695ZM35.1006 49.9373C35.7351 49.9373 36.2695 49.4029 36.2695 48.7684H35.2695C35.2695 48.8506 35.1828 48.9373 35.1006 48.9373V49.9373ZM33.9317 48.7684C33.9317 49.4383 34.4779 49.9373 35.1006 49.9373V48.9373C35.0067 48.9373 34.9317 48.8629 34.9317 48.7684H33.9317ZM33.9317 24.4495V48.7684H34.9317V24.4495H33.9317ZM31.0173 20.9378C31.0173 22.9253 32.4339 24.587 34.3404 24.9411L34.523 23.9579C33.0851 23.6908 32.0173 22.4382 32.0173 20.9378H31.0173ZM35.1006 22.6834C34.138 22.6834 33.3789 21.9074 33.3789 20.9617H32.3789C32.3789 22.4527 33.5787 23.6834 35.1006 23.6834V22.6834ZM36.8224 20.9715C36.8406 21.9006 36.0722 22.6834 35.1006 22.6834V23.6834C36.6134 23.6834 37.8517 22.4594 37.8222 20.9519L36.8224 20.9715ZM35.1006 19.24C36.0428 19.24 36.8223 20.0195 36.8223 20.9617H37.8223C37.8223 19.4672 36.5951 18.24 35.1006 18.24V19.24ZM33.3789 20.9617C33.3789 19.9991 34.1549 19.24 35.1006 19.24V18.24C33.6096 18.24 32.3789 19.4399 32.3789 20.9617H33.3789Z" fill="white"/>
</svg>
