<svg width="12" height="12" viewBox="0 0 12 12" fill="none" xmlns="http://www.w3.org/2000/svg">
<path fill-rule="evenodd" clip-rule="evenodd" d="M6 0.000976562C2.69063 0.000976562 0 2.6916 0 6.00098C0 9.31035 2.69063 12.001 6 12.001C9.30937 12.001 12 9.31035 12 6.00098C12 2.6916 9.30937 0.000976562 6 0.000976562Z" fill="white"/>
<path fill-rule="evenodd" clip-rule="evenodd" d="M8.90161 3.97891C9.04692 4.12422 9.04692 4.36328 8.90161 4.50859L5.38599 8.02422C5.31333 8.09687 5.21724 8.13438 5.12114 8.13438C5.02505 8.13438 4.92896 8.09687 4.8563 8.02422L3.09849 6.26641C2.95317 6.12109 2.95317 5.88203 3.09849 5.73672C3.2438 5.59141 3.48286 5.59141 3.62817 5.73672L5.12114 7.22969L8.37192 3.97891C8.51724 3.83125 8.7563 3.83125 8.90161 3.97891Z" fill="#023047"/>
</svg>
