<svg width="51" height="55" viewBox="0 0 51 55" fill="none" xmlns="http://www.w3.org/2000/svg">
<path fill-rule="evenodd" clip-rule="evenodd" d="M33.1444 0.678958C29.5772 1.20288 26.1949 3.32886 24.2221 6.28716C22.722 8.53648 21.9964 10.9095 21.9976 13.5626C21.9987 16.3706 22.824 18.9582 24.4298 21.1884C25.5356 22.7243 27.5271 24.4229 29.2027 25.2594C32.1628 26.7373 35.9225 27.0069 39.0338 25.9645C42.2726 24.8794 44.9683 22.5979 46.5221 19.6268C47.622 17.5235 48.059 15.5516 47.9738 13.0769C47.9148 11.3657 47.6748 10.1988 47.0773 8.71695C46.7892 8.00259 46.7538 7.83863 46.8596 7.71021C47.3757 7.08355 48.3497 5.97437 48.9125 5.37251C49.7358 4.49185 49.9668 4.00747 49.9668 3.16216C49.9668 2.40298 49.7401 1.84478 49.2256 1.33755C48.6527 0.77261 48.2636 0.623098 47.3667 0.623098C46.2804 0.623098 45.9617 0.828177 44.6832 2.35015C44.1277 3.01158 43.6422 3.58853 43.6045 3.63218C43.5668 3.67593 43.2455 3.49185 42.8907 3.2232C40.538 1.44243 37.865 0.558743 34.9156 0.586575C34.2442 0.592923 33.4471 0.634524 33.1444 0.678958ZM33.8902 2.19829C31.2505 2.48365 28.8283 3.63882 26.9543 5.50591C25.2117 7.24214 24.1215 9.34644 23.7373 11.7153C22.6059 18.692 27.9547 24.9883 35.0132 24.9883C42.4789 24.9883 47.9359 17.9117 46.043 10.6847C45.9322 10.2615 45.7785 9.7646 45.7016 9.58062L45.5618 9.24595L42.567 12.8447C37.0124 19.5193 36.7148 19.8092 35.4152 19.8116C34.3051 19.8136 34.3571 19.8524 30.9734 16.4997C28.8016 14.3477 27.8056 13.2933 27.6769 13.0099C27.2352 12.0373 27.3833 11.0076 28.0788 10.2175C28.6069 9.61753 29.2208 9.32906 29.9778 9.32525C31.0403 9.31978 31.1676 9.40396 33.3186 11.5345L35.2861 13.4834L36.019 12.6196C39.357 8.68628 42.434 5.00474 42.4345 4.9439C42.4356 4.80415 41.1149 3.894 40.2838 3.46187C39.3102 2.95562 38.2098 2.56939 37.1702 2.36919C36.3989 2.22066 34.5664 2.12515 33.8902 2.19829ZM46.9064 2.30318C46.7607 2.39966 44.2413 5.33501 41.3079 8.82622C38.3745 12.3174 35.9036 15.2289 35.817 15.2959C35.7304 15.3631 35.5061 15.418 35.3186 15.418C35.0046 15.418 34.7997 15.2411 32.7183 13.1719C30.4807 10.9476 30.4548 10.9258 30.043 10.9258C29.4548 10.9258 29.0562 11.3258 29.0562 11.916V12.3352L31.9845 15.2682L34.9128 18.2012H35.3483C35.7126 18.2012 35.8418 18.1456 36.1408 17.8594C36.7507 17.2758 38.7549 14.9386 42.0447 10.9747C43.783 8.87993 45.7356 6.5604 46.3837 5.82007C48.4134 3.50171 48.3921 3.52993 48.3921 3.16001C48.3921 2.43345 47.493 1.9149 46.9064 2.30318ZM18.1819 24.1712C17.0828 24.407 16.0025 24.9424 12.3271 27.0732C10.4038 28.188 8.7722 29.1226 8.7011 29.1499C8.61927 29.1812 8.44495 28.9731 8.2262 28.5832C7.64241 27.5421 7.06253 27.1368 6.15677 27.1368C5.7927 27.1368 5.47395 27.2063 5.19974 27.3454C4.13479 27.8857 2.51087 28.8565 2.2263 29.1229C1.79593 29.5258 1.57942 30.1275 1.63304 30.7719C1.67161 31.2365 2.04817 31.945 5.46194 37.9766C7.54437 41.6558 9.33968 44.7646 9.45159 44.8849C9.83343 45.2957 10.4554 45.523 11.075 45.4782C11.5584 45.4432 11.8337 45.328 13.0281 44.6611C13.7928 44.2341 14.5711 43.7597 14.7577 43.6068C15.2431 43.2091 15.482 42.6849 15.482 42.0176C15.482 41.5369 15.4165 41.3397 15.0025 40.5716L14.5231 39.6822L15.2539 39.256L15.9849 38.8299L18.0039 39.3753C23.4945 40.8587 26.6436 41.6979 27.396 41.8781C28.9218 42.2434 30.5042 42.1101 31.8142 41.506C32.776 41.0625 48.5877 31.2913 49.0572 30.8502C49.2887 30.6329 49.5963 30.2028 49.7408 29.8945C49.9712 29.4027 50.0034 29.2143 50.0028 28.3575C50.0018 27.1133 49.7865 26.5815 48.9839 25.8418C47.7556 24.7095 46.0825 24.6077 43.8418 25.5288C42.989 25.8793 42.9784 25.8853 37.3081 29.1867C33.1549 31.6047 33.016 31.6819 32.4718 31.8739L32.1011 32.0047L32.3111 31.5483C32.6079 30.9031 32.6079 29.6205 32.311 28.9751C32.0521 28.4124 31.3977 27.6892 30.8646 27.3768C30.6389 27.2445 29.8912 27.0133 29.1499 26.8466C27.5506 26.487 25.7705 25.9379 23.0261 24.958C20.2356 23.9616 19.6232 23.8621 18.1819 24.1712ZM18.1962 25.816C17.406 26.0335 16.5165 26.4992 12.9166 28.5801C10.2749 30.1072 9.43714 30.6356 9.47962 30.7479C9.5722 30.9931 13.5468 38.016 13.6643 38.142C13.7473 38.2311 13.9921 38.1333 14.7007 37.7277C15.211 37.4357 15.7241 37.1965 15.8411 37.1961C15.9581 37.1957 18.6795 37.8994 21.8886 38.7598C25.0978 39.6202 28.0278 40.3745 28.3997 40.4359C29.2417 40.575 30.3134 40.4297 31.0989 40.0702C31.3954 39.9343 35.3236 37.553 39.8282 34.7781C48.7215 29.2996 48.2916 29.6062 48.4476 28.6309C48.5736 27.8429 48.114 26.9625 47.4269 26.6753C46.674 26.3608 45.1353 26.6086 43.8681 27.2486C43.6439 27.3618 41.3112 28.7073 38.6843 30.2384C33.9533 32.996 33.2173 33.3827 32.3147 33.585C31.5936 33.7466 30.0932 33.7046 28.9097 33.4897C27.6079 33.2534 22.8463 31.9636 22.5332 31.7626C22.2121 31.5564 22.0867 31.1701 22.2292 30.826C22.4823 30.2153 22.7333 30.221 25.1416 30.8934C28.5241 31.8376 29.1221 31.9601 29.709 31.8288C30.6023 31.6289 31.1439 30.7336 30.906 29.8502C30.7624 29.3168 30.1959 28.7472 29.6874 28.625C26.645 27.8931 25.8668 27.6558 21.6343 26.17C20.3653 25.7245 20.1372 25.6737 19.437 25.6811C19.0074 25.6857 18.449 25.7463 18.1962 25.816ZM4.64759 29.4709C3.91204 29.8976 3.29446 30.3228 3.24319 30.4378C3.16653 30.6096 3.75706 31.7128 6.87044 37.2139C9.1677 41.2729 10.6642 43.8182 10.7852 43.8722C10.9392 43.9409 11.2378 43.8182 12.1817 43.2983C13.6881 42.4685 13.9195 42.3055 13.9195 42.0743C13.9195 41.8952 6.81058 29.2184 6.51478 28.8702C6.43499 28.7762 6.27757 28.7015 6.16507 28.7042C6.05257 28.7069 5.36966 29.0519 4.64759 29.4709ZM5.18138 30.6768C5.0305 30.8079 4.9053 31.0424 4.87093 31.2583C4.82122 31.5708 4.85384 31.6603 5.11087 31.9174C5.60394 32.4105 6.29446 32.296 6.55247 31.6783C6.91145 30.8193 5.88235 30.0677 5.18138 30.6768Z" fill="white"/>
</svg>
