<svg width="56" height="56" viewBox="0 0 56 56" fill="none" xmlns="http://www.w3.org/2000/svg">
<path fill-rule="evenodd" clip-rule="evenodd" d="M19.6849 18.6244C19.5119 18.6244 19.3605 18.5379 19.2308 18.4081C19.0146 18.1703 19.0362 17.7811 19.274 17.5432L31.8588 6.70993C32.1182 6.49369 32.5075 6.51533 32.7237 6.77481C32.9399 7.03429 32.9183 7.4235 32.6588 7.63974L20.0741 18.473C19.966 18.5811 19.8362 18.6244 19.6849 18.6244ZM36.8105 17.4134L49.2222 6.70991C49.4817 6.49368 49.8709 6.51531 50.0439 6.79641C50.2601 7.05589 50.2385 7.44511 49.9791 7.66134L37.5673 18.3649L36.0969 26.0411L41.3514 34.4526C42.2379 35.8581 41.9784 37.6744 40.7243 38.7772L28.7666 49.2861C28.6369 49.3942 28.5072 49.4375 28.3558 49.4375C28.1828 49.4375 28.0314 49.351 27.9017 49.2213C27.6855 48.9618 27.7071 48.5726 27.9666 48.3563L39.9242 37.8474C40.7243 37.1338 40.8973 35.9878 40.3351 35.0796L33.1994 23.6409C32.8967 23.1652 32.421 22.8192 31.8588 22.6895C31.2966 22.5598 30.7343 22.6679 30.237 22.9706C29.2207 23.5977 28.918 24.9383 29.5451 25.9546L35.2969 35.1445C35.4698 35.4256 35.3833 35.7716 35.1239 35.9662C35.0835 35.9796 33.0715 37.3633 31.0456 38.7564L31.0445 38.7572L31.0439 38.7576L31.0427 38.7584L31.0411 38.7595C29.8093 39.6066 28.5729 40.4569 27.772 41.0044C25.8475 42.3234 23.6852 41.5666 22.8202 41.1774C21.3931 42.345 19.5551 43.0586 17.5442 43.0586C15.1007 43.0586 12.8952 41.9991 11.3599 40.3125C10.8171 40.533 10.261 40.7668 9.72286 40.9931C9.57503 41.0552 9.42855 41.1168 9.28408 41.1774C5.32703 42.864 4.93781 45.1777 4.78645 48.8104C4.76483 49.1348 4.50534 49.3942 4.18099 49.3942H4.15937C3.8134 49.3942 3.55392 49.1131 3.57554 48.7672C3.7269 45.0263 4.22424 42.0207 8.80837 40.053L9.03349 39.9576C9.53064 39.7469 10.0561 39.5242 10.5815 39.3178C9.69493 37.9988 9.17597 36.3987 9.17597 34.6904C9.17597 30.0847 12.9384 26.3222 17.5442 26.3222C22.1499 26.3222 25.9124 30.0847 25.9124 34.6904C25.9124 36.8311 25.1123 38.7772 23.7933 40.2476C24.615 40.5287 25.9556 40.7665 27.1016 39.9881C27.5906 39.652 28.2436 39.2035 28.9593 38.7121L28.962 38.7102C30.7777 37.4635 32.995 35.9409 33.9562 35.2743L28.5288 26.5817C27.9017 25.587 27.8585 24.3761 28.3125 23.3815L27.3828 22.3219C26.8422 21.6948 26.5827 20.8732 26.6476 20.0515C26.6908 19.2298 27.08 18.473 27.7071 17.9324C27.8152 17.8459 27.9449 17.781 28.0747 17.781L36.8105 17.4134ZM17.5442 27.5331C13.5871 27.5331 10.3869 30.755 10.3869 34.6904C10.3869 38.6475 13.5871 41.8477 17.5442 41.8477C21.5012 41.8477 24.7015 38.6258 24.7015 34.6904C24.7015 30.7334 21.4796 27.5331 17.5442 27.5331ZM34.2589 23.0139L35.1887 24.5059L36.3131 18.646L28.3774 18.9703C28.0963 19.2947 27.9233 19.7055 27.8801 20.138C27.8368 20.6569 28.0098 21.1326 28.3342 21.5218L29.0477 22.3652C29.2207 22.2138 29.4153 22.0624 29.6099 21.9327C30.3668 21.457 31.2749 21.3056 32.1615 21.5002C33.0264 21.7165 33.7832 22.257 34.2589 23.0139ZM7.90019 21.6948C8.05155 21.6948 8.18129 21.6516 8.28941 21.5435L20.8741 10.7102C21.1336 10.494 21.1552 10.1048 20.939 9.84528C20.7228 9.5858 20.3336 9.5642 20.0741 9.78043L7.48936 20.6137C7.22988 20.8299 7.20825 21.2191 7.42448 21.4786C7.55422 21.63 7.72721 21.6948 7.90019 21.6948ZM51.4924 15.3587C51.7519 15.3804 52.0114 15.5101 52.1843 15.7047C52.3573 15.8993 52.4438 16.1588 52.4222 16.4399C52.4006 16.6994 52.2708 16.9589 52.0762 17.1319C51.8816 17.2832 51.6438 17.3697 51.4059 17.3697H51.341C51.0816 17.3481 50.8221 17.2183 50.6491 17.0237C50.2815 16.6129 50.3247 15.9642 50.7572 15.5966C50.9518 15.4236 51.2113 15.3371 51.4924 15.3587ZM46.6276 19.1647C46.433 19.3376 46.3033 19.5971 46.2816 19.8566C46.26 20.1377 46.3465 20.3972 46.5195 20.5918C46.6925 20.7864 46.952 20.9161 47.2114 20.9378H47.2763C47.5142 20.9378 47.752 20.8513 47.9466 20.6999C48.1412 20.5269 48.271 20.2674 48.2926 20.0079C48.3142 19.7268 48.2277 19.4674 48.0547 19.2728C47.7088 18.8403 47.0601 18.7971 46.6276 19.1647ZM42.5404 22.7108C42.735 22.5379 43.0161 22.4514 43.2756 22.473C43.5351 22.4946 43.7946 22.6027 43.9675 22.819C44.1405 23.0136 44.227 23.2731 44.2054 23.5542C44.1838 23.8136 44.054 24.0731 43.8594 24.2461C43.6648 24.3975 43.427 24.484 43.1891 24.484H43.1242C42.8648 24.4623 42.6053 24.3326 42.4323 24.138C42.0647 23.7272 42.108 23.0784 42.5404 22.7108Z" fill="white"/>
<path d="M19.2308 18.4081L18.8608 18.7445L18.8688 18.7533L18.8772 18.7617L19.2308 18.4081ZM19.274 17.5432L18.9478 17.1643L18.9337 17.1764L18.9205 17.1896L19.274 17.5432ZM31.8588 6.70993L31.5386 6.32577L31.5326 6.33099L31.8588 6.70993ZM32.7237 6.77481L32.3396 7.0949V7.0949L32.7237 6.77481ZM32.6588 7.63974L32.3387 7.25558L32.3326 7.2608L32.6588 7.63974ZM20.0741 18.473L19.7479 18.094L19.7337 18.1062L19.7205 18.1194L20.0741 18.473ZM49.2222 6.70991L48.9021 6.32575L48.8957 6.33126L49.2222 6.70991ZM36.8105 17.4134L36.8315 17.913L37.0053 17.9057L37.137 17.7921L36.8105 17.4134ZM50.0439 6.79641L49.6181 7.05846L49.6369 7.08897L49.6598 7.1165L50.0439 6.79641ZM49.9791 7.66134L49.6589 7.27718L49.6525 7.28269L49.9791 7.66134ZM37.5673 18.3649L37.2408 17.9862L37.109 18.0999L37.0762 18.2708L37.5673 18.3649ZM36.0969 26.0411L35.6058 25.947L35.5689 26.1397L35.6728 26.306L36.0969 26.0411ZM41.3514 34.4526L40.9273 34.7175L40.9285 34.7193L41.3514 34.4526ZM40.7243 38.7772L41.0544 39.1528L41.0545 39.1527L40.7243 38.7772ZM28.7666 49.2861L29.0868 49.6704L29.0967 49.6617L28.7666 49.2861ZM27.9017 49.2213L27.5176 49.5414L27.5321 49.5588L27.5482 49.5748L27.9017 49.2213ZM27.9666 48.3563L28.2868 48.7406L28.2966 48.7319L27.9666 48.3563ZM39.9242 37.8474L40.2543 38.223L40.257 38.2206L39.9242 37.8474ZM40.3351 35.0796L40.7602 34.8165L40.7593 34.815L40.3351 35.0796ZM33.1994 23.6409L33.6236 23.3763L33.6212 23.3725L33.1994 23.6409ZM31.8588 22.6895L31.7463 23.1767H31.7463L31.8588 22.6895ZM30.237 22.9706L29.977 22.5435L29.9745 22.5451L30.237 22.9706ZM29.5451 25.9546L29.1196 26.2172L29.1212 26.2199L29.5451 25.9546ZM35.2969 35.1445L35.7227 34.8824L35.7207 34.8792L35.2969 35.1445ZM35.1239 35.9662L35.282 36.4405L35.359 36.4149L35.4239 36.3662L35.1239 35.9662ZM31.0456 38.7564L30.7623 38.3444L30.761 38.3453L31.0456 38.7564ZM31.0445 38.7572L31.3287 39.1685L31.3291 39.1682L31.0445 38.7572ZM31.0439 38.7576L31.3275 39.1694L31.3281 39.169L31.0439 38.7576ZM31.0427 38.7584L30.7591 38.3466L30.7585 38.347L31.0427 38.7584ZM31.0411 38.7595L31.3244 39.1715L31.3252 39.1709L31.0411 38.7595ZM27.772 41.0044L27.4898 40.5917L27.4893 40.592L27.772 41.0044ZM22.8202 41.1774L23.0254 40.7214L22.7432 40.5944L22.5036 40.7904L22.8202 41.1774ZM11.3599 40.3125L11.7297 39.9759L11.4949 39.7179L11.1717 39.8492L11.3599 40.3125ZM9.72286 40.9931L9.52907 40.5321H9.52906L9.72286 40.9931ZM9.28408 41.1774L9.09072 40.7163L9.08803 40.7174L9.28408 41.1774ZM4.78645 48.8104L5.2855 48.8437L5.28602 48.8312L4.78645 48.8104ZM3.57554 48.7672L4.07469 48.7983L4.07513 48.7874L3.57554 48.7672ZM8.80837 40.053L8.61335 39.5926L8.61115 39.5935L8.80837 40.053ZM9.03349 39.9576L9.22851 40.418L9.22862 40.418L9.03349 39.9576ZM10.5815 39.3178L10.7643 39.7832L11.3437 39.5555L10.9965 39.0389L10.5815 39.3178ZM23.7933 40.2476L23.4211 39.9137L22.9166 40.4761L23.6314 40.7207L23.7933 40.2476ZM27.1016 39.9881L27.3826 40.4017L27.3849 40.4001L27.1016 39.9881ZM28.9593 38.7121L29.2423 39.1243L29.2424 39.1242L28.9593 38.7121ZM28.962 38.7102L28.679 38.298L28.6788 38.2982L28.962 38.7102ZM33.9562 35.2743L34.2412 35.6851L34.6327 35.4136L34.3803 35.0094L33.9562 35.2743ZM28.5288 26.5817L28.9529 26.3169L28.9517 26.315L28.5288 26.5817ZM28.3125 23.3815L28.7674 23.5891L28.9017 23.2948L28.6884 23.0517L28.3125 23.3815ZM27.3828 22.3219L27.004 22.6484L27.0069 22.6517L27.3828 22.3219ZM26.6476 20.0515L27.1462 20.0908L27.1469 20.0778L26.6476 20.0515ZM27.7071 17.9324L27.3948 17.542L27.3876 17.5477L27.3806 17.5537L27.7071 17.9324ZM28.0747 17.781V18.281H28.0852L28.0957 18.2806L28.0747 17.781ZM35.1887 24.5059L34.7644 24.7703L35.4393 25.8533L35.6798 24.6001L35.1887 24.5059ZM34.2589 23.0139L34.6833 22.7494L34.6823 22.7478L34.2589 23.0139ZM36.3131 18.646L36.8042 18.7402L36.9231 18.1206L36.2927 18.1464L36.3131 18.646ZM28.3774 18.9703L28.357 18.4707L28.1411 18.4796L27.9996 18.6428L28.3774 18.9703ZM27.8801 20.138L27.3825 20.0882L27.3818 20.0965L27.8801 20.138ZM28.3342 21.5218L27.95 21.8419L27.9525 21.8448L28.3342 21.5218ZM29.0477 22.3652L28.666 22.6881L28.9944 23.0762L29.377 22.7414L29.0477 22.3652ZM29.6099 21.9327L29.3438 21.5092L29.3326 21.5167L29.6099 21.9327ZM32.1615 21.5002L32.2828 21.0152L32.2757 21.0134L32.2687 21.0119L32.1615 21.5002ZM8.28941 21.5435L7.96321 21.1645L7.94906 21.1767L7.93585 21.1899L8.28941 21.5435ZM20.8741 10.7102L20.554 10.3261L20.5479 10.3313L20.8741 10.7102ZM20.939 9.84528L21.3231 9.52519L21.3231 9.52519L20.939 9.84528ZM20.0741 9.78043L19.7539 9.39627L19.7479 9.40149L20.0741 9.78043ZM7.48936 20.6137L7.80949 20.9978L7.81556 20.9926L7.48936 20.6137ZM7.42448 21.4786L7.04033 21.7987L7.04485 21.804L7.42448 21.4786ZM52.1843 15.7047L51.8106 16.0369V16.0369L52.1843 15.7047ZM51.4924 15.3587L51.5339 14.8605L51.5308 14.8602L51.4924 15.3587ZM52.4222 16.4399L52.9205 16.4814L52.9207 16.4782L52.4222 16.4399ZM52.0762 17.1319L52.3832 17.5265L52.3961 17.5165L52.4084 17.5056L52.0762 17.1319ZM51.341 17.3697L51.2995 17.868L51.3202 17.8697H51.341V17.3697ZM50.6491 17.0237L51.0228 16.6916L51.0217 16.6903L50.6491 17.0237ZM50.7572 15.5966L51.0811 15.9777L51.0894 15.9703L50.7572 15.5966ZM46.2816 19.8566L45.7834 19.8151L45.7831 19.8183L46.2816 19.8566ZM46.6276 19.1647L46.3037 18.7836L46.2954 18.791L46.6276 19.1647ZM46.5195 20.5918L46.8932 20.2596V20.2596L46.5195 20.5918ZM47.2114 20.9378L47.1699 21.436L47.1906 21.4378H47.2114V20.9378ZM47.9466 20.6999L48.2536 21.0946L48.2665 21.0845L48.2788 21.0736L47.9466 20.6999ZM48.2926 20.0079L48.7909 20.0495L48.7911 20.0463L48.2926 20.0079ZM48.0547 19.2728L47.6643 19.5851L47.6724 19.5953L47.681 19.605L48.0547 19.2728ZM43.2756 22.473L43.3171 21.9747L43.2756 22.473ZM42.5404 22.7108L42.8643 23.0919L42.8726 23.0845L42.5404 22.7108ZM43.9675 22.819L43.5771 23.1313L43.5852 23.1414L43.5938 23.1511L43.9675 22.819ZM44.2054 23.5542L44.7037 23.5957L44.7039 23.5925L44.2054 23.5542ZM43.8594 24.2461L44.1664 24.6408L44.1794 24.6307L44.1916 24.6198L43.8594 24.2461ZM43.1242 24.484L43.0827 24.9822L43.1034 24.984H43.1242V24.484ZM42.4323 24.138L42.806 23.8058L42.8049 23.8046L42.4323 24.138ZM18.8772 18.7617C19.0615 18.9459 19.3325 19.1244 19.6849 19.1244V18.1244C19.6848 18.1244 19.6798 18.125 19.6652 18.1177C19.6484 18.1093 19.6208 18.091 19.5843 18.0546L18.8772 18.7617ZM18.9205 17.1896C18.5123 17.5978 18.448 18.2904 18.8608 18.7445L19.6008 18.0718C19.5918 18.0619 19.5795 18.0398 19.5815 18.0015C19.5835 17.9628 19.5999 17.9244 19.6276 17.8968L18.9205 17.1896ZM31.5326 6.33099L18.9478 17.1643L19.6002 17.9221L32.185 7.08886L31.5326 6.33099ZM33.1078 6.45472C32.7018 5.96749 31.9943 5.94609 31.5387 6.32582L32.1789 7.09404C32.2071 7.07047 32.2415 7.06062 32.273 7.06279C32.303 7.06486 32.3245 7.07686 32.3396 7.0949L33.1078 6.45472ZM32.9789 8.02385C33.4662 7.61782 33.4875 6.91037 33.1078 6.45472L32.3396 7.0949C32.3631 7.12318 32.373 7.15759 32.3708 7.18909C32.3688 7.21906 32.3568 7.2406 32.3387 7.25563L32.9789 8.02385ZM20.4003 18.8519L32.985 8.01868L32.3326 7.2608L19.7479 18.094L20.4003 18.8519ZM19.6849 19.1244C19.9434 19.1244 20.2092 19.045 20.4276 18.8265L19.7205 18.1194C19.7173 18.1227 19.7161 18.1232 19.7171 18.1226C19.7181 18.1219 19.7194 18.1213 19.7201 18.1211C19.7219 18.1204 19.7129 18.1244 19.6849 18.1244V19.1244ZM48.8957 6.33126L36.484 17.0348L37.137 17.7921L49.5488 7.08856L48.8957 6.33126ZM50.4697 6.53436C50.0994 5.93256 49.3366 5.96377 48.9021 6.3258L49.5423 7.09402C49.5727 7.06872 49.6044 7.0632 49.621 7.06468C49.6282 7.06531 49.6288 7.06681 49.6254 7.0648C49.6237 7.06382 49.6219 7.06242 49.6201 7.06073C49.6184 7.05901 49.6178 7.05795 49.6181 7.05846L50.4697 6.53436ZM50.2991 8.04545C50.7864 7.63941 50.8077 6.93195 50.428 6.47632L49.6598 7.1165C49.6834 7.14479 49.6932 7.17921 49.6911 7.2107C49.689 7.24067 49.677 7.26221 49.659 7.27723L50.2991 8.04545ZM37.8938 18.7435L50.3056 8.03999L49.6525 7.28269L37.2408 17.9862L37.8938 18.7435ZM36.588 26.1352L38.0584 18.4589L37.0762 18.2708L35.6058 25.947L36.588 26.1352ZM41.7754 34.1877L36.521 25.7762L35.6728 26.306L40.9273 34.7175L41.7754 34.1877ZM41.0545 39.1527C42.4931 37.8877 42.7919 35.7991 41.7743 34.1858L40.9285 34.7193C41.684 35.9171 41.4638 37.4612 40.3941 38.4017L41.0545 39.1527ZM29.0967 49.6617L41.0544 39.1528L40.3942 38.4016L28.4366 48.9105L29.0967 49.6617ZM28.3558 49.9375C28.6229 49.9375 28.8662 49.854 29.0867 49.6702L28.4465 48.902C28.4205 48.9237 28.4057 48.9298 28.3999 48.9319C28.3942 48.934 28.3823 48.9375 28.3558 48.9375V49.9375ZM27.5482 49.5748C27.7324 49.7591 28.0034 49.9375 28.3558 49.9375V48.9375C28.3557 48.9375 28.3507 48.9381 28.3361 48.9308C28.3193 48.9224 28.2917 48.9042 28.2553 48.8677L27.5482 49.5748ZM27.6465 47.9722C27.1592 48.3783 27.1379 49.0857 27.5176 49.5414L28.2858 48.9012C28.2622 48.8729 28.2524 48.8385 28.2546 48.807C28.2566 48.777 28.2686 48.7555 28.2867 48.7404L27.6465 47.9722ZM39.5942 37.4718L27.6365 47.9808L28.2966 48.7319L40.2543 38.223L39.5942 37.4718ZM39.91 35.3428C40.3426 36.0416 40.2129 36.9199 39.5914 37.4743L40.257 38.2206C41.2357 37.3477 41.452 35.934 40.7602 34.8165L39.91 35.3428ZM32.7752 23.9056L39.9109 35.3443L40.7593 34.815L33.6236 23.3763L32.7752 23.9056ZM31.7463 23.1767C32.1773 23.2762 32.5434 23.5414 32.7776 23.9094L33.6212 23.3725C33.2499 22.789 32.6646 22.3623 31.9712 22.2023L31.7463 23.1767ZM30.497 23.3977C30.8931 23.1566 31.3226 23.0789 31.7463 23.1767L31.9712 22.2023C31.2705 22.0406 30.5756 22.1792 29.977 22.5435L30.497 23.3977ZM29.9706 25.6921C29.4853 24.9055 29.7235 23.875 30.4996 23.3961L29.9745 22.5451C28.718 23.3204 28.3507 24.9711 29.1196 26.2172L29.9706 25.6921ZM35.7207 34.8792L29.9689 25.6893L29.1212 26.2199L34.873 35.4098L35.7207 34.8792ZM35.4239 36.3662C35.8674 36.0335 36.0454 35.4069 35.7227 34.8824L34.871 35.4065C34.8872 35.4329 34.8896 35.4562 34.8844 35.4793C34.8787 35.5051 34.8611 35.5382 34.8239 35.5662L35.4239 36.3662ZM31.3289 39.1684C32.342 38.4718 33.3511 37.7778 34.112 37.2564C34.4925 36.9956 34.8103 36.7783 35.0353 36.6256C35.148 36.5491 35.2363 36.4896 35.2973 36.449C35.328 36.4285 35.35 36.414 35.364 36.4051C35.3714 36.4003 35.3738 36.3988 35.3731 36.3993C35.373 36.3993 35.3687 36.402 35.3619 36.4057C35.3586 36.4075 35.3516 36.4113 35.3424 36.4158C35.337 36.4185 35.3137 36.43 35.282 36.4405L34.9657 35.4919C34.9334 35.5026 34.9093 35.5145 34.9027 35.5177C34.8924 35.5227 34.8841 35.5272 34.8792 35.5299C34.8692 35.5354 34.8608 35.5405 34.8556 35.5436C34.8448 35.5501 34.8334 35.5573 34.8233 35.5638C34.8024 35.5773 34.7751 35.5953 34.743 35.6166C34.6783 35.6597 34.587 35.7213 34.4737 35.7982C34.2468 35.9523 33.9274 36.1705 33.5467 36.4315C32.785 36.9535 31.7751 37.6479 30.7623 38.3444L31.3289 39.1684ZM31.3291 39.1682L31.3302 39.1675L30.761 38.3453L30.7599 38.3461L31.3291 39.1682ZM31.3281 39.169L31.3287 39.1685L30.7603 38.3458L30.7597 38.3462L31.3281 39.169ZM31.3263 39.1702L31.3275 39.1694L30.7603 38.3458L30.7591 38.3466L31.3263 39.1702ZM31.3252 39.1709L31.3268 39.1698L30.7585 38.347L30.7569 38.3481L31.3252 39.1709ZM28.0542 41.4172C28.8558 40.8691 30.0929 40.0184 31.3244 39.1715L30.7578 38.3475C29.5257 39.1948 28.29 40.0446 27.4898 40.5917L28.0542 41.4172ZM22.6151 41.6334C23.5024 42.0327 25.8954 42.8968 28.0546 41.4168L27.4893 40.592C25.7996 41.7501 23.8679 41.1006 23.0254 40.7214L22.6151 41.6334ZM17.5442 43.5586C19.6754 43.5586 21.6242 42.802 23.1369 41.5644L22.5036 40.7904C21.162 41.8881 19.4349 42.5586 17.5442 42.5586V43.5586ZM10.9902 40.649C12.6154 42.4345 14.953 43.5586 17.5442 43.5586V42.5586C15.2485 42.5586 13.175 41.5637 11.7297 39.9759L10.9902 40.649ZM9.91666 41.454C10.4553 41.2275 11.0086 40.9949 11.5481 40.7757L11.1717 39.8492C10.6256 40.0711 10.0667 40.3061 9.52907 40.5321L9.91666 41.454ZM9.47744 41.6385C9.62217 41.5778 9.76887 41.5161 9.91666 41.454L9.52906 40.5321C9.38119 40.5943 9.23493 40.6558 9.09072 40.7163L9.47744 41.6385ZM5.28602 48.8312C5.36198 47.0082 5.49819 45.6218 6.0569 44.4846C6.60049 43.3782 7.57741 42.4483 9.48013 41.6374L9.08803 40.7174C7.0337 41.593 5.83749 42.6634 5.15937 44.0436C4.49636 45.3931 4.36228 46.98 4.28688 48.7896L5.28602 48.8312ZM4.18099 49.8942C4.78717 49.8942 5.24747 49.4117 5.28534 48.8437L4.28756 48.7772C4.28218 48.8578 4.2235 48.8942 4.18099 48.8942V49.8942ZM4.15937 49.8942H4.18099V48.8942H4.15937V49.8942ZM3.07651 48.736C3.03725 49.3641 3.51934 49.8942 4.15937 49.8942V48.8942C4.12612 48.8942 4.10729 48.8824 4.096 48.8702C4.08436 48.8577 4.07225 48.8354 4.07456 48.7983L3.07651 48.736ZM8.61115 39.5935C6.23219 40.6147 4.8594 41.9324 4.08048 43.5255C3.31392 45.0934 3.15171 46.8746 3.07595 48.7469L4.07513 48.7874C4.15073 46.9189 4.31287 45.3269 4.97885 43.9648C5.63247 42.6279 6.80042 41.459 9.00559 40.5125L8.61115 39.5935ZM8.83847 39.4972L8.61335 39.5926L9.00339 40.5134L9.22851 40.418L8.83847 39.4972ZM10.3986 38.8524C9.86603 39.0617 9.33454 39.287 8.83836 39.4973L9.22862 40.418C9.72675 40.2068 10.2461 39.9868 10.7643 39.7832L10.3986 38.8524ZM8.67597 34.6904C8.67597 36.5007 9.22602 38.1975 10.1665 39.5967L10.9965 39.0389C10.1638 37.8001 9.67597 36.2966 9.67597 34.6904H8.67597ZM17.5442 25.8222C12.6623 25.8222 8.67597 29.8085 8.67597 34.6904H9.67597C9.67597 30.3608 13.2146 26.8222 17.5442 26.8222V25.8222ZM26.4124 34.6904C26.4124 29.8085 22.4261 25.8222 17.5442 25.8222V26.8222C21.8738 26.8222 25.4124 30.3608 25.4124 34.6904H26.4124ZM24.1655 40.5815C25.5642 39.0223 26.4124 36.9582 26.4124 34.6904H25.4124C25.4124 36.704 24.6604 38.5322 23.4211 39.9137L24.1655 40.5815ZM26.8207 39.5745C25.8737 40.2178 24.7304 40.0397 23.9551 39.7745L23.6314 40.7207C24.4996 41.0177 26.0375 41.3153 27.3826 40.4017L26.8207 39.5745ZM28.6762 38.3C27.9607 38.7913 27.3075 39.2398 26.8184 39.5761L27.3849 40.4001C27.8737 40.0641 28.5266 39.6157 29.2423 39.1243L28.6762 38.3ZM28.6788 38.2982L28.6761 38.3001L29.2424 39.1242L29.2452 39.1223L28.6788 38.2982ZM33.6713 34.8634C32.7113 35.5292 30.4953 37.0508 28.679 38.298L29.2451 39.1224C31.0601 37.8761 33.2787 36.3526 34.2412 35.6851L33.6713 34.8634ZM28.1047 26.8465L33.5321 35.5391L34.3803 35.0094L28.9529 26.3169L28.1047 26.8465ZM27.8577 23.1738C27.3363 24.316 27.3855 25.7057 28.1058 26.8483L28.9517 26.315C28.4179 25.4683 28.3807 24.4362 28.7674 23.5891L27.8577 23.1738ZM27.0069 22.6517L27.9367 23.7113L28.6884 23.0517L27.7586 21.9921L27.0069 22.6517ZM26.1491 20.0121C26.074 20.9631 26.3739 21.9175 27.004 22.6484L27.7615 21.9955C27.3104 21.4722 27.0913 20.7832 27.146 20.0908L26.1491 20.0121ZM27.3806 17.5537C26.6563 18.1781 26.1991 19.0598 26.1482 20.0252L27.1469 20.0778C27.1825 19.3998 27.5038 18.7678 28.0336 18.3111L27.3806 17.5537ZM28.0747 17.281C27.7854 17.281 27.5473 17.4199 27.3948 17.542L28.0194 18.3228C28.0462 18.3014 28.0681 18.2889 28.0821 18.2828C28.0962 18.2767 28.0929 18.281 28.0747 18.281V17.281ZM36.7895 16.9139L28.0537 17.2815L28.0957 18.2806L36.8315 17.913L36.7895 16.9139ZM10.8869 34.6904C10.8869 31.0301 13.8642 28.0331 17.5442 28.0331V27.0331C13.31 27.0331 9.88686 30.4798 9.88686 34.6904H10.8869ZM17.5442 41.3477C13.8633 41.3477 10.8869 38.3713 10.8869 34.6904H9.88686C9.88686 38.9236 13.311 42.3477 17.5442 42.3477V41.3477ZM24.2015 34.6904C24.2015 38.3507 21.2241 41.3477 17.5442 41.3477V42.3477C21.7783 42.3477 25.2015 38.901 25.2015 34.6904H24.2015ZM17.5442 28.0331C21.2044 28.0331 24.2015 31.0105 24.2015 34.6904H25.2015C25.2015 30.4562 21.7548 27.0331 17.5442 27.0331V28.0331ZM35.6131 24.2414L34.6833 22.7494L33.8346 23.2783L34.7644 24.7703L35.6131 24.2414ZM35.8221 18.5517L34.6977 24.4116L35.6798 24.6001L36.8042 18.7402L35.8221 18.5517ZM28.3978 19.4699L36.3336 19.1455L36.2927 18.1464L28.357 18.4707L28.3978 19.4699ZM28.3776 20.1877C28.4109 19.8542 28.5442 19.5413 28.7553 19.2978L27.9996 18.6428C27.6485 19.048 27.4357 19.5568 27.3826 20.0882L28.3776 20.1877ZM28.7183 21.2018C28.4688 20.9024 28.3471 20.554 28.3784 20.1795L27.3818 20.0965C27.3265 20.7599 27.5508 21.3629 27.9501 21.8419L28.7183 21.2018ZM29.4294 22.0422L28.7159 21.1989L27.9525 21.8448L28.666 22.6881L29.4294 22.0422ZM29.3326 21.5167C29.1179 21.6598 28.906 21.8248 28.7185 21.9889L29.377 22.7414C29.5354 22.6028 29.7128 22.465 29.8873 22.3487L29.3326 21.5167ZM32.2687 21.0119C31.2578 20.7899 30.215 20.9618 29.3439 21.5094L29.876 22.356C30.5185 21.9522 31.2921 21.8213 32.0543 21.9886L32.2687 21.0119ZM34.6823 22.7478C34.1366 21.8796 33.2704 21.2621 32.2828 21.0152L32.0402 21.9853C32.7824 22.1708 33.4299 22.6345 33.8356 23.2799L34.6823 22.7478ZM7.93585 21.1899C7.9326 21.1932 7.93145 21.1937 7.93245 21.1931C7.9335 21.1924 7.93476 21.1918 7.93547 21.1915C7.93723 21.1909 7.92825 21.1948 7.90019 21.1948V22.1948C8.15866 22.1948 8.42446 22.1155 8.64296 21.897L7.93585 21.1899ZM20.5479 10.3313L7.96321 21.1645L8.61561 21.9224L21.2003 11.0892L20.5479 10.3313ZM20.5549 10.1654C20.5785 10.1937 20.5883 10.2281 20.5862 10.2596C20.5841 10.2895 20.5721 10.3111 20.5541 10.3261L21.1942 11.0943C21.6815 10.6883 21.7028 9.98084 21.3231 9.52519L20.5549 10.1654ZM20.3942 10.1645C20.4225 10.141 20.4569 10.1311 20.4884 10.1333C20.5183 10.1353 20.5399 10.1473 20.5549 10.1654L21.3231 9.52519C20.9171 9.03794 20.2096 9.01662 19.754 9.39632L20.3942 10.1645ZM7.81556 20.9926L20.4003 10.1594L19.7479 9.40149L7.16316 20.2347L7.81556 20.9926ZM7.80859 21.1585C7.78502 21.1302 7.77517 21.0958 7.77734 21.0643C7.77941 21.0344 7.79141 21.0128 7.80945 20.9978L7.16927 20.2296C6.68204 20.6356 6.66064 21.343 7.04037 21.7987L7.80859 21.1585ZM7.90019 21.1948C7.87612 21.1948 7.858 21.1904 7.84492 21.1847C7.83293 21.1795 7.81923 21.1709 7.80411 21.1532L7.04485 21.804C7.27992 22.0782 7.59791 22.1948 7.90019 22.1948V21.1948ZM52.5581 15.3725C52.2998 15.082 51.9214 14.8927 51.5339 14.8605L51.4509 15.857C51.5824 15.868 51.7229 15.9382 51.8106 16.0369L52.5581 15.3725ZM52.9207 16.4782C52.9522 16.0689 52.8258 15.6738 52.5581 15.3725L51.8106 16.0369C51.8888 16.1249 51.9354 16.2487 51.9237 16.4016L52.9207 16.4782ZM52.4084 17.5056C52.699 17.2473 52.8882 16.8688 52.9205 16.4814L51.9239 16.3984C51.913 16.5299 51.8427 16.6705 51.744 16.7582L52.4084 17.5056ZM51.4059 17.8697C51.7636 17.8697 52.1079 17.7407 52.3832 17.5265L51.7693 16.7372C51.6553 16.8258 51.5239 16.8697 51.4059 16.8697V17.8697ZM51.341 17.8697H51.4059V16.8697H51.341V17.8697ZM50.2754 17.3559C50.5337 17.6465 50.9121 17.8357 51.2995 17.868L51.3826 16.8714C51.251 16.8605 51.1105 16.7902 51.0228 16.6916L50.2754 17.3559ZM50.4334 15.2156C49.7901 15.7625 49.7185 16.7335 50.2765 17.3571L51.0217 16.6903C50.8445 16.4923 50.8594 16.166 51.081 15.9776L50.4334 15.2156ZM51.5308 14.8602C51.1214 14.8287 50.7263 14.9551 50.425 15.2229L51.0894 15.9703C51.1774 15.8921 51.3012 15.8455 51.4541 15.8573L51.5308 14.8602ZM46.7799 19.8981C46.7909 19.7666 46.8611 19.6261 46.9598 19.5384L46.2954 18.791C46.0049 19.0492 45.8157 19.4276 45.7834 19.8151L46.7799 19.8981ZM46.8932 20.2596C46.815 20.1717 46.7684 20.0478 46.7802 19.8949L45.7831 19.8183C45.7516 20.2276 45.878 20.6227 46.1458 20.924L46.8932 20.2596ZM47.253 20.4395C47.1214 20.4285 46.9809 20.3583 46.8932 20.2596L46.1458 20.924C46.4041 21.2145 46.7825 21.4037 47.1699 21.436L47.253 20.4395ZM47.2763 20.4378H47.2114V21.4378H47.2763V20.4378ZM47.6397 20.3052C47.5257 20.3938 47.3943 20.4378 47.2763 20.4378V21.4378C47.634 21.4378 47.9783 21.3087 48.2536 21.0946L47.6397 20.3052ZM47.7943 19.9664C47.7834 20.098 47.7131 20.2385 47.6144 20.3262L48.2788 21.0736C48.5694 20.8153 48.7586 20.4369 48.7909 20.0495L47.7943 19.9664ZM47.681 19.605C47.7592 19.6929 47.8058 19.8167 47.7941 19.9696L48.7911 20.0463C48.8226 19.637 48.6962 19.2419 48.4285 18.9406L47.681 19.605ZM46.9514 19.5456C47.186 19.3462 47.5081 19.3898 47.6643 19.5851L48.4452 18.9604C47.9095 18.2908 46.9341 18.2479 46.3038 18.7837L46.9514 19.5456ZM43.3171 21.9747C42.9307 21.9425 42.512 22.0672 42.2082 22.3371L42.8726 23.0845C42.9581 23.0086 43.1016 22.9602 43.2341 22.9713L43.3171 21.9747ZM44.358 22.5066C44.0801 22.1593 43.6798 22.0049 43.3171 21.9747L43.2341 22.9713C43.3903 22.9843 43.509 23.0462 43.5771 23.1313L44.358 22.5066ZM44.7039 23.5925C44.7354 23.1832 44.609 22.788 44.3413 22.4868L43.5938 23.1511C43.672 23.2391 43.7186 23.3629 43.7069 23.5158L44.7039 23.5925ZM44.1916 24.6198C44.4822 24.3615 44.6714 23.9831 44.7037 23.5957L43.7071 23.5126C43.6962 23.6442 43.6259 23.7847 43.5272 23.8724L44.1916 24.6198ZM43.1891 24.984C43.5468 24.984 43.8911 24.8549 44.1664 24.6408L43.5525 23.8514C43.4385 23.94 43.3071 23.984 43.1891 23.984V24.984ZM43.1242 24.984H43.1891V23.984H43.1242V24.984ZM42.0586 24.4702C42.3169 24.7607 42.6953 24.95 43.0827 24.9822L43.1658 23.9857C43.0342 23.9747 42.8937 23.9045 42.806 23.8058L42.0586 24.4702ZM42.2166 22.3299C41.5733 22.8767 41.5017 23.8478 42.0597 24.4714L42.8049 23.8046C42.6277 23.6065 42.6426 23.2802 42.8642 23.0918L42.2166 22.3299Z" fill="white"/>
</svg>
