<svg width="38" height="38" viewBox="0 0 38 38" fill="none" xmlns="http://www.w3.org/2000/svg">
<g clip-path="url(#clip0_102_1124)">
<path fill-rule="evenodd" clip-rule="evenodd" d="M20.0279 0.840737C19.3607 1.24748 19.3323 2.20714 19.975 2.62819C20.0792 2.69648 20.5793 2.84613 21.0863 2.96077C24.5542 3.74476 27.3316 5.23749 29.8423 7.6667C32.4144 10.1552 34.281 13.5719 34.9041 16.9322C35.0274 17.5969 35.1407 17.8556 35.4062 18.0791C35.9281 18.5182 36.7132 18.3436 37.0143 17.7215L37.1731 17.3936L37.0144 16.5974C36.2337 12.6786 34.3855 9.21929 31.5491 6.3675C28.7435 3.54673 25.4054 1.71336 21.5483 0.874736C20.5531 0.658396 20.3349 0.653529 20.0279 0.840737ZM6.64352 2.88107C6.18447 2.93665 5.63359 3.1357 5.13648 3.4257C4.74891 3.6517 2.42518 5.90467 1.54682 6.90588C0.855376 7.69409 0.38739 8.55988 0.166038 9.4604C-0.0360634 10.2828 -0.0516097 11.9283 0.132839 12.973C1.24941 19.297 6.69379 27.2086 13.3633 32.1993C16.1847 34.3105 19.5446 36.1382 22.2777 37.0484C24.111 37.659 25.1815 37.8509 26.7301 37.8468C27.7839 37.8441 27.9536 37.8252 28.5463 37.645C29.2754 37.4234 29.9677 37.0699 30.4957 36.6498C30.6888 36.4961 31.5931 35.6027 32.5051 34.6645C33.9849 33.1421 34.1944 32.8964 34.4525 32.3809C35.011 31.265 35.0214 30.2737 34.486 29.173C34.2384 28.6638 34.0429 28.4497 31.4927 25.8941C28.934 23.3301 28.7303 23.1435 28.2194 22.8954C27.1815 22.3915 26.1762 22.3948 25.1551 22.9056C24.7322 23.1172 24.3702 23.4231 23.0656 24.6716L21.4876 26.1817L20.7182 25.7617C17.5208 24.0166 13.6231 20.0852 11.9082 16.8759L11.5907 16.2816L12.9918 14.8634C14.8534 12.9791 15.1881 12.4544 15.2691 11.2941C15.3169 10.6107 15.2094 10.1216 14.8638 9.44965C14.643 9.02024 14.325 8.65912 12.8205 7.12905C9.40988 3.66056 8.95838 3.26857 8.06012 2.99534C7.6007 2.85565 7.15233 2.81947 6.64352 2.88107ZM6.45355 5.16317C6.18992 5.29459 5.63977 5.79955 4.45513 6.99749C2.2634 9.21377 2.17383 9.38187 2.17899 11.2658C2.18182 12.2745 2.20892 12.5419 2.38399 13.2888C3.09127 16.3055 4.94026 19.9862 7.33438 23.1434C10.9819 27.9536 15.1411 31.4212 20.192 33.8629C22.6152 35.0343 24.4796 35.6098 26.2951 35.7468C27.1922 35.8146 27.8328 35.7017 28.5463 35.3501C29.0836 35.0853 29.2512 34.9387 30.7662 33.4079C31.8774 32.285 32.4562 31.6452 32.5642 31.4203C32.751 31.0312 32.7683 30.5839 32.6111 30.2059C32.4717 29.8707 27.6576 25.0156 27.2597 24.809C26.9346 24.6401 26.4938 24.6292 26.1305 24.781C25.9602 24.8521 25.265 25.4868 24.225 26.5203C21.9564 28.7749 21.9078 28.7921 20.2447 27.9292C18.0724 26.802 16.1747 25.3489 14.1255 23.2435C12.1273 21.1905 10.7368 19.3413 9.88368 17.6021C9.38968 16.5952 9.29205 16.2022 9.41097 15.7004C9.49248 15.3567 9.60668 15.2236 11.2531 13.5541C12.6943 12.0928 13.0239 11.7208 13.095 11.4753C13.3328 10.6544 13.2699 10.5653 10.471 7.75809C7.95238 5.23211 7.64676 4.98192 7.07939 4.98192C6.93526 4.98192 6.65362 5.0635 6.45355 5.16317ZM19.8248 7.52155C19.7427 7.55482 19.5711 7.70099 19.4434 7.84635C19.2437 8.07374 19.2113 8.16556 19.2113 8.5022C19.2113 8.8185 19.2478 8.93706 19.4015 9.11977C19.6513 9.4166 19.8556 9.51343 20.5552 9.66672C22.4222 10.0757 24.058 10.9826 25.463 12.3876C26.9035 13.8282 27.7491 15.4041 28.2499 17.5819C28.4136 18.2937 28.7768 18.6397 29.3599 18.6391C29.8828 18.6386 30.3979 18.1456 30.3985 17.6452C30.3989 17.2835 30.1998 16.426 29.9237 15.6011C28.5898 11.6148 25.2262 8.55676 21.1154 7.59304C20.4801 7.44411 20.0718 7.42152 19.8248 7.52155Z" fill="white"/>
</g>
<defs>
<clipPath id="clip0_102_1124">
<rect width="37.1947" height="37.1947" fill="white" transform="translate(0.00390625 0.696289)"/>
</clipPath>
</defs>
</svg>
