<svg width="25" height="31" viewBox="0 0 25 31" fill="none" xmlns="http://www.w3.org/2000/svg">
<path d="M12.1167 0.260742C10.6083 0.260742 9.54787 1.33261 9.01592 2.66074H6.1167H4.9167H0.116699V30.2607H24.1167V2.66074H19.3167H18.1167H15.2175C14.6855 1.33261 13.6251 0.260742 12.1167 0.260742ZM12.1167 2.66074C12.7822 2.66074 13.3167 3.19529 13.3167 3.86074V5.06074H14.5167H16.9167V7.46074H7.3167V5.06074H10.9167V3.86074C10.9167 3.19529 11.4512 2.66074 12.1167 2.66074ZM2.5167 5.06074H4.9167V9.86074H19.3167V5.06074H21.7167V27.8607H2.5167V5.06074ZM10.9167 13.4607V16.1842L8.55889 14.8225L7.35889 16.899L9.71904 18.2607L7.35889 19.6225L8.55889 21.699L10.9167 20.3373V23.0607H13.3167V20.3373L15.6745 21.699L16.8745 19.6225L14.5144 18.2607L16.8745 16.899L15.6745 14.8225L13.3167 16.1842V13.4607H10.9167Z" fill="white"/>
</svg>
