<svg width="56" height="56" viewBox="0 0 56 56" fill="none" xmlns="http://www.w3.org/2000/svg">
<path fill-rule="evenodd" clip-rule="evenodd" d="M31.7394 15.4513C35.3073 16.5913 41.9786 20.2014 43.8786 31.6016C44.1319 33.1217 43.1819 34.5362 41.7463 34.8739C41.5774 34.8951 41.3874 34.9162 41.2185 34.9162C40.353 34.9162 39.5718 34.5151 39.0652 33.8817L33.4706 44.7964C33.4706 44.8175 33.4495 44.8386 33.4495 44.8386C33.4284 44.8597 32.0772 47.182 32.0561 49.061C32.0561 49.3987 31.7817 49.6521 31.465 49.6521C31.1272 49.631 30.8739 49.3776 30.8739 49.0398C30.9161 46.9076 32.2883 44.5008 32.4361 44.2475L38.1574 33.0795C38.4107 32.4883 38.3685 31.8339 38.0096 31.285C37.6507 30.7572 37.0596 30.4194 36.4262 30.4194L25.7226 31.0739C26.5671 31.9183 27.1793 32.995 27.4749 34.1984H32.5417C32.7528 34.1984 32.9428 34.3039 33.0483 34.4939C33.1539 34.6839 33.1539 34.8951 33.0483 35.0851L30.1561 40.0252C29.8394 40.6585 28.8683 41.7141 27.306 41.2074C26.8627 41.0596 26.3349 40.8696 25.7648 40.6374C24.4982 41.9886 22.7037 42.833 20.6981 42.833C18.9458 42.833 17.3624 42.1786 16.138 41.123L16.1376 41.1232C15.4622 41.482 14.7867 41.8408 14.1746 42.1786C10.6701 44.0997 8.39001 45.5986 8.3689 49.0398C8.3689 49.3565 8.09444 49.631 7.77777 49.631C7.43999 49.631 7.18665 49.3776 7.18665 49.0398C7.20771 44.6578 10.5925 42.7986 13.5857 41.1544L13.6046 41.1441C14.1324 40.8485 14.7024 40.5319 15.2724 40.2363C14.3013 39.0329 13.7312 37.5129 13.7312 35.8662C13.7312 35.6129 13.7523 35.3596 13.7735 35.1063L13.7735 35.1062L13.7465 35.0775C13.064 34.3511 11.0408 32.1976 10.3534 30.9894C9.06558 28.7094 9.55114 26.0071 11.8101 22.967C15.0613 18.5969 18.608 16.7602 20.1069 16.148C19.6425 15.2613 19.368 14.2479 19.368 13.1712C19.368 9.64559 22.2392 6.77441 25.7648 6.77441C29.2905 6.77441 32.1617 9.64559 32.1617 13.1712C32.1617 13.9735 32.0139 14.7546 31.7394 15.4513ZM30.9583 13.1712C30.9583 10.3 28.6149 7.95666 25.7437 7.95666C22.8726 7.95666 20.5503 10.3 20.5292 13.1712C20.5292 16.0424 22.8726 18.3858 25.7437 18.3858C28.6149 18.3858 30.9583 16.0424 30.9583 13.1712ZM29.0583 39.3918L31.4439 35.3384H27.5804C27.6016 35.5073 27.6016 35.6762 27.6016 35.8451C27.6016 37.2385 27.2004 38.5263 26.4826 39.6241C26.636 39.6777 26.7838 39.7314 26.926 39.7831C27.1754 39.8736 27.4076 39.958 27.6227 40.0252C28.5855 40.3391 28.988 39.5325 29.036 39.4364L29.0371 39.4341C29.0371 39.4341 29.0583 39.4129 29.0583 39.3918ZM14.8924 35.8662C14.8924 39.0329 17.468 41.6297 20.6558 41.6297C23.8437 41.6297 26.4404 39.0329 26.4193 35.8662C26.4193 32.6995 23.8437 30.1027 20.6558 30.1027C17.4891 30.1027 14.8924 32.6783 14.8924 35.8662ZM36.3206 29.1738H36.3629C36.8273 29.1738 37.2918 29.2794 37.714 29.4694C36.6795 25.986 35.434 24.8459 33.4917 24.0648C33.0061 23.8748 32.6261 23.8959 32.3094 24.1493C31.5916 24.7193 31.0639 26.556 31.4228 29.4694L36.3206 29.1738ZM41.1763 33.6706C41.2608 33.6706 41.3663 33.6706 41.4719 33.6495C42.3163 33.4806 42.8652 32.6783 42.6964 31.7917C40.8596 20.7925 34.4417 17.4991 31.1905 16.5069C30.0716 18.3436 28.0449 19.568 25.7437 19.568C23.7381 19.568 21.9437 18.618 20.7614 17.1613C19.6214 17.6047 15.9902 19.2936 12.7601 23.6637C10.7967 26.3026 10.3323 28.5616 11.3667 30.3772C11.8523 31.2428 13.2034 32.7417 14.0479 33.6706C14.3646 32.6995 14.8924 31.8339 15.568 31.095C13.9635 29.0683 14.9557 27.2527 15.3146 26.7038C16.2013 25.3737 17.1935 24.2337 17.2358 24.1915C17.4469 23.9381 17.8269 23.917 18.0802 24.1281C18.3336 24.3393 18.3547 24.7193 18.1436 24.9726C18.1224 24.9937 17.1513 26.1126 16.3069 27.3793C15.9268 27.9493 15.5046 29.026 16.4546 30.2927C17.6158 29.4061 19.0725 28.8783 20.6558 28.8783C21.9859 28.8783 23.2315 29.2583 24.287 29.9127L30.2405 29.5538C29.8816 26.5138 30.3883 24.1704 31.5917 23.2204C32.0561 22.8615 32.8372 22.5237 33.9562 22.967C37.1229 24.2548 38.4951 26.5349 39.6352 32.4039C39.7829 33.1428 40.4374 33.6706 41.1763 33.6706ZM48.1432 36.774C47.9954 36.5629 47.7631 36.4151 47.4887 36.3729C46.9398 36.2884 46.4331 36.6473 46.3487 37.1962C46.3065 37.4496 46.3698 37.724 46.5176 37.9351C46.6654 38.1462 46.8976 38.294 47.172 38.3363C47.1931 38.3363 47.2195 38.3415 47.2459 38.3468C47.2723 38.3521 47.2987 38.3574 47.3198 38.3574C47.8054 38.3574 48.2276 37.9985 48.2909 37.5129C48.3543 37.2384 48.2909 36.9851 48.1432 36.774ZM43.4354 43.7408C43.5198 43.1919 44.0265 42.833 44.5754 42.9175C45.1032 43.0019 45.4832 43.5086 45.3987 44.0575C45.3565 44.3319 45.2087 44.5642 44.9976 44.7119C44.8076 44.8386 44.6176 44.9019 44.4065 44.9019C44.3854 44.9019 44.359 44.8967 44.3326 44.8914C44.3062 44.8861 44.2798 44.8808 44.2587 44.8808C43.7098 44.7964 43.3509 44.2897 43.4354 43.7408ZM37.9465 47.6892C38.0309 47.1403 38.5376 46.7814 39.0865 46.8658C39.6354 46.9503 39.9943 47.4569 39.8888 48.0058C39.8254 48.4914 39.4032 48.8503 38.9176 48.8503C38.8965 48.8503 38.8701 48.845 38.8437 48.8397C38.8173 48.8345 38.791 48.8292 38.7698 48.8292C38.2209 48.7447 37.862 48.2381 37.9465 47.6892Z" fill="white"/>
<path d="M43.8786 31.6016L44.3718 31.5194L43.8786 31.6016ZM31.7394 15.4513L31.2742 15.268L31.0785 15.765L31.5872 15.9276L31.7394 15.4513ZM41.7463 34.8739L41.8083 35.3701L41.8348 35.3668L41.8608 35.3607L41.7463 34.8739ZM39.0652 33.8817L39.4556 33.5694L38.9728 32.9658L38.6202 33.6536L39.0652 33.8817ZM33.4706 44.7964L33.0256 44.5683L32.9706 44.6757V44.7964H33.4706ZM33.4495 44.8386L33.803 45.1922L33.8031 45.1921L33.4495 44.8386ZM32.0561 49.061L31.5561 49.0553V49.061H32.0561ZM31.465 49.6521L31.4338 50.1511L31.4494 50.1521H31.465V49.6521ZM30.8739 49.0398L30.3739 49.0299V49.0398H30.8739ZM32.4361 44.2475L32.868 44.4994L32.8749 44.4876L32.8811 44.4755L32.4361 44.2475ZM38.1574 33.0795L38.6024 33.3074L38.6102 33.2922L38.6169 33.2764L38.1574 33.0795ZM38.0096 31.285L38.4281 31.0113L38.423 31.0038L38.0096 31.285ZM36.4262 30.4194V29.9194H36.4109L36.3957 29.9203L36.4262 30.4194ZM25.7226 31.0739L25.6921 30.5748L24.5842 30.6425L25.3691 31.4274L25.7226 31.0739ZM27.4749 34.1984L26.9893 34.3176L27.0828 34.6984H27.4749V34.1984ZM33.0483 34.4939L32.6113 34.7368L32.6113 34.7368L33.0483 34.4939ZM33.0483 35.0851L33.4799 35.3377L33.4854 35.3279L33.0483 35.0851ZM30.1561 40.0252L29.7246 39.7726L29.7162 39.7868L29.7088 39.8016L30.1561 40.0252ZM27.306 41.2074L27.1479 41.6818L27.1517 41.683L27.306 41.2074ZM25.7648 40.6374L25.9535 40.1744L25.6352 40.0447L25.4001 40.2954L25.7648 40.6374ZM16.138 41.123L16.4644 40.7443L16.2075 40.5228L15.9067 40.6797L16.138 41.123ZM16.1376 41.1232L15.9063 40.6799L15.9031 40.6816L16.1376 41.1232ZM14.1746 42.1786L14.4149 42.617L14.4161 42.6164L14.1746 42.1786ZM8.3689 49.0398L7.8689 49.0368V49.0398H8.3689ZM7.18665 49.0398L6.68665 49.0374V49.0398H7.18665ZM13.5857 41.1544L13.8264 41.5927L13.8264 41.5927L13.5857 41.1544ZM13.6046 41.1441L13.8453 41.5823L13.8489 41.5803L13.6046 41.1441ZM15.2724 40.2363L15.5025 40.6802L16.0458 40.3985L15.6615 39.9223L15.2724 40.2363ZM13.7735 35.1063L14.2717 35.1478L13.7735 35.1063ZM13.7735 35.1062L14.2717 35.1477L14.2902 34.926L14.1379 34.7638L13.7735 35.1062ZM13.7465 35.0775L14.1109 34.7352L14.1109 34.7351L13.7465 35.0775ZM10.3534 30.9894L9.91803 31.2353L9.9188 31.2367L10.3534 30.9894ZM11.8101 22.967L11.4089 22.6686L11.4087 22.6688L11.8101 22.967ZM20.1069 16.148L20.296 16.6108L20.805 16.403L20.5499 15.916L20.1069 16.148ZM20.5292 13.1712L20.0292 13.1675V13.1712H20.5292ZM31.4439 35.3384L31.8748 35.592L32.3183 34.8384H31.4439V35.3384ZM29.0583 39.3918L28.6273 39.1382L28.5583 39.2556V39.3918H29.0583ZM27.5804 35.3384V34.8384H27.0141L27.0843 35.4004L27.5804 35.3384ZM26.4826 39.6241L26.0642 39.3504L25.7146 39.885L26.3175 40.096L26.4826 39.6241ZM26.926 39.7831L26.7553 40.253H26.7553L26.926 39.7831ZM27.6227 40.0252L27.7777 39.5498L27.7718 39.5479L27.6227 40.0252ZM29.036 39.4364L28.5888 39.2128L28.5886 39.2131L29.036 39.4364ZM29.0371 39.4341L28.6836 39.0805L28.6262 39.1379L28.5899 39.2105L29.0371 39.4341ZM26.4193 35.8662H25.9193L25.9193 35.8695L26.4193 35.8662ZM36.3206 29.1738V28.6738H36.3056L36.2905 28.6747L36.3206 29.1738ZM37.714 29.4694L37.5088 29.9253L38.504 30.3732L38.1933 29.327L37.714 29.4694ZM33.4917 24.0648L33.6783 23.6009L33.6739 23.5992L33.4917 24.0648ZM32.3094 24.1493L32.6204 24.5408L32.6218 24.5397L32.3094 24.1493ZM31.4228 29.4694L30.9265 29.5305L30.9839 29.9968L31.4529 29.9685L31.4228 29.4694ZM41.4719 33.6495L41.5699 34.1398L41.5699 34.1398L41.4719 33.6495ZM42.6964 31.7917L42.2031 31.874L42.2052 31.8852L42.6964 31.7917ZM31.1905 16.5069L31.3365 16.0286L30.9654 15.9154L30.7635 16.2467L31.1905 16.5069ZM20.7614 17.1613L21.1496 16.8462L20.9199 16.5632L20.5802 16.6953L20.7614 17.1613ZM12.7601 23.6637L13.1613 23.9622L13.1622 23.9609L12.7601 23.6637ZM11.3667 30.3772L11.8028 30.1325L11.8012 30.1297L11.3667 30.3772ZM14.0479 33.6706L13.6779 34.0069L14.2566 34.6434L14.5233 33.8256L14.0479 33.6706ZM15.568 31.095L15.937 31.4324L16.2241 31.1183L15.96 30.7846L15.568 31.095ZM15.3146 26.7038L14.8986 26.4264L14.8961 26.4301L15.3146 26.7038ZM17.2358 24.1915L17.5893 24.545L17.6054 24.529L17.6199 24.5116L17.2358 24.1915ZM18.0802 24.1281L18.4003 23.744L18.4003 23.744L18.0802 24.1281ZM18.1436 24.9726L18.4971 25.3262L18.5131 25.3101L18.5277 25.2927L18.1436 24.9726ZM16.3069 27.3793L16.7229 27.6567L16.3069 27.3793ZM16.4546 30.2927L16.0546 30.5927L16.3572 30.9962L16.7581 30.6901L16.4546 30.2927ZM24.287 29.9127L24.0236 30.3377L24.1586 30.4214L24.3171 30.4118L24.287 29.9127ZM30.2405 29.5538L30.2706 30.0529L30.7991 30.0211L30.7371 29.4952L30.2405 29.5538ZM31.5917 23.2204L31.2859 22.8247L31.2818 22.8279L31.5917 23.2204ZM33.9562 22.967L34.1445 22.5038L34.1403 22.5022L33.9562 22.967ZM39.6352 32.4039L39.1443 32.4992L39.1449 32.502L39.6352 32.4039ZM47.4887 36.3729L47.4127 36.8671L47.4887 36.3729ZM48.1432 36.774L48.5528 36.4873V36.4873L48.1432 36.774ZM46.3487 37.1962L46.8419 37.2784L46.8429 37.2722L46.3487 37.1962ZM46.5176 37.9351L46.108 38.2219V38.2219L46.5176 37.9351ZM47.172 38.3363L47.096 38.8304L47.1338 38.8363H47.172V38.3363ZM48.2909 37.5129L47.8037 37.4005L47.7983 37.4241L47.7951 37.4482L48.2909 37.5129ZM44.5754 42.9175L44.6544 42.4237L44.6514 42.4233L44.5754 42.9175ZM45.3987 44.0575L44.9045 43.9815V43.9815L45.3987 44.0575ZM44.9976 44.7119L45.275 45.1281L45.2843 45.1216L44.9976 44.7119ZM44.2587 44.8808L44.1827 45.375L44.2205 45.3808H44.2587V44.8808ZM37.9465 47.6892L38.4407 47.7652V47.7652L37.9465 47.6892ZM39.8888 48.0058L39.3978 47.9114L39.3949 47.9262L39.393 47.9412L39.8888 48.0058ZM38.7698 48.8292L38.6938 49.3234L38.7316 49.3292H38.7698V48.8292ZM44.3718 31.5194C43.4068 25.7292 41.2226 21.8827 38.7966 19.3341C36.374 16.7891 33.7345 15.5638 31.8916 14.975L31.5872 15.9276C33.3123 16.4787 35.7923 17.6285 38.0723 20.0236C40.3489 22.4152 42.4504 26.0738 43.3854 31.6838L44.3718 31.5194ZM41.8608 35.3607C43.5577 34.9614 44.6676 33.2942 44.3718 31.5194L43.3854 31.6838C43.5963 32.9491 42.8061 34.1109 41.6318 34.3872L41.8608 35.3607ZM41.2185 35.4162C41.4218 35.4162 41.6396 35.3912 41.8083 35.3701L41.6843 34.3778C41.5153 34.3989 41.353 34.4162 41.2185 34.4162V35.4162ZM38.6747 34.1941C39.2731 34.942 40.196 35.4162 41.2185 35.4162V34.4162C40.51 34.4162 39.8706 34.0881 39.4556 33.5694L38.6747 34.1941ZM33.9155 45.0245L39.5101 34.1098L38.6202 33.6536L33.0256 44.5683L33.9155 45.0245ZM33.4495 44.8386C33.8031 45.1921 33.8032 45.192 33.8033 45.1919C33.8033 45.1919 33.8034 45.1918 33.8035 45.1917C33.8036 45.1916 33.8037 45.1915 33.8038 45.1914C33.804 45.1912 33.8043 45.1909 33.8045 45.1907C33.805 45.1902 33.8055 45.1897 33.806 45.1892C33.807 45.1882 33.808 45.1871 33.8091 45.186C33.8112 45.1838 33.8135 45.1814 33.816 45.1788C33.8208 45.1735 33.8264 45.1674 33.8325 45.1603C33.8441 45.1467 33.8597 45.1273 33.8761 45.1027C33.898 45.0699 33.9706 44.9572 33.9706 44.7964H32.9706C32.9706 44.7202 32.9891 44.6611 33.003 44.6262C33.0174 44.5904 33.0334 44.564 33.044 44.5482C33.055 44.5315 33.0654 44.5187 33.0731 44.5097C33.0771 44.5049 33.0811 44.5006 33.0848 44.4966C33.0866 44.4946 33.0885 44.4927 33.0903 44.4908C33.0912 44.4898 33.0921 44.4889 33.0931 44.488C33.0935 44.4875 33.094 44.487 33.0944 44.4866C33.0947 44.4863 33.0949 44.4861 33.0951 44.4859C33.0952 44.4858 33.0954 44.4856 33.0955 44.4855C33.0955 44.4855 33.0956 44.4854 33.0956 44.4853C33.0957 44.4853 33.0958 44.4852 33.4495 44.8386ZM32.5561 49.0666C32.5655 48.2257 32.8779 47.2476 33.2139 46.4465C33.3791 46.0525 33.5445 45.7141 33.6695 45.4737C33.7319 45.3536 33.7838 45.2588 33.82 45.1946C33.8381 45.1624 33.8518 45.1388 33.8605 45.1242C33.8626 45.1206 33.8643 45.1178 33.8655 45.1157C33.8669 45.1136 33.8674 45.1127 33.8674 45.1127C33.8674 45.1128 33.867 45.1133 33.8663 45.1144C33.8657 45.1153 33.8644 45.1173 33.8626 45.1201C33.8611 45.1223 33.8573 45.128 33.8519 45.1353C33.8519 45.1353 33.8325 45.1627 33.803 45.1922L33.0959 44.4851C33.0661 44.5149 33.0462 44.5429 33.0455 44.5438C33.0395 44.552 33.0349 44.5589 33.0324 44.5625C33.0272 44.5703 33.0228 44.5773 33.0199 44.5818C33.0138 44.5916 33.0072 44.6026 33.0007 44.6136C32.9872 44.6362 32.9697 44.6665 32.9488 44.7035C32.907 44.7777 32.8497 44.8825 32.7822 45.0125C32.6472 45.2721 32.4695 45.6357 32.2917 46.0597C31.9415 46.8947 31.5678 48.0173 31.5561 49.0553L32.5561 49.0666ZM31.465 50.1521C32.0461 50.1521 32.5561 49.6865 32.5561 49.061H31.5561C31.5561 49.0896 31.5459 49.1099 31.5301 49.1253C31.5126 49.1424 31.4891 49.1521 31.465 49.1521V50.1521ZM30.3739 49.0398C30.3739 49.6587 30.8499 50.1146 31.4338 50.1511L31.4962 49.153C31.4452 49.1499 31.4157 49.131 31.4006 49.1155C31.3868 49.1014 31.3739 49.0792 31.3739 49.0398H30.3739ZM32.0042 43.9956C31.9235 44.1339 31.5312 44.821 31.1524 45.7503C30.7768 46.6718 30.3969 47.8733 30.374 49.0299L31.3738 49.0497C31.3931 48.0741 31.7204 47.0061 32.0784 46.1278C32.4332 45.2573 32.8009 44.6144 32.868 44.4994L32.0042 43.9956ZM37.7124 32.8515L31.9911 44.0195L32.8811 44.4755L38.6024 33.3074L37.7124 32.8515ZM37.5911 31.5586C37.8544 31.9613 37.8881 32.4384 37.6978 32.8825L38.6169 33.2764C38.9333 32.5382 38.8825 31.7064 38.4281 31.0113L37.5911 31.5586ZM36.4262 30.9194C36.8802 30.9194 37.3223 31.1634 37.5961 31.5661L38.423 31.0038C37.9791 30.351 37.2389 29.9194 36.4262 29.9194V30.9194ZM25.7531 31.5729L36.4567 30.9185L36.3957 29.9203L25.6921 30.5748L25.7531 31.5729ZM27.9605 34.0791C27.6432 32.7874 26.9855 31.6296 26.0762 30.7203L25.3691 31.4274C26.1487 32.2071 26.7155 33.2026 26.9893 34.3176L27.9605 34.0791ZM32.5417 33.6984H27.4749V34.6984H32.5417V33.6984ZM33.4854 34.2511C33.2882 33.896 32.927 33.6984 32.5417 33.6984V34.6984C32.5633 34.6984 32.577 34.7036 32.5851 34.7082C32.5927 34.7126 32.6021 34.7202 32.6113 34.7368L33.4854 34.2511ZM33.4854 35.3279C33.6749 34.9869 33.6749 34.5921 33.4854 34.2511L32.6113 34.7368C32.6252 34.7618 32.6275 34.779 32.6275 34.7895C32.6275 34.8 32.6252 34.8172 32.6113 34.8422L33.4854 35.3279ZM30.5876 40.2778L33.4798 35.3377L32.6169 34.8324L29.7246 39.7726L30.5876 40.2778ZM27.1517 41.683C28.0758 41.9827 28.8567 41.8232 29.4508 41.4753C30.027 41.1378 30.4101 40.6352 30.6033 40.2488L29.7088 39.8016C29.5854 40.0485 29.3246 40.3903 28.9454 40.6124C28.5842 40.8239 28.0985 40.9388 27.4603 40.7318L27.1517 41.683ZM25.5762 41.1005C26.1576 41.3373 26.6957 41.531 27.1479 41.6818L27.4641 40.7331C27.0296 40.5882 26.5121 40.402 25.9535 40.1744L25.5762 41.1005ZM20.6981 43.333C22.8478 43.333 24.7725 42.4269 26.1296 40.9794L25.4001 40.2954C24.2238 41.5502 22.5595 42.333 20.6981 42.333V43.333ZM15.8115 41.5017C17.1203 42.63 18.8178 43.333 20.6981 43.333V42.333C19.0738 42.333 17.6045 41.7271 16.4644 40.7443L15.8115 41.5017ZM16.3689 41.5664L16.3692 41.5663L15.9067 40.6797L15.9063 40.6799L16.3689 41.5664ZM14.4161 42.6164C15.0241 42.2809 15.6959 41.924 16.3722 41.5647L15.9031 40.6816C15.2284 41.04 14.5493 41.4008 13.933 41.7408L14.4161 42.6164ZM8.86889 49.0429C8.87863 47.4551 9.40068 46.3423 10.3249 45.3868C11.2754 44.404 12.6554 43.5816 14.4149 42.617L13.9342 41.7401C12.1893 42.6967 10.677 43.5843 9.60606 44.6916C8.50881 45.8261 7.88028 47.1834 7.86891 49.0368L8.86889 49.0429ZM7.77777 50.131C8.3706 50.131 8.8689 49.6326 8.8689 49.0398H7.8689C7.8689 49.0522 7.86286 49.0763 7.83853 49.1006C7.8142 49.1249 7.79012 49.131 7.77777 49.131V50.131ZM6.68665 49.0398C6.68665 49.6537 7.16383 50.131 7.77777 50.131V49.131C7.73726 49.131 7.71794 49.1174 7.7091 49.1085C7.70025 49.0997 7.68665 49.0803 7.68665 49.0398H6.68665ZM13.345 40.7162C10.3969 42.3356 6.70932 44.323 6.68665 49.0374L7.68664 49.0422C7.70611 44.9926 10.7881 43.2616 13.8264 41.5927L13.345 40.7162ZM13.3638 40.7059L13.345 40.7162L13.8264 41.5927L13.8453 41.5823L13.3638 40.7059ZM15.0422 39.7924C14.4645 40.092 13.8884 40.4121 13.3603 40.7078L13.8489 41.5803C14.3763 41.285 14.9403 40.9717 15.5025 40.6802L15.0422 39.7924ZM13.2312 35.8662C13.2312 37.6304 13.8425 39.2606 14.8833 40.5503L15.6615 39.9223C14.76 38.8053 14.2312 37.3954 14.2312 35.8662H13.2312ZM13.2752 35.0647C13.2544 35.3145 13.2312 35.5886 13.2312 35.8662H14.2312C14.2312 35.6372 14.2503 35.4046 14.2717 35.1478L13.2752 35.0647ZM13.2752 35.0647L13.2752 35.0647L14.2717 35.1478L14.2717 35.1477L13.2752 35.0647ZM13.3821 35.4198L13.409 35.4485L14.1379 34.7638L14.1109 34.7352L13.3821 35.4198ZM9.9188 31.2367C10.29 31.8891 10.9988 32.7635 11.6742 33.5418C12.3583 34.3302 13.0408 35.0566 13.3821 35.4199L14.1109 34.7351C13.7697 34.372 13.0993 33.6584 12.4294 32.8864C11.7507 32.1043 11.1041 31.2979 10.788 30.7422L9.9188 31.2367ZM11.4087 22.6688C9.09208 25.7866 8.49154 28.7097 9.91803 31.2353L10.7887 30.7435C9.63961 28.709 10.0102 26.2276 12.2114 23.2652L11.4087 22.6688ZM19.9179 15.6851C18.3537 16.324 14.7256 18.2104 11.4089 22.6686L12.2112 23.2655C15.3969 18.9834 18.8624 17.1964 20.296 16.6108L19.9179 15.6851ZM18.868 13.1712C18.868 14.3338 19.1645 15.4263 19.664 16.38L20.5499 15.916C20.1205 15.0963 19.868 14.1621 19.868 13.1712H18.868ZM25.7648 6.27441C21.9631 6.27441 18.868 9.36945 18.868 13.1712H19.868C19.868 9.92173 22.5154 7.27441 25.7648 7.27441V6.27441ZM32.6617 13.1712C32.6617 9.36945 29.5666 6.27441 25.7648 6.27441V7.27441C29.0143 7.27441 31.6617 9.92173 31.6617 13.1712H32.6617ZM32.2046 15.6345C32.503 14.8773 32.6617 14.0338 32.6617 13.1712H31.6617C31.6617 13.9132 31.5248 14.6319 31.2742 15.268L32.2046 15.6345ZM25.7437 8.45666C28.3388 8.45666 30.4583 10.5762 30.4583 13.1712H31.4583C31.4583 10.0239 28.8911 7.45666 25.7437 7.45666V8.45666ZM21.0292 13.1749C21.0483 10.5736 23.152 8.45666 25.7437 8.45666V7.45666C22.5931 7.45666 20.0523 10.0265 20.0292 13.1675L21.0292 13.1749ZM25.7437 17.8858C23.1487 17.8858 21.0292 15.7663 21.0292 13.1712H20.0292C20.0292 16.3185 22.5964 18.8858 25.7437 18.8858V17.8858ZM30.4583 13.1712C30.4583 15.7663 28.3388 17.8858 25.7437 17.8858V18.8858C28.8911 18.8858 31.4583 16.3185 31.4583 13.1712H30.4583ZM31.013 35.0848L28.6273 39.1382L29.4892 39.6454L31.8748 35.592L31.013 35.0848ZM27.5804 35.8384H31.4439V34.8384H27.5804V35.8384ZM28.1016 35.8451C28.1016 35.6813 28.1022 35.4813 28.0766 35.2764L27.0843 35.4004C27.1009 35.5333 27.1016 35.6711 27.1016 35.8451H28.1016ZM26.9011 39.8977C27.6714 38.7197 28.1016 37.337 28.1016 35.8451H27.1016C27.1016 37.1399 26.7295 38.3329 26.0642 39.3504L26.9011 39.8977ZM27.0967 39.3131C26.9549 39.2616 26.8044 39.2069 26.6478 39.1521L26.3175 40.096C26.4676 40.1485 26.6127 40.2012 26.7553 40.253L27.0967 39.3131ZM27.7718 39.5479C27.5697 39.4848 27.3487 39.4046 27.0967 39.3131L26.7553 40.253C27.002 40.3426 27.2455 40.4312 27.4735 40.5024L27.7718 39.5479ZM28.5886 39.2131C28.5722 39.2459 28.501 39.3857 28.3677 39.4881C28.261 39.5701 28.09 39.6516 27.7777 39.5498L27.4677 40.5005C28.1182 40.7127 28.6298 40.5479 28.9771 40.281C29.2978 40.0345 29.4518 39.7229 29.4834 39.6596L28.5886 39.2131ZM28.5899 39.2105L28.5888 39.2128L29.4832 39.66L29.4844 39.6577L28.5899 39.2105ZM28.5583 39.3918C28.5583 39.3156 28.5768 39.2565 28.5907 39.2217C28.6051 39.1858 28.6211 39.1593 28.6317 39.1435C28.6427 39.1269 28.6531 39.114 28.6608 39.1051C28.6649 39.1003 28.6688 39.0959 28.6725 39.092C28.6744 39.09 28.6762 39.088 28.6781 39.0861C28.679 39.0852 28.6799 39.0842 28.6808 39.0833C28.6813 39.0828 28.6817 39.0824 28.6822 39.0819C28.6824 39.0817 28.6827 39.0814 28.6829 39.0812C28.683 39.0811 28.6831 39.081 28.6832 39.0809C28.6833 39.0808 28.6834 39.0807 28.6834 39.0807C28.6835 39.0806 28.6836 39.0805 29.0371 39.4341C29.3907 39.7876 29.3908 39.7875 29.3909 39.7874C29.3909 39.7874 29.391 39.7873 29.3911 39.7873C29.3912 39.7871 29.3913 39.787 29.3914 39.7869C29.3916 39.7867 29.3919 39.7864 29.3921 39.7862C29.3926 39.7857 29.3931 39.7852 29.3936 39.7847C29.3946 39.7837 29.3956 39.7826 29.3967 39.7815C29.3988 39.7793 29.4011 39.7769 29.4036 39.7743C29.4085 39.769 29.414 39.7629 29.4201 39.7558C29.4317 39.7422 29.4474 39.7227 29.4637 39.6982C29.4856 39.6654 29.5583 39.5527 29.5583 39.3918H28.5583ZM20.6558 41.1297C17.7453 41.1297 15.3924 38.758 15.3924 35.8662H14.3924C14.3924 39.3079 17.1907 42.1297 20.6558 42.1297V41.1297ZM25.9193 35.8695C25.9386 38.7557 23.5694 41.1297 20.6558 41.1297V42.1297C24.118 42.1297 26.9423 39.3102 26.9193 35.8629L25.9193 35.8695ZM20.6558 30.6027C23.5664 30.6027 25.9193 32.9744 25.9193 35.8662H26.9193C26.9193 32.4245 24.121 29.6027 20.6558 29.6027V30.6027ZM15.3924 35.8662C15.3924 32.9557 17.7641 30.6027 20.6558 30.6027V29.6027C17.2142 29.6027 14.3924 32.401 14.3924 35.8662H15.3924ZM36.3629 28.6738H36.3206V29.6738H36.3629V28.6738ZM37.9192 29.0134C37.4362 28.7961 36.9021 28.6738 36.3629 28.6738V29.6738C36.7525 29.6738 37.1473 29.7627 37.5088 29.9253L37.9192 29.0134ZM33.3051 24.5287C34.2271 24.8995 34.9451 25.3389 35.5596 26.0743C36.1821 26.8194 36.7273 27.9032 37.2347 29.6117L38.1933 29.327C37.6662 27.5521 37.0714 26.3242 36.327 25.4332C35.5744 24.5324 34.6985 24.0112 33.6783 23.6009L33.3051 24.5287ZM32.6218 24.5397C32.7524 24.4352 32.9263 24.3805 33.3095 24.5304L33.6739 23.5992C33.0859 23.3691 32.4998 23.3566 31.9971 23.7588L32.6218 24.5397ZM31.919 29.4082C31.7444 27.9907 31.7887 26.8582 31.9529 26.0275C32.1214 25.1747 32.4003 24.7156 32.6204 24.5408L31.9985 23.7577C31.5008 24.1529 31.1569 24.8971 30.9718 25.8336C30.7824 26.7921 30.7422 28.0346 30.9265 29.5305L31.919 29.4082ZM36.2905 28.6747L31.3926 28.9703L31.4529 29.9685L36.3508 29.6729L36.2905 28.6747ZM41.3738 33.1592C41.3238 33.1692 41.2659 33.1706 41.1763 33.1706V34.1706C41.2556 34.1706 41.4089 34.172 41.5699 34.1398L41.3738 33.1592ZM42.2052 31.8852C42.3235 32.5066 41.945 33.0449 41.3738 33.1592L41.5699 34.1398C42.6876 33.9162 43.4069 32.8501 43.1875 31.6981L42.2052 31.8852ZM31.0446 16.9851C32.6109 17.4631 34.9467 18.4974 37.114 20.7438C39.2779 22.9867 41.2999 26.4647 42.2032 31.874L43.1895 31.7093C42.2561 26.1195 40.1507 22.4512 37.8337 20.0495C35.5201 17.6514 33.0213 16.5428 31.3365 16.0286L31.0446 16.9851ZM25.7437 20.068C28.226 20.068 30.4114 18.7468 31.6175 16.767L30.7635 16.2467C29.7318 17.9403 27.8638 19.068 25.7437 19.068V20.068ZM20.3732 17.4764C21.6431 19.0411 23.5763 20.068 25.7437 20.068V19.068C23.9 19.068 22.2442 18.1949 21.1496 16.8462L20.3732 17.4764ZM13.1622 23.9609C16.3211 19.6871 19.8637 18.0469 20.9426 17.6273L20.5802 16.6953C19.379 17.1624 15.6593 18.9001 12.358 23.3665L13.1622 23.9609ZM11.8012 30.1297C10.9151 28.5745 11.241 26.5431 13.1613 23.9622L12.359 23.3652C10.3524 26.0622 9.74946 28.5487 10.9323 30.6247L11.8012 30.1297ZM14.4179 33.3343C13.9957 32.8698 13.4526 32.2692 12.9553 31.6782C12.4509 31.0788 12.02 30.5197 11.8028 30.1326L10.9307 30.6218C11.199 31.1002 11.6865 31.7234 12.1902 32.322C12.701 32.9292 13.2557 33.5425 13.6779 34.0069L14.4179 33.3343ZM15.1989 30.7576C14.4795 31.5445 13.9131 32.4711 13.5725 33.5156L14.5233 33.8256C14.816 32.9278 15.3053 32.1233 15.937 31.4324L15.1989 30.7576ZM14.8961 26.4301C14.6964 26.7357 14.3138 27.402 14.2085 28.2861C14.1011 29.1881 14.2874 30.283 15.1759 31.4053L15.96 30.7846C15.244 29.8803 15.1242 29.054 15.2015 28.4043C15.281 27.7367 15.574 27.2208 15.7331 26.9774L14.8961 26.4301ZM16.8822 23.8379C16.8108 23.9093 15.7982 25.0769 14.8986 26.4264L15.7306 26.9811C16.1636 26.3316 16.6242 25.726 16.9827 25.2765C17.3499 24.8162 17.5914 24.543 17.5893 24.545L16.8822 23.8379ZM18.4003 23.744C17.9508 23.3694 17.2526 23.3903 16.8517 23.8714L17.6199 24.5116C17.6323 24.4966 17.6503 24.4863 17.6766 24.4845C17.7044 24.4825 17.7349 24.4912 17.7601 24.5123L18.4003 23.744ZM18.5277 25.2927C18.9023 24.8432 18.8814 24.145 18.4003 23.744L17.7601 24.5123C17.7751 24.5247 17.7854 24.5427 17.7873 24.5689C17.7892 24.5967 17.7805 24.6273 17.7594 24.6525L18.5277 25.2927ZM16.7229 27.6567C17.5547 26.4089 18.5055 25.3178 18.4971 25.3262L17.79 24.6191C17.7394 24.6697 16.7479 25.8163 15.8908 27.102L16.7229 27.6567ZM16.8546 29.9927C16.4475 29.45 16.3552 28.9816 16.3808 28.6091C16.4073 28.2242 16.5635 27.8958 16.7229 27.6567L15.8908 27.102C15.6702 27.4329 15.4253 27.9278 15.3832 28.5405C15.3402 29.1655 15.5117 29.8688 16.0546 30.5927L16.8546 29.9927ZM20.6558 28.3783C18.9596 28.3783 17.3969 28.9441 16.1512 29.8954L16.7581 30.6901C17.8347 29.868 19.1854 29.3783 20.6558 29.3783V28.3783ZM24.5505 29.4878C23.4187 28.786 22.0823 28.3783 20.6558 28.3783V29.3783C21.8895 29.3783 23.0443 29.7305 24.0236 30.3377L24.5505 29.4878ZM30.2104 29.0547L24.257 29.4136L24.3171 30.4118L30.2706 30.0529L30.2104 29.0547ZM31.2818 22.8279C30.5528 23.4035 30.0862 24.3549 29.8413 25.4986C29.5946 26.6509 29.56 28.0543 29.744 29.6125L30.7371 29.4952C30.5621 28.0133 30.6014 26.7249 30.8192 25.708C31.0387 24.6825 31.4271 23.9873 31.9015 23.6128L31.2818 22.8279ZM34.1403 22.5022C32.8262 21.9815 31.8614 22.3801 31.2859 22.8247L31.8974 23.616C32.2509 23.3429 32.8482 23.0658 33.772 23.4319L34.1403 22.5022ZM40.126 32.3086C39.5535 29.3611 38.9124 27.2523 37.9841 25.7097C37.0401 24.1411 35.8149 23.1831 34.1445 22.5038L33.7678 23.4302C35.2641 24.0387 36.3085 24.8647 37.1273 26.2253C37.9617 27.6119 38.5768 29.5777 39.1443 32.4992L40.126 32.3086ZM41.1763 33.1706C40.6745 33.1706 40.2262 32.8098 40.1255 32.3058L39.1449 32.502C39.3396 33.4758 40.2004 34.1706 41.1763 34.1706V33.1706ZM47.4127 36.8671C47.5538 36.8888 47.6649 36.9626 47.7335 37.0607L48.5528 36.4873C48.3259 36.1631 47.9725 35.9414 47.5647 35.8787L47.4127 36.8671ZM46.8429 37.2722C46.8839 37.0056 47.1273 36.8232 47.4127 36.8671L47.5647 35.8787C46.7523 35.7537 45.9824 36.289 45.8545 37.1202L46.8429 37.2722ZM46.9272 37.6484C46.8535 37.5431 46.8215 37.4008 46.8419 37.2784L45.8555 37.114C45.7914 37.4983 45.8861 37.9049 46.108 38.2219L46.9272 37.6484ZM47.2481 37.8421C47.107 37.8204 46.9959 37.7465 46.9272 37.6484L46.108 38.2219C46.3348 38.5459 46.6882 38.7677 47.096 38.8304L47.2481 37.8421ZM47.344 37.8565C47.3344 37.8546 47.2535 37.8363 47.172 37.8363V38.8363C47.1571 38.8363 47.1458 38.8353 47.1397 38.8347C47.1334 38.8341 47.1296 38.8335 47.129 38.8334C47.1285 38.8333 47.1294 38.8335 47.133 38.8342C47.1367 38.8349 47.1409 38.8357 47.1479 38.8371L47.344 37.8565ZM47.3198 37.8574C47.3348 37.8574 47.346 37.8583 47.3521 37.8589C47.3584 37.8595 47.3623 37.8601 47.3628 37.8602C47.3634 37.8603 47.3624 37.8601 47.3589 37.8595C47.3552 37.8587 47.351 37.8579 47.344 37.8565L47.1479 38.8371C47.1574 38.839 47.2384 38.8574 47.3198 38.8574V37.8574ZM47.7951 37.4482C47.7652 37.6776 47.5615 37.8574 47.3198 37.8574V38.8574C48.0492 38.8574 48.69 38.3193 48.7867 37.5776L47.7951 37.4482ZM47.7335 37.0607C47.8076 37.1666 47.8324 37.2764 47.8037 37.4005L48.7781 37.6253C48.8762 37.2005 48.7743 36.8037 48.5528 36.4873L47.7335 37.0607ZM44.6514 42.4233C43.839 42.2983 43.069 42.8336 42.9412 43.6648L43.9295 43.8168C43.9706 43.5502 44.2139 43.3677 44.4994 43.4117L44.6514 42.4233ZM45.8929 44.1335C46.0194 43.3116 45.4524 42.5514 44.6544 42.4237L44.4964 43.4112C44.7539 43.4524 44.947 43.7056 44.9045 43.9815L45.8929 44.1335ZM45.2843 45.1216C45.6084 44.8947 45.8302 44.5413 45.8929 44.1335L44.9045 43.9815C44.8828 44.1225 44.809 44.2336 44.7109 44.3023L45.2843 45.1216ZM44.4065 45.4019C44.7295 45.4019 45.0146 45.3016 45.275 45.128L44.7203 44.2959C44.6006 44.3757 44.5057 44.4019 44.4065 44.4019V45.4019ZM44.2346 45.3817C44.2441 45.3836 44.325 45.4019 44.4065 45.4019V44.4019C44.4214 44.4019 44.4327 44.4029 44.4388 44.4035C44.4451 44.4041 44.449 44.4047 44.4495 44.4048C44.4501 44.4049 44.4491 44.4047 44.4455 44.404C44.4418 44.4033 44.4376 44.4025 44.4306 44.4011L44.2346 45.3817ZM44.2587 45.3808C44.2438 45.3808 44.2325 45.3799 44.2264 45.3793C44.2201 45.3787 44.2162 45.3781 44.2157 45.378C44.2151 45.3779 44.2161 45.3781 44.2197 45.3788C44.2234 45.3795 44.2276 45.3803 44.2346 45.3817L44.4306 44.4011C44.4211 44.3992 44.3401 44.3808 44.2587 44.3808V45.3808ZM42.9412 43.6648C42.8162 44.4772 43.3515 45.2472 44.1827 45.375L44.3347 44.3867C44.0681 44.3456 43.8856 44.1022 43.9295 43.8168L42.9412 43.6648ZM39.1625 46.3716C38.3502 46.2466 37.5802 46.782 37.4523 47.6131L38.4407 47.7652C38.4817 47.4986 38.7251 47.3161 39.0105 47.36L39.1625 46.3716ZM40.3798 48.1003C40.5389 47.2729 39.9915 46.4992 39.1625 46.3716L39.0105 47.36C39.2793 47.4013 39.4498 47.6409 39.3978 47.9114L40.3798 48.1003ZM38.9176 49.3503C39.647 49.3503 40.2878 48.8123 40.3846 48.0705L39.393 47.9412C39.363 48.1705 39.1593 48.3503 38.9176 48.3503V49.3503ZM38.7456 49.33C38.7551 49.3319 38.8361 49.3503 38.9176 49.3503V48.3503C38.9326 48.3503 38.9439 48.3512 38.95 48.3518C38.9563 48.3524 38.9602 48.3531 38.9607 48.3531C38.9613 48.3532 38.9603 48.3531 38.9568 48.3524C38.9531 48.3517 38.9489 48.3509 38.9419 48.3495L38.7456 49.33ZM38.7698 49.3292C38.7549 49.3292 38.7436 49.3283 38.7375 49.3277C38.7312 49.327 38.7273 49.3264 38.7268 49.3263C38.7262 49.3262 38.7271 49.3264 38.7307 49.3271C38.7344 49.3278 38.7386 49.3286 38.7456 49.33L38.9419 48.3495C38.9324 48.3476 38.8514 48.3292 38.7698 48.3292V49.3292ZM37.4523 47.6131C37.3273 48.4255 37.8627 49.1955 38.6938 49.3234L38.8459 48.335C38.5792 48.294 38.3968 48.0506 38.4407 47.7652L37.4523 47.6131Z" fill="white"/>
</svg>
