<svg width="51" height="51" viewBox="0 0 51 51" fill="none" xmlns="http://www.w3.org/2000/svg">
<g clip-path="url(#clip0_102_1225)">
<path d="M18.8412 28.0183C14.8577 28.0183 11.6167 24.7773 11.6167 20.7938C11.6167 16.8103 14.8577 13.5693 18.8412 13.5693C22.8247 13.5693 26.0657 16.8103 26.0657 20.7938C26.0657 24.7773 22.8247 28.0183 18.8412 28.0183ZM18.8412 16.2785C16.3516 16.2785 14.3259 18.3042 14.3259 20.7938C14.3259 23.2834 16.3516 25.3091 18.8412 25.3091C21.3308 25.3091 23.3565 23.2834 23.3565 20.7938C23.3565 18.3042 21.3308 16.2785 18.8412 16.2785Z" fill="white"/>
<path d="M35.0966 26.2117C32.1087 26.2117 29.6782 23.7812 29.6782 20.7934C29.6782 17.8055 32.1087 15.375 35.0966 15.375C38.0845 15.375 40.515 17.8055 40.515 20.7934C40.515 23.7812 38.0845 26.2117 35.0966 26.2117ZM35.0966 18.0842C33.6027 18.0842 32.3874 19.2994 32.3874 20.7934C32.3874 22.2873 33.6027 23.5026 35.0966 23.5026C36.5905 23.5026 37.8058 22.2873 37.8058 20.7934C37.8058 19.2994 36.5905 18.0842 35.0966 18.0842Z" fill="white"/>
<path d="M4.06235 32.0525C3.3414 32.0525 2.74171 31.4845 2.70996 30.757C2.53535 26.7743 2.4379 15.1906 3.66594 13.1027C5.073 10.7106 22.3507 0.914062 25.1626 0.914062C27.9741 0.914062 45.2522 10.7106 46.6588 13.1027C47.7471 14.9512 47.7462 23.9615 47.7197 26.6791C47.7127 27.4269 47.1368 28.0116 46.3519 28.0205C45.604 28.0134 45.0035 27.4005 45.0105 26.6526C45.0731 20.1769 44.6957 15.2775 44.3103 14.452C43.0095 12.6578 27.4 3.81418 25.1397 3.62236C22.9252 3.81462 7.31478 12.6578 5.98665 14.4988C5.49279 15.5698 5.10916 23.6207 5.4165 30.6388C5.4165 31.5687 4.72339 32.0525 4.06235 32.0525Z" fill="white"/>
<path d="M25.1627 49.7036C22.5431 49.7036 9.39134 42.1811 5.4475 39.2197C4.99465 38.8801 4.80107 38.2937 4.96246 37.7504C6.05028 34.0905 9.35474 31.6318 13.1857 31.6318H24.9255C28.7176 31.6318 32.1412 34.1196 33.6483 37.97C33.9217 38.6667 33.5778 39.4525 32.8811 39.725C32.187 39.9957 31.3986 39.6553 31.1261 38.9577C30.0281 36.1533 27.5941 34.341 24.9255 34.341H13.1857C10.8826 34.341 8.85824 35.6374 7.89609 37.6481C12.9216 41.1695 23.578 46.8586 25.1857 46.9953C26.8807 46.848 39.2704 40.1289 43.4047 36.9391V35.73C43.4047 33.4891 41.5819 31.6662 39.341 31.6662H33.0195C32.2717 31.6662 31.6649 31.0595 31.6649 30.3116C31.6649 29.5638 32.2717 28.957 33.0195 28.957H39.341C43.0758 28.957 46.1139 31.9952 46.1139 35.73V37.5873C46.1139 37.9859 45.9384 38.3651 45.6333 38.6217C42.1912 41.5302 27.8737 49.7036 25.1627 49.7036Z" fill="white"/>
</g>
<defs>
<clipPath id="clip0_102_1225">
<rect width="50" height="50" fill="white" transform="translate(0.166504 0.308594)"/>
</clipPath>
</defs>
</svg>
