<svg width="56" height="56" viewBox="0 0 56 56" fill="none" xmlns="http://www.w3.org/2000/svg">
<path fill-rule="evenodd" clip-rule="evenodd" d="M21.9548 13.3334H8.1403C7.77676 13.3334 7.52684 13.0153 7.52684 12.6745C7.52684 12.3337 7.79948 12.0383 8.16302 12.0383H21.9321C22.2502 8.97095 24.8631 6.5625 28.0214 6.5625C31.4069 6.5625 34.1561 9.31177 34.1561 12.6972C34.1561 13.3562 33.9062 14.265 33.5427 15.5374L33.5277 15.5907C32.9611 17.6074 32.2001 20.3164 31.9749 23.7398H32.2248C33.2927 23.7398 34.1561 24.6032 34.1561 25.6711V28.0795C34.1561 29.0111 33.4972 29.7836 32.6111 29.9654C32.3157 32.2375 30.3844 34.0098 28.0214 34.0098C25.6584 34.0098 23.7271 32.2375 23.4317 29.9654C22.5456 29.7836 21.8867 29.0111 21.8867 28.0795V25.6711C21.8867 24.6032 22.7501 23.7398 23.818 23.7398H24.0679C23.818 20.2634 23.0682 17.5596 22.5001 15.5374C22.4704 15.4294 22.4414 15.3242 22.4131 15.2218C22.2032 14.4627 22.0349 13.8539 21.9548 13.3334ZM24.7268 29.9881C25.0222 31.5331 26.3627 32.6919 27.9987 32.6919C29.6346 32.6919 30.9979 31.5331 31.2933 29.9881H24.7268ZM32.861 28.0568V25.6483C32.861 25.2848 32.5656 24.9894 32.2248 25.0121H23.818C23.4771 25.0121 23.1818 25.2848 23.1818 25.6483V28.0568C23.1818 28.3976 23.4544 28.693 23.818 28.693H32.2248C32.5656 28.693 32.861 28.4203 32.861 28.0568ZM32.8383 12.6745C32.8383 10.0161 30.6798 7.83488 27.9987 7.83488C25.3403 7.83488 23.1591 10.0161 23.1136 12.6745C23.1136 13.1744 23.3635 14.0605 23.6816 15.1738L23.7015 15.246C24.2467 17.2216 25.0479 20.1256 25.2948 23.717H30.6571C30.904 20.1257 31.7052 17.2218 32.2503 15.2462L32.2703 15.1738C32.2872 15.1136 32.3038 15.0541 32.3203 14.9954C32.6142 13.9472 32.8383 13.1479 32.8383 12.6745ZM48.5159 39.6903C37.2007 35.1006 18.7965 35.1006 7.48131 39.6903C7.16322 39.8266 7.00417 40.1902 7.11778 40.531C7.25411 40.8491 7.61766 41.0082 7.95848 40.8946C19.001 36.4185 36.9735 36.4185 48.016 40.8946C48.0842 40.9173 48.1751 40.94 48.266 40.94C48.5159 40.94 48.7658 40.781 48.8567 40.531C49.0158 40.2129 48.8567 39.8266 48.5159 39.6903ZM33.9516 47.1427C32.043 47.8243 30.0435 48.1651 27.9986 48.1651C25.9764 48.1651 23.977 47.8243 22.0457 47.1427C21.7049 47.029 21.3413 47.1881 21.2277 47.5289C21.1141 47.8697 21.2731 48.2333 21.614 48.3469C23.6589 49.0739 25.7947 49.4375 27.9759 49.4375C30.1572 49.4375 32.2929 49.0739 34.3379 48.3469C34.6787 48.2333 34.8377 47.8697 34.7241 47.5289C34.6559 47.2108 34.2924 47.029 33.9516 47.1427ZM31.8386 41.1897C30.5889 41.6214 29.3165 41.8486 27.9987 41.8486C26.7035 41.8486 25.4084 41.6441 24.1588 41.1897C23.8179 41.0761 23.6589 40.7125 23.7725 40.3717C23.8861 40.0309 24.2497 39.8719 24.5905 39.9855C26.7944 40.758 29.2256 40.758 31.4068 39.9855C31.7477 39.8719 32.1112 40.0309 32.2248 40.3717C32.3384 40.7125 32.1794 41.0761 31.8386 41.1897ZM22.5455 43.8708C22.4319 44.2116 22.5909 44.5751 22.9317 44.6888C24.5677 45.2568 26.2718 45.5522 27.9986 45.5522C29.7254 45.5522 31.4295 45.2568 33.0654 44.6888C33.4062 44.5751 33.5653 44.2116 33.4517 43.8708C33.3381 43.53 32.9745 43.3709 32.6337 43.4845C31.1341 44.0071 29.5891 44.2798 27.9986 44.2798C26.4081 44.2798 24.8403 44.0071 23.3634 43.4845C23.0226 43.3709 22.6591 43.53 22.5455 43.8708Z" fill="white"/>
<path d="M21.9548 13.3334L22.449 13.2574L22.3838 12.8334H21.9548V13.3334ZM21.9321 12.0383V12.5383H22.3829L22.4294 12.0899L21.9321 12.0383ZM33.5427 15.5374L33.0619 15.4L33.0613 15.4022L33.5427 15.5374ZM33.5277 15.5907L33.0463 15.4555V15.4555L33.5277 15.5907ZM31.9749 23.7398L31.476 23.7069L31.4409 24.2398H31.9749V23.7398ZM32.6111 29.9654L32.5106 29.4756L32.1613 29.5473L32.1153 29.9009L32.6111 29.9654ZM23.4317 29.9654L23.9275 29.9009L23.8816 29.5473L23.5322 29.4756L23.4317 29.9654ZM24.0679 23.7398V24.2398H24.6051L24.5666 23.7039L24.0679 23.7398ZM22.5001 15.5374L22.018 15.67L22.0188 15.6726L22.5001 15.5374ZM22.4131 15.2218L22.895 15.0886L22.895 15.0886L22.4131 15.2218ZM24.7268 29.9881V29.4881H24.1222L24.2357 30.082L24.7268 29.9881ZM31.2933 29.9881L31.7844 30.082L31.8979 29.4881H31.2933V29.9881ZM32.2248 25.0121V25.5121H32.2415L32.2581 25.511L32.2248 25.0121ZM23.1136 12.6745L22.6136 12.6659V12.6745H23.1136ZM23.6816 15.1738L24.1637 15.0408L24.1624 15.0365L23.6816 15.1738ZM23.7015 15.246L23.2196 15.379L23.2196 15.379L23.7015 15.246ZM25.2948 23.717L24.796 23.7513L24.828 24.217H25.2948V23.717ZM30.6571 23.717V24.217H31.1239L31.1559 23.7513L30.6571 23.717ZM32.2503 15.2462L32.7323 15.3792L32.7323 15.3792L32.2503 15.2462ZM32.2703 15.1738L31.7888 15.039L31.7883 15.0409L32.2703 15.1738ZM32.3203 14.9954L31.8389 14.8604V14.8604L32.3203 14.9954ZM7.48131 39.6903L7.29334 39.2269L7.28435 39.2307L7.48131 39.6903ZM48.5159 39.6903L48.328 40.1537L48.3302 40.1546L48.5159 39.6903ZM7.11778 40.531L6.64344 40.6891L6.65001 40.7089L6.65821 40.728L7.11778 40.531ZM7.95848 40.8946L8.1166 41.3689L8.13163 41.3639L8.14631 41.3579L7.95848 40.8946ZM48.016 40.8946L47.8282 41.3579L47.8429 41.3639L47.8579 41.3689L48.016 40.8946ZM48.8567 40.531L48.4095 40.3074L48.3967 40.3331L48.3868 40.3601L48.8567 40.531ZM33.9516 47.1427L33.7934 46.6682L33.7834 46.6718L33.9516 47.1427ZM22.0457 47.1427L22.2121 46.6711L22.2038 46.6683L22.0457 47.1427ZM21.2277 47.5289L21.702 47.687L21.2277 47.5289ZM21.614 48.3469L21.7815 47.8757L21.7721 47.8725L21.614 48.3469ZM34.3379 48.3469L34.1797 47.8724L34.1704 47.8758L34.3379 48.3469ZM34.7241 47.5289L34.2352 47.6337L34.241 47.6607L34.2498 47.687L34.7241 47.5289ZM31.8386 41.1897L31.6804 40.7153L31.6753 40.7171L31.8386 41.1897ZM24.1588 41.1897L24.3297 40.7196L24.3169 40.7153L24.1588 41.1897ZM23.7725 40.3717L24.2469 40.5298V40.5298L23.7725 40.3717ZM24.5905 39.9855L24.7559 39.5135L24.7486 39.5111L24.5905 39.9855ZM31.4068 39.9855L31.2487 39.511L31.2399 39.5141L31.4068 39.9855ZM32.2248 40.3717L31.7505 40.5298L32.2248 40.3717ZM22.9317 44.6888L23.0957 44.2164L23.0898 44.2144L22.9317 44.6888ZM22.5455 43.8708L23.0198 44.0289L22.5455 43.8708ZM33.0654 44.6888L32.9073 44.2144L32.9014 44.2164L33.0654 44.6888ZM33.4517 43.8708L33.926 43.7127H33.926L33.4517 43.8708ZM32.6337 43.4845L32.4756 43.0102L32.4692 43.0124L32.6337 43.4845ZM23.3634 43.4845L23.5303 43.0131L23.5215 43.0102L23.3634 43.4845ZM8.1403 13.8334H21.9548V12.8334H8.1403V13.8334ZM7.02684 12.6745C7.02684 13.2316 7.44431 13.8334 8.1403 13.8334V12.8334C8.11406 12.8334 8.09332 12.8249 8.07191 12.8007C8.04644 12.7718 8.02684 12.7255 8.02684 12.6745H7.02684ZM8.16302 11.5383C7.51177 11.5383 7.02684 12.0692 7.02684 12.6745H8.02684C8.02684 12.5981 8.08719 12.5383 8.16302 12.5383V11.5383ZM21.9321 11.5383H8.16302V12.5383H21.9321V11.5383ZM28.0214 6.0625C24.6048 6.0625 21.7791 8.6667 21.4348 11.9867L22.4294 12.0899C22.7213 9.27519 25.1215 7.0625 28.0214 7.0625V6.0625ZM34.6561 12.6972C34.6561 9.03563 31.683 6.0625 28.0214 6.0625V7.0625C31.1307 7.0625 33.6561 9.58791 33.6561 12.6972H34.6561ZM34.0234 15.6748C34.3786 14.4316 34.6561 13.443 34.6561 12.6972H33.6561C33.6561 13.2693 33.4338 14.0984 33.0619 15.4L34.0234 15.6748ZM34.009 15.726L34.024 15.6726L33.0613 15.4022L33.0463 15.4555L34.009 15.726ZM32.4738 23.7726C32.6953 20.4056 33.4432 17.7401 34.009 15.726L33.0463 15.4555C32.4791 17.4747 31.7049 20.2272 31.476 23.7069L32.4738 23.7726ZM32.2248 23.2398H31.9749V24.2398H32.2248V23.2398ZM34.6561 25.6711C34.6561 24.327 33.5689 23.2398 32.2248 23.2398V24.2398C33.0166 24.2398 33.6561 24.8793 33.6561 25.6711H34.6561ZM34.6561 28.0795V25.6711H33.6561V28.0795H34.6561ZM32.7116 30.4552C33.8235 30.2271 34.6561 29.2553 34.6561 28.0795H33.6561C33.6561 28.7669 33.1709 29.3401 32.5106 29.4756L32.7116 30.4552ZM28.0214 34.5098C30.6423 34.5098 32.78 32.5444 33.1069 30.0298L32.1153 29.9009C31.8514 31.9306 30.1265 33.5098 28.0214 33.5098V34.5098ZM22.9359 30.0298C23.2628 32.5444 25.4004 34.5098 28.0214 34.5098V33.5098C25.9163 33.5098 24.1914 31.9306 23.9275 29.9009L22.9359 30.0298ZM21.3867 28.0795C21.3867 29.2553 22.2193 30.2271 23.3312 30.4552L23.5322 29.4756C22.8719 29.3401 22.3867 28.7668 22.3867 28.0795H21.3867ZM21.3867 25.6711V28.0795H22.3867V25.6711H21.3867ZM23.818 23.2398C22.4739 23.2398 21.3867 24.327 21.3867 25.6711H22.3867C22.3867 24.8793 23.0262 24.2398 23.818 24.2398V23.2398ZM24.0679 23.2398H23.818V24.2398H24.0679V23.2398ZM22.0188 15.6726C22.5855 17.6902 23.3231 20.3529 23.5692 23.7756L24.5666 23.7039C24.3128 20.1739 23.5508 17.429 22.9815 15.4022L22.0188 15.6726ZM21.9311 15.355C21.9595 15.4575 21.9884 15.5623 22.018 15.67L22.9822 15.4048C22.9524 15.2964 22.9233 15.1909 22.895 15.0886L21.9311 15.355ZM21.4606 13.4094C21.5462 13.9654 21.7241 14.606 21.9311 15.355L22.895 15.0886C22.6823 14.3194 22.5237 13.7425 22.449 13.2574L21.4606 13.4094ZM27.9987 32.1919C26.608 32.1919 25.4693 31.2089 25.2179 29.8942L24.2357 30.082C24.5751 31.8574 26.1175 33.1919 27.9987 33.1919V32.1919ZM30.8022 29.8942C30.5516 31.2048 29.3935 32.1919 27.9987 32.1919V33.1919C29.8757 33.1919 31.4442 31.8615 31.7844 30.082L30.8022 29.8942ZM24.7268 30.4881H31.2933V29.4881H24.7268V30.4881ZM32.361 25.6483V28.0568H33.361V25.6483H32.361ZM32.2581 25.511C32.2701 25.5102 32.2919 25.5137 32.3172 25.539C32.3428 25.5645 32.361 25.6032 32.361 25.6483H33.361C33.361 25.0286 32.8529 24.4692 32.1916 24.5133L32.2581 25.511ZM23.818 25.5121H32.2248V24.5121H23.818V25.5121ZM23.6818 25.6483C23.6818 25.5725 23.7416 25.5121 23.818 25.5121V24.5121C23.2127 24.5121 22.6818 24.9971 22.6818 25.6483H23.6818ZM23.6818 28.0568V25.6483H22.6818V28.0568H23.6818ZM23.818 28.193C23.7421 28.193 23.6818 28.1332 23.6818 28.0568H22.6818C22.6818 28.662 23.1667 29.193 23.818 29.193V28.193ZM32.2248 28.193H23.818V29.193H32.2248V28.193ZM32.361 28.0568C32.361 28.1326 32.3012 28.193 32.2248 28.193V29.193C32.83 29.193 33.361 28.7081 33.361 28.0568H32.361ZM27.9987 8.33488C30.4021 8.33488 32.3383 10.2907 32.3383 12.6745H33.3383C33.3383 9.74149 30.9575 7.33488 27.9987 7.33488V8.33488ZM23.6135 12.683C23.6544 10.2924 25.6181 8.33488 27.9987 8.33488V7.33488C25.0625 7.33488 22.6637 9.73978 22.6137 12.6659L23.6135 12.683ZM24.1624 15.0365C24.0027 14.4774 23.8637 13.9879 23.7644 13.5767C23.6627 13.1559 23.6136 12.8598 23.6136 12.6745H22.6136C22.6136 12.989 22.6895 13.386 22.7923 13.8115C22.8975 14.2467 23.0425 14.757 23.2009 15.3112L24.1624 15.0365ZM24.1835 15.113L24.1636 15.0408L23.1996 15.3068L23.2196 15.379L24.1835 15.113ZM25.7937 23.6827C25.543 20.0371 24.7294 17.0912 24.1835 15.113L23.2196 15.379C23.764 17.352 24.5528 20.2141 24.796 23.7513L25.7937 23.6827ZM30.6571 23.217H25.2948V24.217H30.6571V23.217ZM31.7683 15.1132C31.2225 17.0914 30.4089 20.0372 30.1582 23.6827L31.1559 23.7513C31.399 20.2142 32.1879 17.3522 32.7323 15.3792L31.7683 15.1132ZM31.7883 15.0409L31.7683 15.1132L32.7323 15.3792L32.7523 15.3068L31.7883 15.0409ZM31.8389 14.8604C31.8224 14.9191 31.8057 14.9787 31.7888 15.039L32.7518 15.3086C32.7686 15.2485 32.7853 15.1891 32.8017 15.1304L31.8389 14.8604ZM32.3383 12.6745C32.3383 12.8482 32.295 13.1174 32.2031 13.5037C32.1131 13.882 31.9867 14.3332 31.8389 14.8604L32.8017 15.1304C32.9478 14.6095 33.0804 14.1369 33.1759 13.7351C33.2696 13.3413 33.3383 12.9741 33.3383 12.6745H32.3383ZM7.66925 40.1536C13.2498 37.8901 20.6113 36.748 27.9986 36.748C35.3859 36.748 42.7475 37.8901 48.328 40.1536L48.7039 39.227C42.9692 36.9009 35.471 35.748 27.9986 35.748C20.5262 35.748 13.028 36.9009 7.29338 39.227L7.66925 40.1536ZM7.59212 40.3729C7.5571 40.2678 7.60966 40.1793 7.67828 40.1499L7.28435 39.2307C6.71677 39.474 6.45125 40.1126 6.64344 40.6891L7.59212 40.3729ZM7.80037 40.4202C7.6953 40.4552 7.60676 40.4027 7.57735 40.3341L6.65821 40.728C6.90146 41.2956 7.54003 41.5611 8.1166 41.3689L7.80037 40.4202ZM48.2039 40.4312C42.6055 38.1619 35.2835 37.0375 27.9873 37.0375C20.691 37.0375 13.369 38.1619 7.77065 40.4312L8.14631 41.3579C13.5905 39.1511 20.776 38.0375 27.9873 38.0375C35.1985 38.0375 42.384 39.1511 47.8282 41.3579L48.2039 40.4312ZM48.266 40.44C48.261 40.44 48.2492 40.4392 48.2305 40.4355C48.2124 40.4319 48.193 40.4265 48.1741 40.4202L47.8579 41.3689C47.9511 41.3999 48.0995 41.44 48.266 41.44V40.44ZM48.3868 40.3601C48.3805 40.3776 48.3664 40.3978 48.3411 40.4149C48.3147 40.4327 48.2865 40.44 48.266 40.44V41.44C48.7123 41.44 49.1593 41.1621 49.3266 40.7019L48.3868 40.3601ZM48.3302 40.1546C48.3725 40.1715 48.3986 40.2013 48.4107 40.2311C48.4225 40.26 48.4206 40.2853 48.4095 40.3074L49.3039 40.7546C49.6041 40.1544 49.2923 39.4623 48.7016 39.2261L48.3302 40.1546ZM27.9986 48.6651C30.0997 48.6651 32.1561 48.3148 34.1198 47.6135L33.7834 46.6718C31.9299 47.3338 29.9874 47.6651 27.9986 47.6651V48.6651ZM21.8793 47.6141C23.8639 48.3146 25.9197 48.6651 27.9986 48.6651V47.6651C26.0332 47.6651 24.09 47.334 22.2121 46.6712L21.8793 47.6141ZM21.702 47.687C21.7137 47.6521 21.7342 47.6317 21.761 47.6194C21.7903 47.6058 21.8347 47.5994 21.8876 47.617L22.2038 46.6683C21.6294 46.4768 20.9634 46.7405 20.7533 47.3708L21.702 47.687ZM21.7721 47.8725C21.7371 47.8609 21.7167 47.8403 21.7044 47.8135C21.6909 47.7843 21.6844 47.7398 21.702 47.687L20.7533 47.3708C20.5619 47.9452 20.8256 48.6111 21.4558 48.8212L21.7721 47.8725ZM27.9759 48.9375C25.8508 48.9375 23.7718 48.5834 21.7815 47.8758L21.4465 48.818C23.546 49.5645 25.7385 49.9375 27.9759 49.9375V48.9375ZM34.1704 47.8758C32.1801 48.5834 30.101 48.9375 27.9759 48.9375V49.9375C30.2133 49.9375 32.4058 49.5645 34.5054 48.818L34.1704 47.8758ZM34.2498 47.687C34.2674 47.7399 34.2609 47.7843 34.2474 47.8136C34.2351 47.8403 34.2147 47.8609 34.1797 47.8725L34.496 48.8212C35.1263 48.6111 35.3899 47.9452 35.1985 47.3708L34.2498 47.687ZM34.1097 47.617C34.1532 47.6025 34.1921 47.6089 34.2165 47.6211C34.2282 47.627 34.2337 47.6326 34.2353 47.6346C34.2361 47.6356 34.236 47.6357 34.2358 47.6352C34.2356 47.6349 34.2355 47.6346 34.2354 47.6342C34.2353 47.6341 34.2353 47.6339 34.2353 47.6338C34.2352 47.6338 34.2352 47.6337 34.2352 47.6337C34.2352 47.6337 34.2352 47.6337 34.2352 47.6337L35.213 47.4241C35.0711 46.7619 34.3632 46.4784 33.7935 46.6683L34.1097 47.617ZM27.9987 42.3486C29.3756 42.3486 30.7031 42.1109 32.0018 41.6623L31.6753 40.7171C30.4747 41.1318 29.2574 41.3486 27.9987 41.3486V42.3486ZM23.9879 41.6596C25.2972 42.1357 26.6507 42.3486 27.9987 42.3486V41.3486C26.7564 41.3486 25.5197 41.1525 24.3296 40.7198L23.9879 41.6596ZM23.2982 40.2136C23.1067 40.788 23.3703 41.4539 24.0006 41.664L24.3169 40.7153C24.2819 40.7037 24.2615 40.6831 24.2492 40.6564C24.2357 40.6271 24.2292 40.5827 24.2469 40.5298L23.2982 40.2136ZM24.7486 39.5111C24.1742 39.3196 23.5083 39.5833 23.2982 40.2136L24.2469 40.5298C24.2585 40.4949 24.2791 40.4745 24.3058 40.4622C24.3351 40.4487 24.3795 40.4422 24.4324 40.4598L24.7486 39.5111ZM31.2399 39.5141C29.1672 40.2482 26.8533 40.2488 24.7559 39.5136L24.4251 40.4573C26.7355 41.2672 29.284 41.2677 31.5738 40.4568L31.2399 39.5141ZM32.6991 40.2136C32.489 39.5833 31.8231 39.3196 31.2487 39.5111L31.565 40.4598C31.6178 40.4422 31.6622 40.4487 31.6915 40.4622C31.7182 40.4745 31.7388 40.4949 31.7505 40.5298L32.6991 40.2136ZM31.9967 41.664C32.627 41.4539 32.8906 40.788 32.6991 40.2136L31.7505 40.5298C31.7681 40.5827 31.7616 40.6271 31.7481 40.6564C31.7358 40.6831 31.7154 40.7037 31.6804 40.7153L31.9967 41.664ZM23.0898 44.2144C23.0549 44.2028 23.0345 44.1822 23.0222 44.1555C23.0087 44.1262 23.0022 44.0817 23.0198 44.0289L22.0711 43.7127C21.8797 44.2871 22.1433 44.953 22.7736 45.1631L23.0898 44.2144ZM27.9986 45.0522C26.3292 45.0522 24.6805 44.7667 23.0957 44.2164L22.7677 45.1611C24.4548 45.7469 26.2143 46.0522 27.9986 46.0522V45.0522ZM32.9014 44.2164C31.3167 44.7667 29.6679 45.0522 27.9986 45.0522V46.0522C29.7828 46.0522 31.5423 45.7469 33.2294 45.1611L32.9014 44.2164ZM32.9773 44.0289C32.9949 44.0817 32.9885 44.1262 32.975 44.1555C32.9626 44.1822 32.9423 44.2028 32.9073 44.2144L33.2235 45.1631C33.8538 44.953 34.1175 44.2871 33.926 43.7127L32.9773 44.0289ZM32.7918 43.9589C32.8447 43.9413 32.8891 43.9477 32.9184 43.9612C32.9451 43.9736 32.9657 43.9939 32.9773 44.0289L33.926 43.7127C33.7159 43.0824 33.05 42.8187 32.4756 43.0102L32.7918 43.9589ZM27.9986 44.7798C29.6474 44.7798 31.248 44.4969 32.7983 43.9567L32.4692 43.0124C31.0203 43.5173 29.5307 43.7798 27.9986 43.7798V44.7798ZM23.1966 43.9559C24.7268 44.4973 26.351 44.7798 27.9986 44.7798V43.7798C26.4652 43.7798 24.9538 43.5169 23.5302 43.0132L23.1966 43.9559ZM23.0198 44.0289C23.0315 43.9939 23.052 43.9736 23.0788 43.9612C23.108 43.9477 23.1525 43.9413 23.2053 43.9589L23.5215 43.0102C22.9471 42.8187 22.2812 43.0824 22.0711 43.7127L23.0198 44.0289Z" fill="white"/>
</svg>
