<svg width="60" height="61" viewBox="0 0 60 61" fill="none" xmlns="http://www.w3.org/2000/svg">
<g clip-path="url(#clip0_102_1018)">
<path d="M45.0967 43.683L44.9785 44.0166L45.3324 44.0166L58.5997 44.0165V46.9243H0.940186V44.0165H6.729H7.08292L6.96463 43.6829C6.78476 43.1757 6.68593 42.6308 6.68593 42.0626C6.68593 39.3821 8.8671 37.2009 11.5476 37.2009H16.6593H16.9093V36.9509V27.5795C16.9093 24.4293 19.4726 21.8659 22.6229 21.8659H39.5082H39.7836L39.7571 21.5918C39.5741 19.7037 40.2039 17.7523 41.6457 16.3104C44.2056 13.7507 48.3712 13.7507 50.9309 16.3104C52.1713 17.5508 52.8539 19.1987 52.8539 20.953C52.8539 22.7072 52.1713 24.3551 50.9309 25.5955L51.1076 25.7723L50.9309 25.5955C49.6905 26.836 48.0426 27.5185 46.2884 27.5185C46.0737 27.5185 45.8606 27.508 45.6493 27.4878L45.3754 27.4615V27.7366V42.0627C45.3754 42.6309 45.2766 43.1758 45.0967 43.683ZM42.2177 33.7933H42.4677V33.5433V27.5796C42.4677 26.0323 41.2092 24.7738 39.6618 24.7738H26.8826H26.6326V25.0238V30.1355V30.3855H26.8826H38.5599V33.5433V33.7933H38.8099H42.2177ZM26.8826 33.2933H26.6326V33.5433V42.0627C26.6326 42.6308 26.5338 43.1759 26.3539 43.683L26.2356 44.0166H26.5896H35.6952H36.0491L35.9308 43.683C35.7509 43.1758 35.6521 42.6309 35.6521 42.0627V33.5433V33.2933H35.4021H26.8826ZM38.8099 36.701H38.5599V36.951V42.0627C38.5599 43.1403 39.4362 44.0166 40.5138 44.0166C41.5914 44.0166 42.4677 43.1403 42.4677 42.0627V36.951V36.701H42.2177H38.8099ZM43.7019 23.5395L43.8787 23.3627L43.7019 23.5395C44.3924 24.23 45.3118 24.6109 46.2884 24.6109C47.2649 24.6109 48.1843 24.2301 48.8748 23.5395C49.5653 22.849 49.9461 21.9296 49.9461 20.9531C49.9461 19.9765 49.5654 19.0572 48.8748 18.3666L48.698 18.5433L48.8748 18.3666C47.4484 16.9403 45.1284 16.9404 43.702 18.3665L43.8787 18.5433L43.7019 18.3666C42.2756 19.7929 42.2756 22.1131 43.7019 23.5395ZM23.7248 25.0238V24.7738H23.4748H22.6229C21.0755 24.7738 19.8171 26.0322 19.8171 27.5796V33.5433V33.7933H20.0671H23.4748H23.7248V33.5433V25.0238ZM20.0671 36.701H19.8171V36.951V40.1088H11.5476C10.47 40.1088 9.59372 40.9851 9.59372 42.0627C9.59372 43.1403 10.47 44.0166 11.5476 44.0166H21.771C22.8486 44.0166 23.7248 43.1403 23.7248 42.0627V36.951V36.701H23.4748H20.0671Z" fill="white" stroke="#909090" stroke-width="0.5"/>
</g>
<defs>
<clipPath id="clip0_102_1018">
<rect width="59.3558" height="59.3558" fill="white" transform="translate(0.321777 0.739258)"/>
</clipPath>
</defs>
</svg>
