<svg width="38" height="41" viewBox="0 0 38 41" fill="none" xmlns="http://www.w3.org/2000/svg">
<path d="M31.9843 10.7587C32.4959 10.7587 32.909 10.3455 32.909 9.83391C32.909 9.32235 32.4959 8.90918 31.9843 8.90918C31.4728 8.90918 31.0596 9.32235 31.0596 9.83391C31.0596 10.3455 31.4728 10.7587 31.9843 10.7587Z" fill="#023047"/>
<path d="M31.9843 15.6971C32.4959 15.6971 32.909 15.284 32.909 14.7724C32.909 14.2609 32.4959 13.8477 31.9843 13.8477C31.4728 13.8477 31.0596 14.2609 31.0596 14.7724C31.0596 15.284 31.4728 15.6971 31.9843 15.6971Z" fill="#023047"/>
<path d="M31.9843 20.6551C32.4959 20.6551 32.909 20.242 32.909 19.7304C32.909 19.2188 32.4959 18.8057 31.9843 18.8057C31.4728 18.8057 31.0596 19.2188 31.0596 19.7304C31.0596 20.242 31.4728 20.6551 31.9843 20.6551Z" fill="#023047"/>
<path d="M36.6671 39.2288C30.1939 39.2878 24.5668 38.7172 19.9824 37.5171C19.3135 37.34 18.8216 37.1039 18.2313 36.4349L18.2117 36.4152C16.4409 34.6051 13.7257 31.9489 10.3218 29.5485C10.794 28.7222 10.7744 27.64 10.1841 26.8137L8.39365 24.3149C8.72814 24.0788 9.04294 23.9214 9.20034 23.9017C9.5545 23.9607 9.96768 24.6494 10.3218 25.2593C10.6366 25.7709 10.9514 26.3218 11.3646 26.7546C13.2731 28.8402 14.2963 29.155 15.5555 29.5682C15.9096 29.6863 16.2835 29.8043 16.7163 29.9814C16.9524 30.0798 17.2082 30.1585 17.464 30.2372C17.4837 31.0045 17.8378 31.7522 18.5068 32.244C18.9593 32.5589 19.4709 32.7163 19.9824 32.7163C20.6514 32.7163 21.3204 32.4408 21.8122 31.9489C22.1074 32.1653 22.4025 32.4211 22.678 32.7359C22.796 32.854 22.9534 32.9327 23.1305 32.913L32.1025 32.4015C32.1418 32.4015 32.2008 32.3818 32.2402 32.3818C32.3386 32.3424 34.7586 31.5751 36.1162 30.2372C36.3327 30.0207 36.3327 29.6666 36.1359 29.4502C35.9195 29.2337 35.5653 29.2337 35.3489 29.4305C34.2864 30.4733 32.3386 31.1619 31.9647 31.2996L23.3469 31.7915C23.0715 31.5161 22.796 31.2603 22.5009 31.0439L26.9082 24.9052C27.4787 24.1181 27.5574 23.3311 27.223 22.1703C26.8885 21.0488 25.6096 16.5825 24.9406 13.9656C24.2913 11.4275 21.6548 10.8963 19.825 10.6995C20.6711 9.61739 21.163 8.25979 21.163 6.78414C21.163 3.26225 18.2904 0.389648 14.7685 0.389648C11.2466 0.389648 8.37398 3.26225 8.37398 6.78414C8.37398 8.27946 8.90521 9.67643 9.77093 10.7586C8.2756 11.0734 5.69813 11.8604 4.71436 13.8476L1.13345 20.3208C0.661237 21.1668 0.720272 22.2293 1.29086 23.0163L4.43891 27.4039C4.20281 27.6203 3.98638 27.7777 3.84865 27.8368C2.19592 28.4664 1.48761 29.7453 1.21215 30.4536C0.995722 31.0045 0.818647 31.8112 1.05475 32.2637C1.21215 32.5588 1.58599 33.0704 2.07787 33.1098C2.35333 33.1294 2.58943 33.0311 2.76651 32.795C2.80586 32.7359 2.86488 32.6769 2.90423 32.6179C3.25838 32.1457 3.4158 31.9096 4.24216 31.6735C5.75716 31.2406 6.6819 30.9258 7.35086 30.6897C7.48859 30.7487 7.646 30.7881 7.78372 30.8078C7.92145 30.8274 8.05917 30.8471 8.1969 30.8471C8.70846 30.8471 9.20034 30.6897 9.6332 30.3946C11.3646 31.6144 12.919 32.8933 14.2766 34.1132C13.1748 34.369 12.3091 34.487 10.0464 33.8377C9.57418 33.7 9.08229 33.4443 8.59041 33.1885C7.68534 32.7163 6.74093 32.2047 5.91457 32.5982C5.58008 32.7556 5.46203 33.0901 5.22593 33.7787C4.73404 35.156 3.84865 37.7335 1.21215 39.3272C0.956372 39.4846 0.877666 39.8191 1.03507 40.0945C1.13345 40.2716 1.3302 40.37 1.50728 40.37C1.60566 40.37 1.70404 40.3503 1.80241 40.2913C4.77339 38.4811 5.79651 35.5692 6.28839 34.1526C6.36709 33.9361 6.4458 33.7197 6.50483 33.582C6.87866 33.523 7.50826 33.8771 8.09852 34.1722C8.62976 34.4477 9.18067 34.7428 9.77093 34.9199C12.4861 35.7069 13.5092 35.4708 14.8275 35.156C14.9849 35.1167 15.1226 35.0773 15.28 35.0576C16.1261 35.8643 16.8737 36.5923 17.5033 37.2416C18.3297 38.1663 19.097 38.4615 19.8054 38.6385C24.2717 39.7994 29.6627 40.3896 35.8408 40.3896C36.1556 40.3896 36.4704 40.3896 36.7852 40.3896C37.1 40.3896 37.3361 40.1339 37.3361 39.8387C37.218 39.4649 36.9623 39.2288 36.6671 39.2288ZM14.7291 1.53083C17.6411 1.53083 20.0218 3.91155 20.0218 6.8235C20.0218 9.73545 17.6411 12.1162 14.7291 12.1162C11.8172 12.1162 9.43645 9.73545 9.43645 6.8235C9.43645 3.91155 11.8172 1.53083 14.7291 1.53083ZM2.03852 20.8914L5.63911 14.4182C5.63911 14.4182 5.6391 14.3985 5.65878 14.3985C6.48514 12.7261 9.10196 11.9784 10.676 11.762C11.7778 12.6671 13.1944 13.218 14.7291 13.218C16.2835 13.218 17.7001 12.6671 18.8019 11.7423C18.8806 11.7423 18.9396 11.762 19.0183 11.762C20.612 11.8997 23.2879 12.1555 23.8191 14.2608C24.5078 16.9366 25.767 21.3636 26.1211 22.5244C26.3966 23.4295 26.2785 23.8623 25.9637 24.2755L21.1236 31.0045C20.6711 31.6341 19.7857 31.7915 19.1364 31.339C18.5068 30.8865 18.3494 30.0011 18.8019 29.3518L22.7763 23.823C22.8747 23.6853 22.9141 23.5082 22.855 23.3508L21.3597 17.7433C21.281 17.4482 20.9662 17.2711 20.6711 17.3498C20.3759 17.4285 20.1989 17.7236 20.2776 18.0385L21.7139 23.3901L17.8968 28.7222C17.7985 28.8599 17.7198 28.9976 17.6411 29.155C17.464 29.096 17.2672 29.037 17.0902 28.9583C16.618 28.7812 16.2245 28.6435 15.8506 28.5254C14.6504 28.1319 13.8437 27.8761 12.132 26.007C11.7975 25.6528 11.5024 25.1609 11.2269 24.6887C10.6957 23.8033 10.1644 22.8983 9.23969 22.7999C8.86586 22.7605 8.27561 23.036 7.68535 23.4295L6.38677 21.6194L8.33463 19.1403C8.39366 19.5928 8.45268 20.1831 8.45268 20.9307C8.45268 21.2455 8.70846 21.4816 9.00359 21.4816C9.31839 21.4816 9.55451 21.2259 9.55451 20.9307C9.55451 18.7468 9.12164 17.7236 9.10196 17.6843C9.02326 17.5072 8.86587 17.3892 8.66911 17.3498C8.47236 17.3301 8.2756 17.4088 8.15755 17.5662L5.2456 21.2652C5.0882 21.462 5.0882 21.7374 5.22593 21.9342L9.20034 27.463C9.65287 28.0926 9.51515 28.9779 8.86587 29.4502C8.55106 29.6666 8.17723 29.7649 7.80339 29.7059C7.42956 29.6469 7.09508 29.4502 6.87865 29.1354L2.03852 22.4064C1.82209 21.9342 1.78274 21.3636 2.03852 20.8914ZM3.86832 30.5913C2.78618 30.9061 2.39267 31.339 2.03852 31.8309C2.01884 31.8112 2.01884 31.7915 1.99917 31.7718C1.94014 31.398 2.33364 29.5682 4.18312 28.8796C4.4389 28.7812 4.73404 28.5844 5.04885 28.3286L6.09164 29.7846C6.11131 29.824 6.15066 29.8633 6.19001 29.9027C5.59975 30.0798 4.85209 30.3159 3.86832 30.5913Z" fill="#023047"/>
<path d="M15.3587 39.2285H6.93763C6.62282 39.2285 6.38672 39.4843 6.38672 39.7794C6.38672 40.0942 6.6425 40.3303 6.93763 40.3303H15.3587C15.6735 40.3303 15.9096 40.0746 15.9096 39.7794C15.9096 39.4646 15.6538 39.2285 15.3587 39.2285Z" fill="#023047"/>
</svg>
