<svg width="51" height="51" viewBox="0 0 51 51" fill="none" xmlns="http://www.w3.org/2000/svg">
<g clip-path="url(#clip0_102_1211)">
<path d="M26.6955 37.6886H24.4766C23.9392 37.6886 23.5034 37.2528 23.5034 36.7154C23.5034 36.1779 23.9392 35.7422 24.4766 35.7422H26.6955C27.2329 35.7422 27.6686 36.1779 27.6686 36.7154C27.6686 37.2529 27.2329 37.6886 26.6955 37.6886Z" fill="white"/>
<path d="M39.3661 41.8294C38.9593 41.8294 38.5872 41.5675 38.4499 41.1845C38.3145 40.807 38.431 40.3742 38.7367 40.1149C39.0554 39.8444 39.5245 39.8097 39.8797 40.0303C40.2195 40.2413 40.399 40.6547 40.3199 41.0469C40.2291 41.4967 39.8255 41.8294 39.3661 41.8294Z" fill="white"/>
<path d="M43.007 11.2393H28.2632C27.7258 11.2393 27.29 10.8035 27.29 10.2662C27.29 9.72876 27.7258 9.29297 28.2632 9.29297H43.007C43.5443 9.29297 43.9801 9.72876 43.9801 10.2662C43.9801 10.8036 43.5443 11.2393 43.007 11.2393Z" fill="white"/>
<path d="M39.1629 15.6182H28.2632C27.7258 15.6182 27.29 15.1825 27.29 14.6451C27.29 14.1077 27.7258 13.6719 28.2632 13.6719H39.1629C39.7003 13.6719 40.1361 14.1077 40.1361 14.6451C40.1361 15.1825 39.7003 15.6182 39.1629 15.6182Z" fill="white"/>
<path d="M30.4699 22.5394C29.5625 22.0802 28.5304 22.0019 27.564 22.3188C26.8466 22.554 26.2463 22.9833 25.8018 23.5293L24.5546 22.9747C24.8007 22.089 24.7972 21.1241 24.49 20.187C23.7648 17.9759 21.5842 16.6411 19.3575 16.8965L19.065 16.0046C19.588 15.6586 20.0149 15.1813 20.3058 14.6065C20.7472 13.7342 20.8226 12.7423 20.5179 11.8134C20.2133 10.8845 19.5652 10.1298 18.6929 9.68832C17.8206 9.24679 16.8288 9.17137 15.8998 9.47617C14.9709 9.78077 14.2162 10.4289 13.7747 11.3012C13.3333 12.1734 13.2579 13.1653 13.5625 14.0943C14.0677 15.6346 15.5035 16.6141 17.0429 16.6141C17.1002 16.6141 17.1576 16.6127 17.2151 16.61L17.5081 17.5031C15.7566 18.5052 14.7985 20.5233 15.1539 22.5292L13.0049 23.2341C12.7086 22.8223 12.3158 22.4849 11.8503 22.2493C11.0855 21.8621 10.2157 21.7961 9.40164 22.0633C8.58728 22.3304 7.92561 22.8986 7.53867 23.6632C7.15173 24.4279 7.08575 25.2975 7.35279 26.1119C7.61983 26.9262 8.18808 27.5879 8.95271 27.9749C9.40864 28.2056 9.90166 28.3222 10.3983 28.3222C10.7346 28.3222 11.0726 28.2686 11.4014 28.1608C12.7603 27.7152 13.6213 26.4431 13.6102 25.084L15.8738 24.3415C16.7664 25.6984 18.2946 26.5158 19.9091 26.5158C20.4062 26.5158 20.9117 26.4383 21.4091 26.2751C22.3315 25.9726 23.1013 25.4168 23.6669 24.7101L24.9968 25.3016C24.8958 25.8925 24.9331 26.5155 25.1325 27.1237C25.658 28.7262 27.152 29.7452 28.7535 29.7452C29.1458 29.7451 29.5447 29.684 29.9373 29.5553C30.9037 29.2383 31.6889 28.564 32.1483 27.6564C32.6075 26.7489 32.6858 25.7169 32.369 24.7505C32.0518 23.7839 31.3775 22.9987 30.4699 22.5394ZM11.5275 25.6818C11.3753 25.9826 11.115 26.2062 10.7947 26.3113C10.4743 26.4161 10.132 26.3902 9.83149 26.2381C9.53058 26.0859 9.30714 25.8257 9.20204 25.5053C9.09703 25.1849 9.12292 24.8428 9.27522 24.542C9.42733 24.2411 9.68765 24.0177 10.008 23.9126C10.1374 23.8701 10.2703 23.8491 10.4027 23.8491C10.598 23.8491 10.7919 23.8951 10.9713 23.9858C11.2721 24.138 11.4956 24.3982 11.6007 24.7186C11.7056 25.0389 11.6797 25.381 11.5275 25.6818ZM15.4118 13.4877C15.2693 13.0528 15.3045 12.5884 15.5112 12.1801C15.7178 11.7717 16.0712 11.4682 16.5062 11.3256C16.6819 11.268 16.8623 11.2394 17.042 11.2394C17.3071 11.2394 17.5705 11.3018 17.8139 11.4249C18.2223 11.6316 18.5257 11.9848 18.6684 12.4199C18.8111 12.8548 18.7758 13.3192 18.5691 13.7276C18.3625 14.136 18.0092 14.4394 17.5741 14.5821C17.139 14.7246 16.6745 14.6895 16.2664 14.4827C15.8579 14.2759 15.5545 13.9226 15.4118 13.4877ZM20.8024 24.4254C19.2938 24.92 17.665 24.0954 17.1705 22.5874C16.6759 21.0793 17.5005 19.45 19.0085 18.9555C19.3054 18.8581 19.6068 18.8118 19.9034 18.8118C21.1139 18.8118 22.2433 19.5822 22.6405 20.7934C23.1349 22.3016 22.3104 23.9309 20.8024 24.4254ZM30.4114 26.7774C30.1868 27.2211 29.803 27.5507 29.3305 27.7057C28.3553 28.0251 27.3014 27.4922 26.9816 26.5169C26.8267 26.0445 26.865 25.54 27.0895 25.0963C27.3141 24.6527 27.6979 24.3231 28.1704 24.1681C28.3611 24.1055 28.5572 24.0745 28.7523 24.0745C29.0403 24.0745 29.3264 24.1421 29.5908 24.276C30.0345 24.5005 30.3641 24.8843 30.519 25.3567C30.6742 25.8293 30.6359 26.3339 30.4114 26.7774Z" fill="white"/>
<path d="M45.572 3.08594H5.59969C2.88276 3.08594 0.672363 5.2974 0.672363 8.0157V36.9C0.672363 39.6183 2.88276 41.8297 5.59969 41.8297H18.433V45.6446H15.8059C15.2685 45.6446 14.8327 46.0804 14.8327 46.6178C14.8327 47.1552 15.2685 47.591 15.8059 47.591H35.3659C35.9034 47.591 36.3391 47.1552 36.3391 46.6178C36.3391 46.0804 35.9034 45.6446 35.3659 45.6446H32.7388V41.8297H34.9487C35.4861 41.8297 35.9219 41.3939 35.9219 40.8565C35.9219 40.3191 35.4861 39.8833 34.9487 39.8833H5.59969C3.95598 39.8833 2.61873 38.545 2.61873 36.9V34.0352H48.553V36.9C48.553 38.545 47.2158 39.8833 45.572 39.8833H43.7474C43.21 39.8833 42.7742 40.3191 42.7742 40.8565C42.7742 41.3939 43.21 41.8297 43.7474 41.8297H45.572C48.289 41.8297 50.4994 39.6182 50.4994 36.9V8.0157C50.4994 5.2974 48.289 3.08594 45.572 3.08594ZM30.7924 41.8297V45.6446H20.3793V41.8297H30.7924ZM2.61873 32.0889V8.0157C2.61873 6.37063 3.95598 5.0323 5.59969 5.0323H45.572C47.2158 5.0323 48.553 6.37063 48.553 8.0157V32.0889H2.61873Z" fill="white"/>
</g>
<defs>
<clipPath id="clip0_102_1211">
<rect width="50" height="50" fill="white" transform="translate(0.499512 0.308594)"/>
</clipPath>
</defs>
</svg>
