<svg width="54" height="54" viewBox="0 0 54 54" fill="none" xmlns="http://www.w3.org/2000/svg">
<g clip-path="url(#clip0_102_1201)">
<path fill-rule="evenodd" clip-rule="evenodd" d="M25.0799 -3.37016C23.8092 -2.88237 22.6828 -1.34073 22.6828 -0.0895975C22.6828 0.203415 22.6365 0.315284 22.5332 0.271972C22.451 0.237514 22.0914 0.118706 21.7342 0.00803351C20.0455 -0.515417 18.1361 0.33335 17.3359 1.96293L16.9996 2.64778L16.9639 6.7253C16.9301 10.5967 16.9399 10.8172 17.1579 11.0864C17.4747 11.4776 18.1965 11.4813 18.5106 11.0935C18.7187 10.8365 18.7344 10.5524 18.7344 7.05756C18.7344 2.89939 18.7505 2.79422 19.4803 2.1534C19.9777 1.71669 20.5875 1.57288 21.2195 1.74302C21.726 1.87941 22.3619 2.47022 22.5558 2.98458C22.6417 3.21251 22.6828 6.62779 22.6828 13.5488V23.7761L22.9765 24.0698C23.3507 24.4441 23.8095 24.4441 24.1837 24.0698L24.4774 23.7761V11.7651V-0.245855L24.753 -0.766912C25.0654 -1.35772 25.8279 -1.83894 26.4516 -1.83894C27.0753 -1.83894 27.8378 -1.35772 28.1502 -0.766912L28.4258 -0.245855V12.3952C28.4258 24.9513 28.4274 25.038 28.6697 25.298C28.9907 25.6426 29.6649 25.6524 29.9524 25.3168C30.1461 25.0906 30.1648 24.2818 30.2204 13.6601C30.2799 2.31313 30.2817 2.24445 30.5306 1.90873C31.411 0.720644 32.978 0.720644 33.8586 1.90861C34.1049 2.24086 34.1099 2.36984 34.1688 9.83095C34.2355 18.2997 34.183 17.8308 35.0661 17.8308C35.9226 17.8308 35.8967 17.9844 35.9634 12.5348L36.0233 7.65388L36.3585 7.21454C36.7953 6.64203 37.2517 6.41662 37.9737 6.41662C38.7251 6.41662 39.281 6.77412 39.6425 7.48984L39.9117 8.02274L39.9113 18.4365C39.911 24.3145 39.8578 29.5798 39.7891 30.5252C39.3339 36.7889 38.1248 41.9513 36.4412 44.8206C36.1894 45.2496 35.629 45.9927 35.1958 46.472C33.6369 48.1963 33.4509 48.8782 33.4509 52.8643V55.8303H25.9226H18.3944L18.3482 52.3307C18.3052 49.066 18.2835 48.7748 18.0258 47.9935C17.6048 46.717 16.9137 45.435 16.0841 44.391C15.1977 43.2755 14.1981 41.7906 13.4241 40.4393C12.7723 39.3015 12.412 39.0599 11.8218 39.3651C11.0673 39.7553 11.1326 40.1637 12.2469 42.0181C13.1843 43.5782 13.7901 44.4524 14.7696 45.6583C15.0626 46.0191 15.5094 46.746 15.7624 47.2735C16.4964 48.8041 16.5764 49.4119 16.5788 53.4727L16.5808 57.0377L16.8746 57.3313L17.1682 57.625H25.9467H34.7252L34.9777 57.3558C35.2214 57.0958 35.2314 56.9594 35.2677 53.3776L35.3054 49.6686L35.6241 48.9886C35.7994 48.6147 36.2587 47.9686 36.6448 47.5529C38.8585 45.1692 40.4034 40.7898 41.2161 34.5932C41.6744 31.1 41.7229 29.3903 41.6841 18.1419L41.6466 7.31396L41.37 6.75246C40.9839 5.96854 40.2472 5.25103 39.4572 4.88934C38.5775 4.48649 37.3683 4.46412 36.5318 4.83502L35.9634 5.08712V3.73954C35.9634 2.13031 35.786 1.4457 35.1532 0.6138C34.8244 0.18152 34.4722 -0.0996478 33.8838 -0.399839C33.1751 -0.761289 32.9581 -0.81489 32.2131 -0.811779C31.6091 -0.809267 31.1942 -0.734967 30.8037 -0.559207L30.2504 -0.310224L30.1053 -0.805318C29.4605 -3.00836 27.1753 -4.17454 25.0799 -3.37016ZM3.30015 -0.760332C-0.335887 0.86697 -0.133566 0.757135 -0.282884 1.18535C-0.396428 1.51114 -0.21995 1.9768 1.69426 6.40262C2.85028 9.07551 3.90579 11.3564 4.03992 11.4717C4.39455 11.7762 4.69306 11.7292 5.65645 11.2178L6.51718 10.7608L8.03405 13.0456C8.86834 14.3021 9.66147 15.4514 9.79655 15.5994C10.1115 15.9448 10.7468 15.9597 11.0771 15.6293C11.3009 15.4056 11.3156 15.24 11.3034 13.0869C11.2962 11.8201 11.2559 9.25785 11.2136 7.39293C11.1373 4.01641 11.1357 4.00121 10.8545 3.77364C10.4444 3.44187 10.0987 3.48757 8.95221 4.02478C8.38916 4.2886 7.90388 4.47979 7.87373 4.44964C7.84357 4.41949 7.74068 3.0864 7.64496 1.48733C7.50091 -0.919102 7.43427 -1.47175 7.25803 -1.71929C6.86104 -2.27708 6.48596 -2.18627 3.30015 -0.760332ZM47.8373 -0.133986C47.4603 0.268741 43.8202 7.84543 43.8202 8.22746C43.8202 8.69467 44.0264 8.8897 44.8306 9.18295C45.218 9.32425 45.5351 9.50001 45.5351 9.57347C45.5351 9.64705 45.2659 10.6492 44.9369 11.8007C44.6078 12.9521 44.3386 14.0653 44.3386 14.2745C44.3386 14.7148 44.7944 15.1508 45.2547 15.1508C45.458 15.1508 46.4948 14.3033 48.8579 12.2054C50.6825 10.5856 52.2965 9.12887 52.4446 8.96842C52.7743 8.61104 52.8024 7.96962 52.5004 7.69623C52.383 7.5901 51.9657 7.36134 51.5731 7.18809C51.1806 7.01485 50.835 6.84926 50.8053 6.82006C50.7755 6.79087 51.5517 5.9652 52.5302 4.98518C54.0357 3.47704 54.3091 3.14766 54.3091 2.84208C54.3091 2.64359 54.2449 2.40382 54.1666 2.30942C53.9576 2.05745 48.6992 -0.403189 48.3699 -0.403189C48.2156 -0.403189 47.976 -0.282108 47.8373 -0.133986ZM3.77873 1.03424C2.75875 1.49044 1.88414 1.87857 1.83509 1.89676C1.75456 1.92667 4.85997 9.21286 5.02233 9.37522C5.0599 9.41267 5.40867 9.27388 5.79739 9.06665C6.63982 8.61762 7.11326 8.58675 7.4509 8.95909C7.58514 9.10709 8.08346 9.81169 8.55822 10.5248C9.03285 11.2379 9.43044 11.8032 9.44156 11.7811C9.53118 11.6035 9.37025 5.93804 9.27561 5.93804C9.21065 5.93804 8.72919 6.1534 8.20562 6.41662C7.14173 6.95156 6.80457 6.9987 6.39778 6.66931C6.12941 6.45203 6.11266 6.33729 5.95808 3.64826C5.86966 2.11093 5.76042 0.707243 5.71532 0.528971L5.63324 0.204851L3.77873 1.03424ZM47.4178 4.65244C46.6437 6.24792 46.011 7.58927 46.012 7.63342C46.013 7.67745 46.2829 7.80295 46.6118 7.91219C47.2647 8.12899 47.5691 8.45335 47.5691 8.93205C47.5691 9.10171 47.4356 9.69551 47.2725 10.2514C47.1094 10.8074 46.9748 11.3044 46.9734 11.356C46.9719 11.4074 47.6708 10.8208 48.5262 10.0522C49.3817 9.28369 50.0816 8.62073 50.0816 8.5791C50.0816 8.53734 49.8024 8.39723 49.4612 8.26754C48.5815 7.93337 48.168 7.55924 48.1641 7.09393C48.1612 6.76204 48.3809 6.50229 49.9588 4.97118C50.9476 4.01174 51.7567 3.1954 51.7567 3.15723C51.7567 3.08736 49.0401 1.74996 48.9004 1.75103C48.8591 1.75139 48.192 3.05697 47.4178 4.65244ZM17.1837 13.4983C16.9438 13.7558 16.9398 13.8799 16.9398 20.9192V28.0785L16.6329 28.1951C16.2185 28.3526 15.3091 28.3428 14.9876 28.1772C14.4609 27.906 14.1381 27.4876 12.6811 25.1874C10.7341 22.1139 10.0662 21.4719 8.27358 20.9508C7.39395 20.695 5.70586 20.749 5.13097 21.0513C4.57988 21.341 4.11793 22.0037 4.05164 22.5994C4.00666 23.0044 4.13312 23.4947 4.67583 25.0215C6.45856 30.0366 9.56958 37.3471 10.0857 37.7339C10.3786 37.9533 10.7632 37.9168 11.1208 37.6354C11.5859 37.2697 11.5294 36.8005 10.8457 35.3511C9.55295 32.6105 7.65489 27.9308 6.28507 24.1068L5.8212 22.8119L6.07605 22.6756C6.43187 22.4852 7.68648 22.6061 8.33257 22.8933C8.62474 23.023 9.03238 23.2717 9.23853 23.446C9.44467 23.6204 10.3488 24.9182 11.2477 26.3301C12.1465 27.7422 13.0547 29.0434 13.2658 29.2219C13.4769 29.4004 13.9456 29.684 14.3076 29.8521C15.6089 30.4567 17.4614 30.1667 18.4054 29.2106L18.7344 28.8774V21.3187C18.7344 13.8774 18.7306 13.756 18.4905 13.4983C18.3314 13.3275 18.1043 13.2364 17.8371 13.2364C17.5699 13.2364 17.3428 13.3275 17.1837 13.4983ZM34.4127 19.9592C34.1805 20.2084 34.1688 20.3671 34.1688 23.2548V26.2887L34.4625 26.5823C34.624 26.7438 34.8956 26.876 35.0661 26.876C35.2366 26.876 35.5082 26.7438 35.6697 26.5823L35.9634 26.2887V23.2532C35.9634 20.2349 35.9619 20.2161 35.6866 19.9574C35.3223 19.6152 34.7323 19.6161 34.4127 19.9592Z" fill="white" stroke="white" stroke-width="0.5"/>
</g>
<defs>
<clipPath id="clip0_102_1201">
<rect width="54" height="54" fill="white"/>
</clipPath>
</defs>
</svg>
