<svg width="31" height="36" viewBox="0 0 31 36" fill="none" xmlns="http://www.w3.org/2000/svg">
<path fill-rule="evenodd" clip-rule="evenodd" d="M26.0636 20.88C27.9356 20.88 29.4476 22.248 29.6636 24.12L30.8156 35.208C30.8876 35.64 30.5276 36 30.0956 36H1.29563C0.863626 36 0.503626 35.64 0.575626 35.208L1.72763 24.12C1.94363 22.248 3.45563 20.88 5.32763 20.88H11.1596C10.5116 20.376 9.86363 19.8 9.35963 19.152C7.84763 17.136 7.05563 14.688 7.05563 12.24V8.64C7.05563 3.888 10.9436 0 15.6956 0C20.4476 0 24.3356 3.888 24.3356 8.64V12.24C24.3356 14.688 23.5436 17.136 22.0316 19.152C21.5276 19.8 20.8796 20.376 20.2316 20.88H26.0636ZM22.8956 8.64C22.8956 4.68 19.6556 1.44 15.6956 1.44C11.7356 1.44 8.49563 4.68 8.49563 8.64V11.448C12.5996 10.872 15.0476 5.544 15.0476 5.472C15.1196 5.184 15.4076 5.04 15.6956 5.04C15.9836 5.04 16.1996 5.184 16.3436 5.472C16.3436 5.544 18.7916 10.872 22.8956 11.448V8.64ZM8.49563 12.888C8.63963 14.832 9.35963 16.704 10.5116 18.288C11.7356 19.944 13.6796 20.88 15.6956 20.88C17.7116 20.88 19.6556 19.944 20.8796 18.288C22.1036 16.704 22.7516 14.832 22.8956 12.888C19.2236 12.456 16.7756 9.144 15.6956 7.272C14.5436 9.144 12.0956 12.456 8.49563 12.888ZM5.32763 22.32C4.17563 22.32 3.31163 23.184 3.16763 24.264L2.08763 34.56H14.1116L10.8716 22.32H8.99963L8.06363 24.696C8.92763 25.056 9.57563 25.992 9.57563 27C9.57563 28.368 8.42363 29.52 7.05563 29.52C5.68763 29.52 4.53563 28.368 4.53563 27C4.53563 25.776 5.39963 24.768 6.55163 24.552L7.41563 22.32H5.32763ZM8.13563 27C8.13563 26.424 7.63163 25.92 7.05563 25.92C6.47963 25.92 5.97563 26.424 5.97563 27C5.97563 27.576 6.47963 28.08 7.05563 28.08C7.63163 28.08 8.13563 27.576 8.13563 27ZM12.3116 22.32L15.5516 34.56H15.8396L19.0796 22.32H12.3116ZM20.5916 22.32L17.3516 34.56H29.3036L28.2236 24.264C28.0796 23.184 27.1436 22.32 26.0636 22.32H23.9756L24.8396 24.552C25.4156 24.696 25.9196 24.912 26.3516 25.344C26.9276 25.848 27.2156 26.568 27.2156 27.36C27.2156 28.08 26.9276 28.8 26.3516 29.376C26.0636 29.664 25.6316 29.664 25.3436 29.376C25.0556 29.088 25.0556 28.656 25.3436 28.368C25.6316 28.08 25.7756 27.72 25.7756 27.36C25.7756 27 25.6316 26.64 25.3436 26.352C24.8396 25.776 23.9036 25.776 23.3276 26.352C23.0396 26.64 22.8956 27 22.8956 27.36C22.8956 27.72 23.0396 28.08 23.3276 28.368C23.6156 28.656 23.6156 29.088 23.3276 29.376C23.0396 29.664 22.6076 29.664 22.3196 29.376C21.7436 28.872 21.4556 28.152 21.4556 27.36C21.4556 26.64 21.7436 25.92 22.3196 25.344C22.6796 25.056 23.0396 24.84 23.3996 24.696L22.4636 22.32H20.5916ZM15.6957 17.9996C16.8477 17.9996 17.9277 17.4956 18.5757 16.5596C18.7917 16.2716 19.2957 16.1996 19.5837 16.4156C19.8717 16.6316 19.9437 17.1356 19.7277 17.4236C18.7917 18.7196 17.2797 19.4396 15.6957 19.4396C14.1117 19.4396 12.5997 18.7196 11.6637 17.4236C11.4477 17.1356 11.5197 16.6316 11.8077 16.4156C12.0957 16.1996 12.5997 16.2716 12.8157 16.5596C13.4637 17.4956 14.5437 17.9996 15.6957 17.9996Z" fill="#023047"/>
</svg>
