<svg width="32" height="31" viewBox="0 0 32 31" fill="none" xmlns="http://www.w3.org/2000/svg">
<path d="M31.7414 12.4272C31.7101 12.3334 29.8635 7.43507 29.0497 5.47889C29.4566 4.99376 29.707 4.36778 29.707 3.67921C29.707 2.12991 28.4394 0.862305 26.8901 0.862305C25.3408 0.862305 24.0732 2.12991 24.0732 3.67921C24.0732 5.04071 25.0591 6.18312 26.358 6.43351L27.3752 10.7841C27.4848 11.2379 27.6569 11.9891 27.4222 12.3334C27.3909 12.3803 27.297 12.5055 26.984 12.5524C24.9026 12.8654 23.682 13.9139 23.2281 14.3834L19.6444 13.1941C20.7712 12.2082 21.491 10.7371 21.491 9.12522C21.491 6.13618 19.0654 3.71051 16.0763 3.71051C13.0873 3.71051 10.6616 6.13618 10.6616 9.12522C10.6616 10.7528 11.3815 12.2082 12.5082 13.1941L8.92454 14.3834C8.45506 13.8983 7.25005 12.8498 5.16867 12.5524C4.85568 12.5055 4.76178 12.3647 4.73048 12.3334C4.49574 11.9891 4.66789 11.2379 4.77744 10.7841L5.79465 6.43351C7.09356 6.18312 8.07947 5.04071 8.07947 3.67921C8.07947 2.12991 6.81186 0.862305 5.26257 0.862305C3.71327 0.862305 2.44567 2.12991 2.44567 3.67921C2.44567 4.36778 2.69605 4.99376 3.10294 5.47889C2.28916 7.45072 0.426887 12.3334 0.411238 12.4272C0.239094 13.0689 0.192149 13.6166 1.09982 14.9468C2.08573 16.3866 7.29699 20.0642 8.26725 20.7528L10.0356 30.5024C10.0669 30.7215 10.2547 30.8623 10.4738 30.8623C10.5051 30.8623 10.5208 30.8623 10.5521 30.8623C10.7868 30.8154 10.9433 30.5963 10.912 30.3459L9.11233 20.4241C9.09668 20.3146 9.01844 20.205 8.92454 20.1424C7.2344 18.9687 2.6491 15.651 1.83533 14.4617C1.08416 13.3662 1.16241 13.0845 1.27196 12.6776C1.30326 12.5837 2.75864 8.65573 3.82281 6.08922C4.13579 6.27702 4.49574 6.41787 4.88698 6.46481L3.93236 10.5963C3.79152 11.2222 3.55678 12.1769 4.01061 12.8498C4.2297 13.1784 4.58964 13.3819 5.04347 13.4445C7.34394 13.7888 8.43941 15.1659 8.45506 15.1815C8.5646 15.338 8.76804 15.4006 8.94019 15.338L13.4159 13.867C14.1984 14.3208 15.1217 14.5712 16.092 14.5712C17.0622 14.5712 17.9699 14.3052 18.768 13.867L23.2438 15.338C23.4159 15.4006 23.6194 15.338 23.7289 15.1815C23.7446 15.1659 24.8087 13.7888 27.1405 13.4445C27.61 13.3819 27.9543 13.1784 28.1734 12.8498C28.6272 12.1925 28.4081 11.2379 28.2516 10.5963L27.297 6.46481C27.6882 6.41787 28.0482 6.27702 28.3611 6.08922C29.4253 8.65573 30.8807 12.5681 30.912 12.6776C31.0216 13.0845 31.0998 13.3662 30.3486 14.4617C29.5348 15.651 24.9496 18.9687 23.2594 20.1424C23.1655 20.205 23.1029 20.3146 23.0716 20.4241L21.2719 30.3459C21.225 30.5806 21.3815 30.8154 21.6319 30.8623C21.6632 30.8623 21.6788 30.8623 21.7101 30.8623C21.9136 30.8623 22.1014 30.7058 22.1483 30.5024L23.9167 20.7528C24.887 20.0642 30.0982 16.4022 31.0842 14.9468C31.9605 13.6323 31.9136 13.0689 31.7414 12.4272ZM5.24692 1.75433C6.31108 1.75433 7.17179 2.61504 7.17179 3.67921C7.17179 4.74337 6.31108 5.60409 5.24692 5.60409C4.18276 5.60409 3.32203 4.74337 3.32203 3.67921C3.32203 2.61504 4.18276 1.75433 5.24692 1.75433ZM11.538 9.14087C11.538 6.63695 13.5724 4.60253 16.0763 4.60253C18.5802 4.60253 20.6147 6.63695 20.6147 9.14087C20.6147 11.6448 18.5802 13.6792 16.0763 13.6792C13.5724 13.6792 11.538 11.6448 11.538 9.14087ZM24.9652 3.67921C24.9652 2.61504 25.8259 1.75433 26.8901 1.75433C27.9543 1.75433 28.815 2.61504 28.815 3.67921C28.815 4.74337 27.9543 5.60409 26.8901 5.60409C25.8259 5.60409 24.9652 4.74337 24.9652 3.67921Z" fill="#023047"/>
<path d="M4.02604 20.5957C3.61916 20.5957 3.29053 20.9243 3.29053 21.3312C3.29053 21.7381 3.61916 22.0667 4.02604 22.0667C4.43293 22.0667 4.76156 21.7381 4.76156 21.3312C4.76156 20.9243 4.43293 20.5957 4.02604 20.5957Z" fill="#023047"/>
<path d="M4.02604 24.5244C3.61916 24.5244 3.29053 24.8531 3.29053 25.2599C3.29053 25.6668 3.61916 25.9955 4.02604 25.9955C4.43293 25.9955 4.76156 25.6668 4.76156 25.2599C4.76156 24.8531 4.43293 24.5244 4.02604 24.5244Z" fill="#023047"/>
<path d="M4.02604 28.4678C3.61916 28.4678 3.29053 28.7964 3.29053 29.2033C3.29053 29.6102 3.61916 29.9388 4.02604 29.9388C4.43293 29.9388 4.76156 29.6102 4.76156 29.2033C4.76156 28.7964 4.43293 28.4678 4.02604 28.4678Z" fill="#023047"/>
<path d="M28.1105 20.5957C27.7036 20.5957 27.375 20.9243 27.375 21.3312C27.375 21.7381 27.7036 22.0667 28.1105 22.0667C28.5174 22.0667 28.8461 21.7381 28.8461 21.3312C28.8461 20.9243 28.5174 20.5957 28.1105 20.5957Z" fill="#023047"/>
<path d="M28.1105 24.5244C27.7036 24.5244 27.375 24.8531 27.375 25.2599C27.375 25.6668 27.7036 25.9955 28.1105 25.9955C28.5174 25.9955 28.8461 25.6668 28.8461 25.2599C28.8461 24.8531 28.5174 24.5244 28.1105 24.5244Z" fill="#023047"/>
<path d="M28.1105 28.4678C27.7036 28.4678 27.375 28.7964 27.375 29.2033C27.375 29.6102 27.7036 29.9388 28.1105 29.9388C28.5174 29.9388 28.8461 29.6102 28.8461 29.2033C28.8461 28.7964 28.5174 28.4678 28.1105 28.4678Z" fill="#023047"/>
</svg>
