<svg width="59" height="59" viewBox="0 0 59 59" fill="none" xmlns="http://www.w3.org/2000/svg">
<path d="M28.8454 19.8515C32.7814 19.8515 35.9838 16.6491 35.9838 12.7131C35.9838 8.77663 32.7814 5.57471 28.8454 5.57471C24.9094 5.57471 21.707 8.77709 21.707 12.7131C21.707 16.6491 24.909 19.8515 28.8454 19.8515ZM28.8454 8.88381C30.9566 8.88381 32.6747 10.6019 32.6747 12.7131C32.6747 14.8243 30.9571 16.5424 28.8454 16.5424C26.7337 16.5424 25.0166 14.8248 25.0166 12.7131C25.0161 10.6019 26.7337 8.88381 28.8454 8.88381Z" fill="#E5EAEC"/>
<path d="M47.6488 19.8755C46.9291 18.7423 46.1017 17.671 45.1791 16.6777C45.0881 16.686 44.993 16.6985 44.8978 16.7152C43.723 16.9096 42.5976 17.2529 41.543 17.7412C39.4872 18.6762 37.6998 20.1407 36.3472 22.0269C35.3419 23.4253 34.6305 24.9844 34.2332 26.6642C34.2166 26.7219 34.1999 26.7843 34.1879 26.8503L34.1588 27.0074C34.1214 27.177 34.0886 27.3507 34.0678 27.4874L29.65 50.7685C29.3811 50.7809 29.1122 50.7851 28.8434 50.7851C28.5745 50.7851 28.3056 50.7809 28.0409 50.7685L23.6314 27.5285C23.6023 27.3548 23.5695 27.1811 23.5362 27.0365L23.503 26.8462C23.4905 26.7843 23.4739 26.7261 23.4572 26.6642C23.0599 24.9891 22.3485 23.4295 21.3433 22.0269C19.9615 20.1033 18.1538 18.6638 16.1392 17.7454C14.9851 17.2159 13.7605 16.8602 12.5113 16.6824C11.5929 17.6751 10.7697 18.7427 10.0541 19.876C7.80796 23.4003 6.5708 27.5373 6.5708 31.8225C6.5708 44.1045 16.5651 54.0946 28.8424 54.0946C41.1239 54.0946 51.1182 44.1045 51.1182 31.8225C51.1196 27.516 49.8866 23.3916 47.6488 19.8755ZM9.88083 31.8225C9.88083 27.632 11.2709 23.611 13.7485 20.3513C13.7526 20.3513 13.7526 20.3513 13.7526 20.3513C15.6638 20.9842 17.3971 22.2006 18.6546 23.9542C19.4279 25.0297 19.9661 26.2295 20.2595 27.5244C20.2636 27.5451 20.2678 27.5696 20.2761 27.5904L20.2927 27.6814C20.3177 27.8099 20.3422 27.9378 20.3713 28.1074L24.5868 50.3005C16.177 48.3648 9.88083 40.8153 9.88083 31.8225ZM33.1 50.3009L37.3233 28.0704C37.3441 27.942 37.3686 27.814 37.4018 27.6528L37.4143 27.5909C37.4226 27.5659 37.4268 27.5452 37.4309 27.5248C37.7248 26.2299 38.2625 25.0302 39.0358 23.9547C40.2975 22.1923 42.035 20.9764 43.9503 20.3476C46.4241 23.599 47.8096 27.6075 47.8096 31.8225C47.8101 40.8153 41.5143 48.3648 33.1 50.3009Z" fill="#E5EAEC"/>
<path d="M28.8451 24.1868C29.3856 24.1868 29.824 23.7484 29.824 23.2079C29.824 22.6674 29.3856 22.229 28.8451 22.229C28.3046 22.229 27.8662 22.6674 27.8662 23.2079C27.8662 23.7484 28.3046 24.1868 28.8451 24.1868Z" fill="white"/>
<path d="M28.8454 28.4535C29.5111 28.4535 30.0511 27.9139 30.0511 27.2478C30.0511 26.5821 29.5116 26.0425 28.8454 26.0425C28.1797 26.0425 27.6396 26.5821 27.6396 27.2478C27.6396 27.9139 28.1797 28.4535 28.8454 28.4535Z" fill="white"/>
<path d="M28.8455 30.3101C27.9534 30.3101 27.23 31.033 27.23 31.9256C27.23 32.8176 27.9534 33.5411 28.8455 33.5411C29.7376 33.5411 30.461 32.8181 30.461 31.9256C30.461 31.033 29.7376 30.3101 28.8455 30.3101Z" fill="white"/>
<path d="M28.8451 39.6636C28.3046 39.6636 27.8662 40.102 27.8662 40.6425C27.8662 41.183 28.3046 41.6214 28.8451 41.6214C29.3856 41.6214 29.824 41.183 29.824 40.6425C29.824 40.102 29.3856 39.6636 28.8451 39.6636Z" fill="white"/>
<path d="M28.8454 35.396C28.1797 35.396 27.6396 35.9356 27.6396 36.6017C27.6396 37.2674 28.1792 37.8075 28.8454 37.8075C29.5111 37.8075 30.0511 37.2679 30.0511 36.6017C30.0507 35.936 29.5111 35.396 28.8454 35.396Z" fill="white"/>
</svg>
