<svg width="181" height="59" viewBox="0 0 181 59" fill="none" xmlns="http://www.w3.org/2000/svg">
<path d="M84.6035 24.313L84.4717 24.3716C83.71 23.6685 82.792 23.1069 81.7178 22.687C80.6533 22.2671 79.4814 22.0571 78.2021 22.0571C76.9717 22.0571 75.8438 22.2524 74.8184 22.6431C73.793 23.0239 72.9092 23.5806 72.167 24.313C71.4346 25.0454 70.8633 25.9438 70.4531 27.0083C70.043 28.0728 69.8379 29.2837 69.8379 30.6411C69.8379 32.1353 70.0332 33.5317 70.4238 34.8306C70.8145 36.1196 71.3955 37.2378 72.167 38.1851C72.9385 39.1323 73.9004 39.8794 75.0527 40.4263C76.2148 40.9634 77.5674 41.2319 79.1104 41.2319C79.667 41.2319 80.2236 41.1733 80.7803 41.0562C81.3369 40.939 81.8691 40.7681 82.377 40.5435C82.8945 40.3091 83.3779 40.0308 83.8271 39.7085C84.2861 39.3765 84.7012 39.0005 85.0723 38.5806L85.2334 38.6831L84.0615 41.6714C83.3291 41.9546 82.5186 42.1694 81.6299 42.3159C80.751 42.4722 79.8623 42.5503 78.9639 42.5503C77.1572 42.5503 75.502 42.2915 73.998 41.7739C72.5039 41.2466 71.2148 40.5044 70.1309 39.5474C69.0566 38.5903 68.2168 37.4429 67.6113 36.105C67.0156 34.7573 66.7178 33.2632 66.7178 31.6226C66.7178 30.6948 66.835 29.7817 67.0693 28.8833C67.3135 27.9849 67.665 27.1304 68.124 26.3198C68.583 25.5093 69.1494 24.7671 69.8232 24.0933C70.4971 23.4097 71.2637 22.8188 72.123 22.3208C72.9922 21.8228 73.9443 21.437 74.9795 21.1636C76.0244 20.8804 77.1523 20.7388 78.3633 20.7388C80.248 20.7388 81.9961 21.0269 83.6074 21.603L84.6035 24.313ZM86.9033 37.7749C86.9033 37.0034 87.0596 36.3345 87.3721 35.7681C87.6943 35.2017 88.1191 34.7183 88.6465 34.3179C89.1738 33.9175 89.7744 33.5952 90.4482 33.3511C91.1221 33.0972 91.8203 32.9019 92.543 32.7651C93.2656 32.6187 93.9785 32.521 94.6816 32.4722C95.3848 32.4136 96.0293 32.3794 96.6152 32.3696V31.6226C96.6152 30.978 96.5322 30.4214 96.3662 29.9526C96.2002 29.4839 95.9658 29.0981 95.6631 28.7954C95.3604 28.4829 94.9941 28.2534 94.5645 28.1069C94.1445 27.9507 93.6807 27.8726 93.1729 27.8726C92.8213 27.8726 92.4746 27.9019 92.1328 27.9604C91.791 28.019 91.4346 28.1167 91.0635 28.2534C90.7021 28.3901 90.3164 28.5757 89.9062 28.8101C89.5059 29.0444 89.0713 29.3423 88.6025 29.7036L88.4561 29.6157L89.4521 27.5503C89.7744 27.4038 90.0918 27.2866 90.4043 27.1987C90.7168 27.1011 91.0342 27.0229 91.3564 26.9644C91.6787 26.9058 92.0059 26.8667 92.3379 26.8472C92.6797 26.8179 93.0361 26.8032 93.4072 26.8032C94.4326 26.8032 95.3066 26.9302 96.0293 27.1841C96.7617 27.4282 97.3574 27.77 97.8164 28.2095C98.2852 28.6392 98.627 29.147 98.8418 29.7329C99.0566 30.3091 99.1641 30.9292 99.1641 31.5933V36.3687C99.1641 37.1987 99.1738 37.9263 99.1934 38.5513C99.2227 39.1665 99.252 39.6987 99.2812 40.1479C99.3203 40.5972 99.3643 40.9731 99.4131 41.2759C99.4717 41.5786 99.5303 41.8325 99.5889 42.0376V42.0962H96.3516V42.0376C96.4004 41.8813 96.4346 41.7056 96.4541 41.5103C96.4834 41.3149 96.5078 41.0806 96.5273 40.8071C96.3223 40.9829 96.0781 41.1636 95.7949 41.3491C95.5215 41.5347 95.2041 41.7056 94.8428 41.8618C94.4912 42.0083 94.0957 42.1255 93.6562 42.2134C93.2266 42.311 92.7529 42.3599 92.2354 42.3599C90.5361 42.3599 89.2227 41.9644 88.2949 41.1733C87.3672 40.3726 86.9033 39.2397 86.9033 37.7749ZM96.6152 33.5122C95.7266 33.522 94.8721 33.5757 94.0518 33.6733C93.2314 33.7612 92.5039 33.9517 91.8691 34.2446C91.2441 34.5376 90.7412 34.9575 90.3604 35.5044C89.9893 36.0415 89.8037 36.7593 89.8037 37.6577C89.8037 38.8101 90.0918 39.689 90.668 40.2944C91.2441 40.8999 92.04 41.2026 93.0557 41.2026C93.5244 41.2026 93.9492 41.1392 94.3301 41.0122C94.7207 40.8755 95.0625 40.7095 95.3555 40.5142C95.6582 40.3091 95.9121 40.0894 96.1172 39.855C96.3223 39.6108 96.4785 39.3765 96.5859 39.1519C96.6055 38.7808 96.6152 38.3706 96.6152 37.9214C96.6152 37.4624 96.6152 36.9448 96.6152 36.3687V33.5122ZM103.603 32.8237C103.603 31.9937 103.588 31.271 103.559 30.6558C103.539 30.0308 103.51 29.4937 103.471 29.0444C103.441 28.5952 103.397 28.2192 103.339 27.9165C103.29 27.6138 103.236 27.3599 103.178 27.1548V27.0962H106.562V27.1548C106.483 27.3794 106.415 27.6528 106.356 27.9751C106.308 28.2974 106.269 28.7124 106.239 29.2202C106.601 28.9175 106.977 28.6196 107.367 28.3267C107.758 28.0337 108.158 27.7749 108.568 27.5503C108.979 27.3257 109.394 27.145 109.813 27.0083C110.243 26.8716 110.673 26.8032 111.103 26.8032C111.366 26.8032 111.596 26.8179 111.791 26.8472C111.986 26.8667 112.162 26.9009 112.318 26.9497C112.475 26.9888 112.616 27.0376 112.743 27.0962C112.87 27.145 112.992 27.1938 113.109 27.2427L112.392 30.0405L112.143 29.9819C112.025 29.5522 111.806 29.2104 111.483 28.9565C111.161 28.6929 110.722 28.561 110.165 28.561C109.862 28.561 109.545 28.6147 109.213 28.7222C108.881 28.8296 108.544 28.981 108.202 29.1763C107.86 29.3618 107.519 29.5815 107.177 29.8354C106.835 30.0796 106.503 30.3384 106.181 30.6118C106.161 30.895 106.151 31.2026 106.151 31.5347C106.151 31.8667 106.151 32.2183 106.151 32.5894V36.3687C106.151 37.1987 106.161 37.9263 106.181 38.5513C106.2 39.1665 106.229 39.6987 106.269 40.1479C106.308 40.5972 106.352 40.9731 106.4 41.2759C106.449 41.5786 106.503 41.8325 106.562 42.0376V42.0962H103.178V42.0376C103.236 41.8325 103.29 41.5786 103.339 41.2759C103.397 40.9731 103.441 40.5972 103.471 40.1479C103.51 39.6987 103.539 39.1665 103.559 38.5513C103.588 37.9263 103.603 37.1987 103.603 36.3687V32.8237ZM121.942 42.3599C120.858 42.3599 119.843 42.189 118.896 41.8472C117.948 41.5054 117.123 41.0073 116.42 40.353C115.717 39.689 115.16 38.8735 114.75 37.9067C114.35 36.9302 114.149 35.8169 114.149 34.5669C114.149 33.4634 114.335 32.4429 114.706 31.5054C115.077 30.5581 115.59 29.7378 116.244 29.0444C116.898 28.3511 117.66 27.8091 118.529 27.4185C119.408 27.0278 120.355 26.8325 121.371 26.8325C122.377 26.8325 123.31 27.0083 124.169 27.3599C125.028 27.7017 125.771 28.2046 126.396 28.8687C127.03 29.5229 127.528 30.3384 127.89 31.3149C128.261 32.2817 128.461 33.3853 128.49 34.6255C127.387 34.606 126.283 34.5913 125.18 34.5815C124.076 34.5718 122.929 34.5669 121.737 34.5669C120.888 34.5669 120.058 34.5718 119.247 34.5815C118.446 34.5913 117.724 34.606 117.079 34.6255C117.138 35.6411 117.294 36.5591 117.548 37.3794C117.812 38.1997 118.168 38.9028 118.617 39.4888C119.076 40.0649 119.628 40.5093 120.272 40.8218C120.927 41.1343 121.664 41.2905 122.484 41.2905C123.051 41.2905 123.583 41.2271 124.081 41.1001C124.589 40.9634 125.048 40.7778 125.458 40.5435C125.868 40.3091 126.234 40.0356 126.557 39.7231C126.879 39.4009 127.152 39.0542 127.377 38.6831L127.553 38.771L126.469 41.3784C125.941 41.6519 125.312 41.8862 124.579 42.0815C123.847 42.2671 122.968 42.3599 121.942 42.3599ZM119.994 33.4243C120.971 33.4243 121.947 33.4243 122.924 33.4243C123.91 33.4146 124.804 33.395 125.604 33.3657C125.517 32.5161 125.351 31.7544 125.106 31.0806C124.862 30.4067 124.55 29.8354 124.169 29.3667C123.788 28.8979 123.339 28.5366 122.821 28.2827C122.304 28.0288 121.732 27.9019 121.107 27.9019C120.541 27.9019 120.019 28.0288 119.54 28.2827C119.071 28.5269 118.661 28.8833 118.31 29.3521C117.958 29.8208 117.675 30.397 117.46 31.0806C117.245 31.7544 117.118 32.5259 117.079 33.395C117.519 33.4146 117.982 33.4243 118.471 33.4243C118.959 33.4243 119.467 33.4243 119.994 33.4243ZM141.029 32.8237C141.029 31.7397 141.005 30.8267 140.956 30.0845C140.917 29.3325 140.868 28.7173 140.81 28.2388H134.687V36.3687C134.687 37.1987 134.696 37.9263 134.716 38.5513C134.745 39.1665 134.774 39.6987 134.804 40.1479C134.843 40.5972 134.887 40.9731 134.936 41.2759C134.994 41.5786 135.053 41.8325 135.111 42.0376V42.0962H131.728V42.0376C131.786 41.8325 131.84 41.5786 131.889 41.2759C131.938 40.9731 131.981 40.5972 132.021 40.1479C132.06 39.6987 132.089 39.1665 132.108 38.5513C132.128 37.9263 132.138 37.1987 132.138 36.3687V28.2388L129.677 28.3267V27.0376C129.979 27.0571 130.341 27.0718 130.761 27.0815C131.181 27.0913 131.64 27.0962 132.138 27.0962V25.4116C132.138 24.728 132.221 24.1177 132.387 23.5806C132.562 23.0435 132.797 22.5747 133.09 22.1743C133.393 21.7739 133.739 21.4321 134.13 21.1489C134.53 20.8657 134.95 20.6362 135.39 20.4604C135.829 20.2847 136.278 20.1577 136.737 20.0796C137.196 20.0015 137.646 19.9624 138.085 19.9624C138.573 19.9624 139.027 19.9819 139.447 20.021C139.867 20.0601 140.243 20.1089 140.575 20.1675C140.907 20.2261 141.19 20.2847 141.425 20.3433C141.669 20.4019 141.854 20.4507 141.981 20.4897L142.553 22.98L142.377 23.0825C142.182 22.8384 141.947 22.5991 141.674 22.3647C141.4 22.1304 141.083 21.9204 140.722 21.7349C140.37 21.5396 139.97 21.3833 139.521 21.2661C139.071 21.1489 138.573 21.0903 138.026 21.0903C137.782 21.0903 137.47 21.1294 137.089 21.2075C136.718 21.2856 136.352 21.4614 135.99 21.7349C135.639 21.9985 135.331 22.3989 135.067 22.936C134.813 23.4634 134.687 24.1812 134.687 25.0894V27.0962C136.024 27.0864 137.24 27.0767 138.334 27.0669C139.428 27.0474 140.375 27.0278 141.176 27.0083C141.986 26.9888 142.631 26.9692 143.109 26.9497C143.598 26.9204 143.9 26.8911 144.018 26.8618C143.92 27.3599 143.842 27.8335 143.783 28.2827C143.725 28.7319 143.681 29.1909 143.651 29.6597C143.622 30.1284 143.603 30.6216 143.593 31.1392C143.583 31.647 143.578 32.2085 143.578 32.8237V36.3687C143.578 37.1987 143.588 37.9263 143.607 38.5513C143.627 39.1665 143.656 39.6987 143.695 40.1479C143.734 40.5972 143.778 40.9731 143.827 41.2759C143.876 41.5786 143.93 41.8325 143.988 42.0376V42.0962H140.604V42.0376C140.663 41.8325 140.717 41.5786 140.766 41.2759C140.824 40.9731 140.868 40.5972 140.897 40.1479C140.937 39.6987 140.966 39.1665 140.985 38.5513C141.015 37.9263 141.029 37.1987 141.029 36.3687V32.8237ZM148.163 32.8237C148.163 31.9937 148.148 31.271 148.119 30.6558C148.1 30.0308 148.07 29.4937 148.031 29.0444C148.002 28.5952 147.958 28.2192 147.899 27.9165C147.851 27.6138 147.797 27.3599 147.738 27.1548V27.0962H151.122V27.1548C151.044 27.3794 150.976 27.6528 150.917 27.9751C150.868 28.2974 150.829 28.7124 150.8 29.2202C151.161 28.9175 151.537 28.6196 151.928 28.3267C152.318 28.0337 152.719 27.7749 153.129 27.5503C153.539 27.3257 153.954 27.145 154.374 27.0083C154.804 26.8716 155.233 26.8032 155.663 26.8032C155.927 26.8032 156.156 26.8179 156.352 26.8472C156.547 26.8667 156.723 26.9009 156.879 26.9497C157.035 26.9888 157.177 27.0376 157.304 27.0962C157.431 27.145 157.553 27.1938 157.67 27.2427L156.952 30.0405L156.703 29.9819C156.586 29.5522 156.366 29.2104 156.044 28.9565C155.722 28.6929 155.282 28.561 154.726 28.561C154.423 28.561 154.105 28.6147 153.773 28.7222C153.441 28.8296 153.104 28.981 152.763 29.1763C152.421 29.3618 152.079 29.5815 151.737 29.8354C151.396 30.0796 151.063 30.3384 150.741 30.6118C150.722 30.895 150.712 31.2026 150.712 31.5347C150.712 31.8667 150.712 32.2183 150.712 32.5894V36.3687C150.712 37.1987 150.722 37.9263 150.741 38.5513C150.761 39.1665 150.79 39.6987 150.829 40.1479C150.868 40.5972 150.912 40.9731 150.961 41.2759C151.01 41.5786 151.063 41.8325 151.122 42.0376V42.0962H147.738V42.0376C147.797 41.8325 147.851 41.5786 147.899 41.2759C147.958 40.9731 148.002 40.5972 148.031 40.1479C148.07 39.6987 148.1 39.1665 148.119 38.5513C148.148 37.9263 148.163 37.1987 148.163 36.3687V32.8237ZM166.562 30.0405L166.356 30.0698C166.288 29.8452 166.176 29.606 166.02 29.3521C165.873 29.0981 165.678 28.8638 165.434 28.6489C165.199 28.4341 164.911 28.2583 164.569 28.1216C164.237 27.9751 163.852 27.9019 163.412 27.9019C163.109 27.9019 162.821 27.9458 162.548 28.0337C162.284 28.1216 162.05 28.2534 161.845 28.4292C161.649 28.5952 161.493 28.8052 161.376 29.0591C161.259 29.313 161.2 29.6108 161.2 29.9526C161.2 30.4312 161.347 30.8901 161.64 31.3296C161.942 31.7593 162.318 32.189 162.768 32.6187C163.217 33.0386 163.7 33.4634 164.218 33.8931C164.745 34.3228 165.233 34.772 165.683 35.2407C166.132 35.7095 166.503 36.2124 166.796 36.7495C167.099 37.2769 167.25 37.8481 167.25 38.4634C167.25 38.9614 167.162 39.4497 166.986 39.9282C166.811 40.397 166.537 40.8169 166.166 41.188C165.805 41.5591 165.336 41.8618 164.76 42.0962C164.193 42.3208 163.515 42.4331 162.724 42.4331C162.255 42.4331 161.815 42.3892 161.405 42.3013C161.005 42.2134 160.634 42.106 160.292 41.979C159.96 41.8423 159.657 41.6958 159.384 41.5396C159.12 41.3735 158.886 41.2173 158.681 41.0708L158.827 38.2876H159.062C159.159 38.7466 159.306 39.1665 159.501 39.5474C159.696 39.9282 159.936 40.2554 160.219 40.5288C160.512 40.7925 160.844 41.0024 161.215 41.1587C161.586 41.3052 161.991 41.3784 162.431 41.3784C163.153 41.3784 163.725 41.1782 164.145 40.7778C164.574 40.3774 164.789 39.855 164.789 39.2104C164.789 38.6929 164.643 38.2192 164.35 37.7896C164.066 37.3501 163.705 36.9302 163.266 36.5298C162.826 36.1294 162.353 35.729 161.845 35.3286C161.347 34.9282 160.878 34.5034 160.438 34.0542C159.999 33.5952 159.633 33.0972 159.34 32.5601C159.057 32.0132 158.915 31.3931 158.915 30.6997C158.915 30.1333 159.018 29.6157 159.223 29.147C159.438 28.6685 159.73 28.2632 160.102 27.9312C160.482 27.5894 160.932 27.3257 161.449 27.1401C161.967 26.9546 162.533 26.8618 163.148 26.8618C163.959 26.8618 164.633 26.9497 165.17 27.1255C165.717 27.2915 166.132 27.4526 166.415 27.6089L166.562 30.0405ZM175.878 41.2319C176.171 41.2319 176.459 41.1782 176.742 41.0708C177.035 40.9634 177.313 40.8169 177.577 40.6313C177.851 40.4458 178.109 40.2358 178.354 40.0015C178.607 39.7573 178.842 39.5034 179.057 39.2397L179.203 39.313L178.251 41.6714C178.134 41.73 177.987 41.8032 177.812 41.8911C177.646 41.9692 177.44 42.0425 177.196 42.1108C176.962 42.189 176.684 42.2524 176.361 42.3013C176.039 42.3599 175.658 42.3892 175.219 42.3892C173.91 42.3892 172.89 42.0376 172.157 41.3345C171.435 40.6216 171.073 39.5132 171.073 38.0093V28.2388L168.612 28.3267V27.0376C168.915 27.0571 169.276 27.0718 169.696 27.0815C170.116 27.0913 170.575 27.0962 171.073 27.0962C171.063 26.4028 171.044 25.7925 171.015 25.2651C170.995 24.728 170.966 24.2642 170.927 23.8735C170.897 23.4731 170.858 23.1362 170.81 22.8628C170.761 22.5894 170.712 22.3599 170.663 22.1743V22.1157H174.047V22.1743C173.988 22.3599 173.935 22.5894 173.886 22.8628C173.837 23.1362 173.793 23.4683 173.754 23.8589C173.725 24.2495 173.695 24.7134 173.666 25.2505C173.646 25.7778 173.632 26.3931 173.622 27.0962C174.237 27.0864 174.838 27.0767 175.424 27.0669C176.02 27.0474 176.557 27.0278 177.035 27.0083C177.523 26.979 177.934 26.9546 178.266 26.9351C178.607 26.9058 178.832 26.8813 178.939 26.8618L178.676 28.356C178.178 28.3462 177.655 28.3315 177.108 28.312C176.64 28.2925 176.103 28.2778 175.497 28.2681C174.892 28.2583 174.267 28.2485 173.622 28.2388V38.3169C173.622 38.9224 173.686 39.4155 173.812 39.7964C173.949 40.1675 174.12 40.4604 174.325 40.6753C174.54 40.8901 174.779 41.0366 175.043 41.1147C175.316 41.1929 175.595 41.2319 175.878 41.2319Z" fill="white"/>
<path d="M28.8454 19.8515C32.7814 19.8515 35.9838 16.6491 35.9838 12.7131C35.9838 8.77663 32.7814 5.57471 28.8454 5.57471C24.9094 5.57471 21.707 8.77709 21.707 12.7131C21.707 16.6491 24.909 19.8515 28.8454 19.8515ZM28.8454 8.88381C30.9566 8.88381 32.6747 10.6019 32.6747 12.7131C32.6747 14.8243 30.9571 16.5424 28.8454 16.5424C26.7337 16.5424 25.0166 14.8248 25.0166 12.7131C25.0161 10.6019 26.7337 8.88381 28.8454 8.88381Z" fill="#D4F0F5"/>
<path d="M47.6488 19.8755C46.9291 18.7423 46.1017 17.671 45.1791 16.6777C45.0881 16.686 44.993 16.6985 44.8978 16.7152C43.723 16.9096 42.5976 17.2529 41.543 17.7412C39.4872 18.6762 37.6998 20.1407 36.3472 22.0269C35.3419 23.4253 34.6305 24.9844 34.2332 26.6642C34.2166 26.7219 34.1999 26.7843 34.1879 26.8503L34.1588 27.0074C34.1214 27.177 34.0886 27.3507 34.0678 27.4874L29.65 50.7685C29.3811 50.7809 29.1122 50.7851 28.8434 50.7851C28.5745 50.7851 28.3056 50.7809 28.0409 50.7685L23.6314 27.5285C23.6023 27.3548 23.5695 27.1811 23.5362 27.0365L23.503 26.8462C23.4905 26.7843 23.4739 26.7261 23.4572 26.6642C23.0599 24.9891 22.3485 23.4295 21.3433 22.0269C19.9615 20.1033 18.1538 18.6638 16.1392 17.7454C14.9851 17.2159 13.7605 16.8602 12.5113 16.6824C11.5929 17.6751 10.7697 18.7427 10.0541 19.876C7.80796 23.4003 6.5708 27.5373 6.5708 31.8225C6.5708 44.1045 16.5651 54.0946 28.8424 54.0946C41.1239 54.0946 51.1182 44.1045 51.1182 31.8225C51.1196 27.516 49.8866 23.3916 47.6488 19.8755ZM9.88083 31.8225C9.88083 27.632 11.2709 23.611 13.7485 20.3513C13.7526 20.3513 13.7526 20.3513 13.7526 20.3513C15.6638 20.9842 17.3971 22.2006 18.6546 23.9542C19.4279 25.0297 19.9661 26.2295 20.2595 27.5244C20.2636 27.5451 20.2678 27.5696 20.2761 27.5904L20.2927 27.6814C20.3177 27.8099 20.3422 27.9378 20.3713 28.1074L24.5868 50.3005C16.177 48.3648 9.88083 40.8153 9.88083 31.8225ZM33.1 50.3009L37.3233 28.0704C37.3441 27.942 37.3686 27.814 37.4018 27.6528L37.4143 27.5909C37.4226 27.5659 37.4268 27.5452 37.4309 27.5248C37.7248 26.2299 38.2625 25.0302 39.0358 23.9547C40.2975 22.1923 42.035 20.9764 43.9503 20.3476C46.4241 23.599 47.8096 27.6075 47.8096 31.8225C47.8101 40.8153 41.5143 48.3648 33.1 50.3009Z" fill="#D4F0F5"/>
<path d="M28.8451 24.1868C29.3856 24.1868 29.824 23.7484 29.824 23.2079C29.824 22.6674 29.3856 22.229 28.8451 22.229C28.3046 22.229 27.8662 22.6674 27.8662 23.2079C27.8662 23.7484 28.3046 24.1868 28.8451 24.1868Z" fill="white"/>
<path d="M28.8454 28.4535C29.5111 28.4535 30.0511 27.9139 30.0511 27.2478C30.0511 26.5821 29.5116 26.0425 28.8454 26.0425C28.1797 26.0425 27.6396 26.5821 27.6396 27.2478C27.6396 27.9139 28.1797 28.4535 28.8454 28.4535Z" fill="white"/>
<path d="M28.8455 30.3101C27.9534 30.3101 27.23 31.033 27.23 31.9256C27.23 32.8176 27.9534 33.5411 28.8455 33.5411C29.7376 33.5411 30.461 32.8181 30.461 31.9256C30.461 31.033 29.7376 30.3101 28.8455 30.3101Z" fill="white"/>
<path d="M28.8451 39.6636C28.3046 39.6636 27.8662 40.102 27.8662 40.6425C27.8662 41.183 28.3046 41.6214 28.8451 41.6214C29.3856 41.6214 29.824 41.183 29.824 40.6425C29.824 40.102 29.3856 39.6636 28.8451 39.6636Z" fill="white"/>
<path d="M28.8454 35.396C28.1797 35.396 27.6396 35.9356 27.6396 36.6017C27.6396 37.2674 28.1792 37.8075 28.8454 37.8075C29.5111 37.8075 30.0511 37.2679 30.0511 36.6017C30.0507 35.936 29.5111 35.396 28.8454 35.396Z" fill="white"/>
</svg>
