<svg width="298" height="154" viewBox="0 0 298 154" fill="none" xmlns="http://www.w3.org/2000/svg">
<path fill-rule="evenodd" clip-rule="evenodd" d="M306.289 25.1783C207.388 117.729 132.344 22.8673 16.6506 156.293H0.755859C32.5454 102.304 89.0602 71.4539 129.68 63.7413C184.429 52.1724 249.774 69.5257 306.289 0.112305C306.289 9.75306 308.055 27.1064 306.289 25.1783Z" fill="#E5EAEC"/>
<path fill-rule="evenodd" clip-rule="evenodd" d="M320.725 60.8121C221.825 153.363 146.78 58.5011 31.0872 191.926H15.1924C46.982 137.938 103.497 107.088 144.117 99.3751C198.865 87.8062 264.211 105.16 320.725 35.7461C320.725 45.3868 322.492 62.7402 320.725 60.8121Z" fill="#E5EAEC"/>
<path fill-rule="evenodd" clip-rule="evenodd" d="M334.535 95.7613C235.634 188.312 160.59 93.4503 44.8963 226.876H29.0015C60.791 172.887 117.306 142.037 157.926 134.324C212.675 122.755 278.02 140.109 334.535 70.6953C334.535 80.3361 336.301 97.6894 334.535 95.7613Z" fill="#E5EAEC"/>
</svg>
