<svg width="793" height="597" viewBox="0 0 793 597" fill="none" xmlns="http://www.w3.org/2000/svg">
<path d="M30.375 179.516H216.752C222.275 179.516 226.752 183.993 226.752 189.516V348.815C226.752 354.338 222.275 358.815 216.752 358.815H98.4344C92.9115 358.815 88.4344 354.338 88.4344 348.815V298.803C88.4344 293.28 92.9115 288.803 98.4344 288.803H140.763C146.286 288.803 150.763 293.28 150.763 298.803V491.402C150.763 496.925 146.286 501.402 140.763 501.402H102.703C97.1806 501.402 92.7035 505.879 92.7035 511.402V593.477" stroke="white" stroke-opacity="0.2" stroke-width="3" stroke-linecap="round"/>
<path d="M520.602 2V246.62" stroke="white" stroke-opacity="0.2" stroke-width="3" stroke-linecap="round"/>
<path d="M761.645 77.1016H424.742C419.219 77.1016 414.742 81.5787 414.742 87.1016V195.834" stroke="white" stroke-opacity="0.2" stroke-width="3" stroke-linecap="round"/>
<path d="M757.875 300.25H714.013C708.49 300.25 704.013 304.727 704.013 310.25V583.368C704.013 588.891 699.535 593.368 694.013 593.368H574.783C569.26 593.368 564.783 588.891 564.783 583.368V533.831C564.783 528.308 560.305 523.831 554.783 523.831H435.32" stroke="white" stroke-opacity="0.2" stroke-width="3" stroke-linecap="round"/>
<path d="M578.16 2.85938V283.565C578.16 289.088 582.637 293.565 588.16 293.565H616.957C622.48 293.565 626.957 298.043 626.957 303.565V535.152C626.957 540.675 622.48 545.152 616.957 545.152H541.68C536.157 545.152 531.68 549.63 531.68 555.152V593.203" stroke="white" stroke-opacity="0.2" stroke-width="3" stroke-linecap="round"/>
<path d="M447.828 4.63281V106.671C447.828 112.193 452.305 116.671 457.828 116.671H696.33C701.852 116.671 706.33 112.193 706.33 106.671V4.63281" stroke="white" stroke-opacity="0.2" stroke-width="3" stroke-linecap="round"/>
<path d="M722.538 593.505V486.815C722.538 481.292 718.06 476.815 712.538 476.815H524.643C519.12 476.815 514.643 472.337 514.643 466.815V355.648C514.643 350.126 519.12 345.648 524.643 345.648H602.243C607.766 345.648 612.243 350.126 612.243 355.648V404.304C612.243 409.827 607.766 414.304 602.243 414.304H417.383C411.86 414.304 407.383 418.781 407.383 424.304V568.746C407.383 574.269 402.906 578.746 397.383 578.746H322.15C316.627 578.746 312.15 574.269 312.15 568.746V501.819C312.15 496.296 307.673 491.819 302.15 491.819H237.438C231.915 491.819 227.438 496.296 227.438 501.819V593.346" stroke="white" stroke-opacity="0.2" stroke-width="3" stroke-linecap="round"/>
<path d="M46.4922 315.125H111.352C116.875 315.125 121.352 319.602 121.352 325.125V593.32" stroke="white" stroke-opacity="0.2" stroke-width="3" stroke-linecap="round"/>
<path d="M21.6641 62.7891H173.028C178.551 62.7891 183.028 67.2662 183.028 72.7891V150.197C183.028 155.72 178.551 160.197 173.028 160.197H111.362C105.839 160.197 101.362 164.674 101.362 170.197V250.558C101.362 256.081 105.839 260.558 111.362 260.558H240.832C246.355 260.558 250.832 265.035 250.832 270.558V593.09" stroke="white" stroke-opacity="0.2" stroke-width="3" stroke-linecap="round"/>
<path d="M366.79 504.284V583.332C366.79 588.855 371.267 593.332 376.79 593.332H425.003C430.526 593.332 435.003 588.855 435.003 583.332V441.398C435.003 435.876 430.526 431.398 425.003 431.398H286.617C281.094 431.398 276.617 435.876 276.617 441.398V593.087" stroke="white" stroke-opacity="0.2" stroke-width="3" stroke-linecap="round"/>
<path d="M0 98.2969C0 70.6826 22.3858 48.2969 50 48.2969H742.95C770.564 48.2969 792.95 70.6826 792.95 98.2969V596.987H0V98.2969Z" fill="url(#paint0_radial_903_68)"/>
<defs>
<radialGradient id="paint0_radial_903_68" cx="0" cy="0" r="1" gradientUnits="userSpaceOnUse" gradientTransform="translate(396.475 308.672) rotate(90) scale(288.315 416.664)">
<stop stop-color="#023047" stop-opacity="0"/>
<stop offset="1" stop-color="#023047"/>
</radialGradient>
</defs>
</svg>
